<svg width="4013" height="4143" viewBox="0 0 4013 4143" fill="none" xmlns="http://www.w3.org/2000/svg">
<path d="M413.231 1372.64C413.231 1372.64 382.721 1344.13 419.957 1283.1C457.193 1222.08 524.842 1201.55 518.116 1250.48C511.391 1299.42 484.292 1397.17 413.231 1372.64Z" fill="#FF9EAF"/>
<path d="M460.603 1295.31C427.544 1344.62 397.009 1396.31 369.17 1450.09Z" fill="#FF9EAF"/>
<path d="M460.603 1295.31C427.544 1344.62 397.009 1396.31 369.17 1450.09" stroke="#263238" stroke-linecap="round" stroke-linejoin="round"/>
<path d="M3131.48 2146.2C3131.48 2146.2 3117.73 2102.78 3175.93 2073.92C3234.12 2045.05 3300.8 2070.04 3273.89 2107.48C3246.99 2144.91 3181.58 2211.56 3131.48 2146.2Z" fill="#FF9EAF"/>
<path d="M3205.36 2109.71C3155.85 2131.19 3107.44 2156.23 3060.42 2184.69Z" fill="#FF9EAF"/>
<path d="M3205.36 2109.71C3155.85 2131.19 3107.44 2156.23 3060.42 2184.69" stroke="#263238" stroke-linecap="round" stroke-linejoin="round"/>
<path d="M3760.4 3237.54C3760.4 3237.54 3721.41 3236.37 3721.41 3160.56C3721.41 3084.75 3765.47 3019.74 3784.18 3064.22C3802.9 3108.69 3829.61 3206.33 3760.4 3237.54Z" fill="#FF9EAF"/>
<path d="M3760.3 3141.43C3758.12 3204.7 3759.09 3268.06 3763.23 3331.18Z" fill="#FF9EAF"/>
<path d="M3760.3 3141.43C3758.12 3204.7 3759.09 3268.06 3763.23 3331.18" stroke="#263238" stroke-linecap="round" stroke-linejoin="round"/>
<path d="M1341.02 2444.73C1341.02 2444.73 1373.09 2418.8 1409.25 2480.53C1445.42 2542.25 1440.64 2625.92 1404.18 2602.92C1367.73 2579.92 1299.49 2517.61 1341.02 2444.73Z" fill="#FF9EAF"/>
<path d="M1387.22 2522.54C1358.66 2469.48 1327.48 2418.53 1293.84 2369.98Z" fill="#FF9EAF"/>
<path d="M1387.22 2522.54C1358.66 2469.48 1327.48 2418.53 1293.84 2369.98" stroke="#263238" stroke-linecap="round" stroke-linejoin="round"/>
<path d="M115.535 1044.77C125.073 1009.3 138.865 975.695 156.475 945.024C183.574 899.141 262.725 926.953 262.725 926.953C284.365 928.713 276.665 1073.4 207.163 1095.7C177.92 1105.2 219.153 1116.71 246.154 1110.13C273.155 1103.56 333.201 1123.28 311.464 1162.59C289.727 1201.9 229.681 1247.78 197.026 1247.78C158.168 1249.23 119.977 1235.39 88.2414 1208.35C50.2253 1175.61 17.668 1083.5 17.668 1024.82C17.668 966.147 66.6015 920.381 115.535 1044.77Z" fill="#FF9EAF"/>
<path d="M166.223 1063.08C166.223 1063.08 68.0636 1213.87 51.1025 1282.99Z" fill="#FF9EAF"/>
<path d="M166.223 1063.08C166.223 1063.08 68.0636 1213.87 51.1025 1282.99" stroke="#263238" stroke-linecap="round" stroke-linejoin="round"/>
<path d="M2788.84 1075.63C2771.49 1044.86 2757.93 1011.22 2748.59 975.77C2735.43 921.672 2802.39 863.937 2802.39 863.937C2816.82 844.457 2906.79 941.034 2878.52 1020.6C2866.34 1054.63 2899.68 1022.24 2912.15 992.433C2924.63 962.627 2974.34 918.034 2986.63 962.861C2998.91 1007.69 2991.89 1092.65 2971.81 1123.63C2948.81 1161.33 2916.23 1188.97 2879.01 1202.37C2834.17 1218.21 2754.14 1192.63 2715.64 1156.25C2677.14 1119.87 2677.33 1045.36 2788.84 1075.63Z" fill="#FF9EAF"/>
<path d="M2832.13 1039.02C2832.13 1039.02 2870.14 1224.9 2904.94 1283.69" stroke="#263238" stroke-linecap="round" stroke-linejoin="round"/>
<path d="M3809.14 2499.54C3791.75 2468.74 3778.19 2435.06 3768.88 2399.56C3755.72 2345.58 3822.59 2287.72 3822.59 2287.72C3837.11 2268.36 3926.99 2364.82 3898.72 2444.5C3886.63 2478.53 3919.87 2446.03 3932.35 2416.22C3944.83 2386.41 3994.64 2341.94 4006.92 2386.77C4019.2 2431.59 4012.18 2516.44 3992.1 2547.41C3969.07 2585.07 3936.5 2612.7 3899.3 2626.16C3854.46 2642.11 3774.44 2616.42 3735.93 2580.16C3697.43 2543.89 3697.62 2469.14 3809.14 2499.54Z" fill="#FF9EAF"/>
<path d="M3852.42 2462.81C3852.42 2462.81 3890.43 2648.8 3925.23 2707.48Z" fill="#FF9EAF"/>
<path d="M3852.42 2462.81C3852.42 2462.81 3890.43 2648.8 3925.23 2707.48" stroke="#263238" stroke-linecap="round" stroke-linejoin="round"/>
<path d="M1459.06 327.068C1489.47 332.823 1519.02 343.851 1546.79 359.808C1588.61 384.921 1578.18 483.259 1578.18 483.259C1580.03 509.31 1460.13 522.688 1430.99 443.478C1418.61 409.681 1415.59 461.08 1425.24 492.412C1434.89 523.744 1427.97 598.026 1392.39 578.194C1356.81 558.362 1309.92 494.407 1304.66 455.565C1297.69 409.735 1303.27 362.421 1320.55 320.731C1341.51 270.389 1411.59 217.348 1459.94 208.194C1508.29 199.041 1553.52 249.501 1459.06 327.068Z" fill="#FF9EAF"/>
<path d="M1451.85 390.202C1451.85 390.202 1312.95 296.323 1253.48 287.522Z" fill="#FF9EAF"/>
<path d="M1451.85 390.202C1451.85 390.202 1312.95 296.323 1253.48 287.522" stroke="#263238" stroke-linecap="round" stroke-linejoin="round"/>
<path d="M847.49 2981.37C868.232 2985.21 888.396 2992.68 907.341 3003.55C935.804 3020.68 928.688 3087.45 928.688 3087.45C929.956 3105.17 848.465 3114.21 828.677 3060.46C820.196 3036.99 818.247 3072.2 824.778 3093.67C831.309 3115.15 826.63 3165.37 802.456 3152.34C778.281 3139.32 746.406 3095.43 742.994 3069.14C738.002 3037.94 741.631 3005.63 753.327 2977.14C767.559 2942.88 815.225 2906.73 848.075 2900.63C880.925 2894.53 911.63 2928.68 847.49 2981.37Z" fill="#FF9EAF"/>
<path d="M842.618 3024.2C842.618 3024.2 748.162 2960.83 707.807 2954.5Z" fill="#FF9EAF"/>
<path d="M842.618 3024.2C842.618 3024.2 748.162 2960.83 707.807 2954.5" stroke="#263238" stroke-linecap="round" stroke-linejoin="round"/>
<path d="M104.716 2274.11C120.142 2256.81 137.579 2242.3 156.477 2231.04C185.72 2214.73 224.71 2262.73 224.71 2262.73C237.09 2272.35 192.738 2355.2 145.364 2340.77C125.089 2334.55 146.729 2358.02 164.86 2364.94C182.99 2371.86 212.916 2407.42 189.131 2422.09C165.347 2436.76 117.388 2440.04 97.9902 2427.02C74.5548 2412.4 55.7034 2389.01 44.2804 2360.36C30.731 2325.86 36.5797 2258.39 52.7609 2223.42C68.9421 2188.45 109.882 2180.82 104.716 2274.11Z" fill="#FF9EAF"/>
<path d="M129.767 2305.21C129.767 2305.21 29.7558 2355.55 1 2389.93Z" fill="#FF9EAF"/>
<path d="M129.767 2305.21C129.767 2305.21 29.7558 2355.55 1 2389.93" stroke="#263238" stroke-linecap="round" stroke-linejoin="round"/>
<path d="M3752.31 994.193C3773.05 998.104 3793.21 1005.61 3812.16 1016.49C3840.62 1033.62 3833.51 1100.39 3833.51 1100.39C3834.77 1118.11 3753.28 1127.15 3733.5 1073.4C3725.02 1049.93 3723.07 1085.14 3729.6 1106.61C3736.13 1128.09 3731.45 1178.31 3707.27 1165.29C3683.1 1152.26 3651.23 1108.37 3647.81 1081.97C3642.84 1050.77 3646.46 1018.46 3658.15 989.969C3672.38 955.82 3720.04 919.56 3752.89 913.575C3785.74 907.59 3816.45 941.504 3752.31 994.193Z" fill="#FF9EAF"/>
<path d="M3747.44 1037.14C3747.44 1037.14 3652.98 973.774 3612.62 967.438Z" fill="#FF9EAF"/>
<path d="M3747.44 1037.14C3747.44 1037.14 3652.98 973.774 3612.62 967.438" stroke="#263238" stroke-linecap="round" stroke-linejoin="round"/>
<path d="M313.706 806.906C313.706 806.906 376.774 776.512 490.335 806.906C603.895 837.299 711.12 935.989 881.51 966.499C1051.9 997.01 1159.13 928.479 1178.04 814.533C1196.95 700.588 1108.63 685.45 1051.32 738.609C993.999 791.768 1051.32 882.947 1051.32 882.947" stroke="#263238" stroke-width="0.75" stroke-linecap="round" stroke-linejoin="round" stroke-dasharray="2 2"/>
<path d="M849.929 1042.42C849.929 1042.42 932.004 1080.33 1070.81 1042.42C1209.62 1004.52 1222.19 814.533 1329.42 715.843C1436.64 617.153 1525.06 723.353 1525.06 814.533C1525.06 905.713 1468.23 920.851 1411.49 920.851" stroke="#263238" stroke-width="0.75" stroke-linecap="round" stroke-linejoin="round" stroke-dasharray="2 2"/>
<path d="M2434.71 2804.64C2434.71 2804.64 2516.69 2759.11 2624.01 2880.57C2731.33 3002.02 2857.47 3138.73 3027.76 3123.6C3198.05 3108.46 3267.56 2925.86 3412.21 2888.19C3556.87 2850.53 3626.66 2956.49 3626.66 3024.91C3626.66 3093.32 3532.01 3184.38 3481.52 3116.09" stroke="#263238" stroke-width="0.75" stroke-linecap="round" stroke-linejoin="round" stroke-dasharray="2 2"/>
<path d="M2232.74 2956.49C2232.74 2956.49 2440.95 2880.57 2548.17 2986.88C2655.4 3093.2 2750.05 3252.79 2907.77 3252.79" stroke="#263238" stroke-width="0.75" stroke-linecap="round" stroke-linejoin="round" stroke-dasharray="2 2"/>
<path d="M1929.68 4143C2117.46 4143 2269.68 4117.73 2269.68 4086.56C2269.68 4055.38 2117.46 4030.11 1929.68 4030.11C1741.91 4030.11 1589.68 4055.38 1589.68 4086.56C1589.68 4117.73 1741.91 4143 1929.68 4143Z" fill="#FF9EAF"/>
<path d="M1793.12 2539.67C1793.12 2539.67 1824.7 2768.15 1804.91 2906.27C1785.12 3044.39 1761.44 3077.59 1737.75 3167.95C1714.06 3258.31 1714.06 3372.61 1714.06 3372.61L1789.7 3382.23C1789.7 3382.23 1887.96 3110.92 1895.86 2887.14C1903.75 2663.36 1868.17 2530.17 1868.17 2530.17L1793.12 2539.67Z" fill="white"/>
<path opacity="0.5" d="M1793.12 2539.67C1793.12 2539.67 1824.7 2768.15 1804.91 2906.27C1785.12 3044.39 1761.44 3077.59 1737.75 3167.95C1714.06 3258.31 1714.06 3372.61 1714.06 3372.61L1789.7 3382.23C1789.7 3382.23 1887.96 3110.92 1895.86 2887.14C1903.75 2663.36 1868.17 2530.17 1868.17 2530.17L1793.12 2539.67Z" fill="#FF9EAF" stroke="#263238" stroke-miterlimit="10"/>
<path d="M1793.12 2539.67C1793.12 2539.67 1824.7 2768.15 1804.91 2906.27C1785.12 3044.39 1761.44 3077.59 1737.75 3167.95C1714.06 3258.31 1714.06 3372.61 1714.06 3372.61L1789.7 3382.23C1789.7 3382.23 1887.96 3110.92 1895.86 2887.14C1903.75 2663.36 1868.17 2530.17 1868.17 2530.17L1793.12 2539.67Z" stroke="#263238" stroke-miterlimit="10"/>
<path d="M1724.1 4039.5C1724.1 4039.5 1704.61 4051.23 1737.75 4062.97C1760.04 4069.29 1783.33 4068.32 1805.2 4060.15C1805.2 4060.15 1812.32 4056.04 1802.67 4043.02C1793.02 4029.99 1724.1 4039.5 1724.1 4039.5Z" fill="#263238" stroke="#263238" stroke-miterlimit="10"/>
<path d="M1689.01 3352.42C1689.01 3352.42 1705.78 3319.57 1833.08 3339.63C1909.41 3351.37 1920.13 3341.86 1925.98 3385.52C1931.83 3429.17 1868.37 3838.48 1867.49 3866.64C1867.95 3893.18 1875.93 3918.72 1890.11 3939.05C1899.85 3951.96 1971.79 4005.7 1999.96 4007.46C2028.13 4009.22 2037.39 4030.93 2036.71 4046.77C2036.03 4062.62 1995.77 4076.23 1939.23 4072.83C1882.7 4069.42 1810.95 4045.25 1793.02 4044.19C1775.08 4043.14 1748.86 4056.87 1724 4039.97C1699.15 4023.07 1727.71 3950.67 1734.34 3917.22C1740.97 3883.78 1707.43 3644.04 1691.74 3528.92C1676.05 3413.8 1685.4 3376.95 1689.01 3352.42Z" fill="#FF9EAF" stroke="#263238" stroke-miterlimit="10"/>
<path opacity="0.1" d="M1689.01 3352.42C1689.01 3352.42 1705.78 3319.57 1833.08 3339.63C1909.41 3351.37 1920.13 3341.86 1925.98 3385.52C1931.83 3429.17 1868.37 3838.48 1867.49 3866.64C1867.95 3893.18 1875.93 3918.72 1890.11 3939.05C1899.85 3951.96 1971.79 4005.7 1999.96 4007.46C2028.13 4009.22 2037.39 4030.93 2036.71 4046.77C2036.03 4062.62 1995.77 4076.23 1939.23 4072.83C1882.7 4069.42 1810.95 4045.25 1793.02 4044.19C1775.08 4043.14 1748.86 4056.87 1724 4039.97C1699.15 4023.07 1727.71 3950.67 1734.34 3917.22C1740.97 3883.78 1707.43 3644.04 1691.74 3528.92C1676.05 3413.8 1685.4 3376.95 1689.01 3352.42Z" fill="black"/>
<path d="M1689.01 3352.42C1689.01 3352.42 1705.78 3319.57 1833.08 3339.63C1909.41 3351.37 1920.13 3341.86 1925.98 3385.52C1931.83 3429.17 1868.37 3838.48 1867.49 3866.64C1867.95 3893.18 1875.93 3918.72 1890.11 3939.05C1899.85 3951.96 1971.79 4005.7 1999.96 4007.46C2028.13 4009.22 2037.39 4030.93 2036.71 4046.77C2036.03 4062.62 1995.77 4076.23 1939.23 4072.83C1882.7 4069.42 1810.95 4045.25 1793.02 4044.19C1775.08 4043.14 1748.86 4056.87 1724 4039.97C1699.15 4023.07 1727.71 3950.67 1734.34 3917.22C1740.97 3883.78 1707.43 3644.04 1691.74 3528.92C1676.05 3413.8 1685.4 3376.95 1689.01 3352.42Z" stroke="#263238" stroke-miterlimit="10"/>
<path d="M1750.81 2523.83C1780.07 2592.66 1798.95 2667.2 1806.57 2743.97C1817.1 2865.31 1825.09 2973.74 1795.94 3050.37C1766.8 3127 1750.81 3238.71 1756.17 3286.59C1759.97 3318.81 1765.27 3350.74 1772.06 3382.23L1933.78 3395.26C1933.78 3395.26 1960.29 3168.66 2008.05 3037.81C2055.82 2906.97 2074.24 2680.37 2074.24 2587.9C2074.96 2543.1 2073.2 2498.29 2068.98 2453.77L1734.92 2476.19L1750.81 2523.83Z" fill="white"/>
<g style="mix-blend-mode:multiply" opacity="0.5">
<path d="M1734.92 2475.95L1750.81 2523.83C1780.07 2592.66 1798.95 2667.2 1806.57 2743.97C1817.1 2865.31 1825.09 2973.74 1795.94 3050.37C1766.8 3127 1750.81 3238.71 1756.17 3286.59C1759.77 3317.29 1764.75 3347.73 1771.09 3377.77H1801.4C1789.82 3331.9 1786.27 3283.63 1790.97 3236.01C1798.77 3157.27 1838.05 3075.48 1848.48 2914.83C1853.48 2812.57 1839.18 2710.26 1806.67 2615.59C1863.89 2625.17 1921.54 2630.58 1979.3 2631.79C2011.48 2631.17 2043.4 2624.64 2073.95 2612.43C2073.95 2603.39 2073.95 2595.06 2073.95 2587.67C2074.67 2542.86 2072.91 2498.06 2068.68 2453.54L1734.92 2475.95Z" fill="#FF9EAF"/>
</g>
<path d="M1750.81 2523.83C1780.07 2592.66 1798.95 2667.2 1806.57 2743.97C1817.1 2865.31 1825.09 2973.74 1795.94 3050.37C1766.8 3127 1750.81 3238.71 1756.17 3286.59C1759.97 3318.81 1765.27 3350.74 1772.06 3382.23L1933.78 3395.26C1933.78 3395.26 1960.29 3168.66 2008.05 3037.81C2055.82 2906.97 2074.24 2680.37 2074.24 2587.9C2074.96 2543.1 2073.2 2498.29 2068.98 2453.77L1734.92 2476.19L1750.81 2523.83Z" stroke="#263238" stroke-miterlimit="10"/>
<path d="M1924.03 2567.48C1924.03 2567.48 1936.31 2692.93 1936.31 2801.12C1936.63 2864.07 1930.44 2926.83 1917.89 2987.94" stroke="#263238" stroke-linecap="round" stroke-linejoin="round"/>
<path d="M1907.65 3027.37C1907.65 3027.37 1868.66 3135.57 1862.72 3187.2" stroke="#263238" stroke-linecap="round" stroke-linejoin="round"/>
<path d="M1964.19 790.711C1964.19 790.711 2009.22 757.032 1976.47 717.603C1943.72 678.174 1826.45 655.174 1711.82 760.318C1597.19 865.462 1649.04 957.346 1659.96 1013.2C1670.88 1069.06 1662.69 1085.49 1580.91 1174.09C1499.13 1262.69 1539.97 1390.95 1597.28 1463.12C1654.6 1535.29 1794.09 1574.83 1872.75 1564.62C1951.42 1554.41 1992.85 1607.34 2022.87 1646.77C2052.89 1686.2 2115.57 1682.79 2151.05 1676.22C2186.53 1669.65 2232.74 1670.24 2303.8 1728.91C2374.86 1787.58 2459.76 1752.38 2516.69 1682.91C2573.62 1613.44 2527.51 1502.31 2565.43 1495.74C2603.35 1489.17 2611.83 1492.45 2606.37 1453.03C2605.06 1443.13 2601.75 1433.78 2596.74 1425.78C2591.72 1417.79 2585.15 1411.4 2577.6 1407.18C2570.05 1402.96 2561.76 1401.04 2553.45 1401.59C2545.14 1402.13 2537.07 1405.13 2529.95 1410.31C2494.56 1433.78 2431.79 1485.88 2396.3 1439.88C2360.82 1393.88 2415.8 1295.43 2325.34 1216.92C2234.88 1138.41 2188.87 1216.92 2109.82 1216.92C2030.77 1216.92 1981.64 1184.06 1970.72 1125.04C1959.8 1066.01 1984.37 1003.46 1992.55 941.034C2000.74 878.605 1964.19 790.711 1964.19 790.711Z" fill="#263238" stroke="#263238" stroke-miterlimit="10"/>
<path d="M1964.19 790.712C1964.19 790.712 1912.53 753.512 1865.15 840.585C1817.78 927.657 1870.71 994.78 1795.55 1108.73C1720.4 1222.67 1556.15 1222.67 1569.99 1340.02C1583.83 1457.37 1650.8 1427.21 1650.8 1427.21" stroke="white" stroke-width="0.75" stroke-linecap="round" stroke-linejoin="round"/>
<path d="M1848.48 776.981C1848.48 776.981 1776.06 823.921 1776.06 904.304C1776.06 984.688 1812.22 1014.85 1773.23 1075.28C1734.24 1135.72 1709.29 1142.17 1709.29 1142.17" stroke="white" stroke-width="0.75" stroke-linecap="round" stroke-linejoin="round"/>
<path d="M1700.9 1259.52C1700.9 1259.52 1617.36 1333.33 1634.03 1380.27C1650.7 1427.21 1684.14 1396.93 1684.14 1396.93" stroke="white" stroke-width="0.75" stroke-linecap="round" stroke-linejoin="round"/>
<path d="M2241.02 1249.54C2241.02 1249.54 2332.85 1246.14 2341.23 1343.42C2349.61 1440.7 2332.85 1507.71 2385.78 1517.8C2438.71 1527.89 2488.81 1450.68 2524.98 1450.68" stroke="white" stroke-width="0.75" stroke-linecap="round" stroke-linejoin="round"/>
<path d="M2319 1520.97C2319 1520.97 2327.29 1554.53 2371.84 1567.91C2416.38 1581.29 2435.88 1524.37 2474.87 1511" stroke="white" stroke-width="0.75" stroke-linecap="round" stroke-linejoin="round"/>
<path d="M1964.19 790.711C1985.84 805.217 2006.22 822.319 2025.02 841.757C2043.54 863.936 2050.85 895.034 2064.01 906.064C2077.17 917.095 2117.42 923.901 2117.42 932.702C2117.42 941.503 2100.85 967.907 2100.85 967.907C2100.85 967.907 2117.42 1045.59 2122.98 1067.77C2128.54 1089.95 2132.24 1114.71 2115.57 1125.51C2091.93 1141.48 2065.28 1149.88 2038.17 1149.91L1997.62 1152.14V1249.78C1997.62 1294.14 2014.19 1385.2 2014.19 1385.2L1901.32 1316.78C1901.32 1316.78 1906.87 1239.1 1906.87 1208C1905.74 1177.51 1903.27 1147.11 1899.46 1116.94C1899.46 1116.94 1840.49 1108.14 1846.05 1059.2C1850.82 1016.49 1885.04 1030.34 1895.76 1030.34H1906.87C1906.87 1030.34 1903.17 990.438 1912.43 970.488C1921.69 950.539 1956.68 932.702 1962.14 890.574C1965.48 857.442 1966.16 824.001 1964.19 790.711V790.711Z" fill="white"/>
<g style="mix-blend-mode:multiply" opacity="0.5">
<path d="M1945.28 1098.16C1906.29 1051.22 1924.32 1009.92 1942.65 972.131C1953.99 946.975 1960.65 919.143 1962.14 890.574C1956.68 932.702 1921.59 950.422 1912.43 970.488C1903.27 990.555 1906.87 1030.34 1906.87 1030.34H1895.76C1884.75 1030.34 1850.82 1016.49 1846.05 1059.2C1840.49 1108.14 1899.46 1116.94 1899.46 1116.94C1903.27 1147.11 1905.74 1177.51 1906.87 1208C1906.87 1227.13 1904.73 1263.86 1903.17 1289.32C1928.22 1273.36 1963.02 1250.83 1997.23 1227.36V1152.5L2037.78 1150.27C2064.89 1150.23 2091.54 1141.83 2115.18 1125.86C2112.84 1093.7 1984.56 1145.34 1945.28 1098.16Z" fill="#FF9EAF"/>
</g>
<path d="M1964.19 790.711C1985.84 805.217 2006.22 822.319 2025.02 841.757C2043.54 863.936 2050.85 895.034 2064.01 906.064C2077.17 917.095 2117.42 923.901 2117.42 932.702C2117.42 941.503 2100.85 967.907 2100.85 967.907C2100.85 967.907 2117.42 1045.59 2122.98 1067.77C2128.54 1089.95 2132.24 1114.71 2115.57 1125.51C2091.93 1141.48 2065.28 1149.88 2038.17 1149.91L1997.62 1152.14V1249.78C1997.62 1294.14 2014.19 1385.2 2014.19 1385.2L1901.32 1316.78C1901.32 1316.78 1906.87 1239.1 1906.87 1208C1905.74 1177.51 1903.27 1147.11 1899.46 1116.94C1899.46 1116.94 1840.49 1108.14 1846.05 1059.2C1850.82 1016.49 1885.04 1030.34 1895.76 1030.34H1906.87C1906.87 1030.34 1903.17 990.438 1912.43 970.488C1921.69 950.539 1956.68 932.702 1962.14 890.574C1965.48 857.442 1966.16 824.001 1964.19 790.711V790.711Z" stroke="#263238" stroke-miterlimit="10"/>
<path d="M2017.7 897.264L2037.78 923.902C2037.78 923.902 2028.52 941.621 2015.66 941.621" stroke="#263238" stroke-width="0.75" stroke-linecap="round" stroke-linejoin="round"/>
<path d="M2010.29 866.166C2007.8 864.628 2005.03 863.817 2002.22 863.799C1999.42 863.781 1996.64 864.557 1994.13 866.064C1991.62 867.571 1989.44 869.767 1987.76 872.475C1986.08 875.183 1984.95 878.328 1984.46 881.657" stroke="#263238" stroke-width="0.75" stroke-linecap="round" stroke-linejoin="round"/>
<path d="M2095.1 1019.31C2089.85 1024.84 2083.54 1028.74 2076.75 1030.67C2069.95 1032.59 2062.86 1032.48 2056.11 1030.34" stroke="#263238" stroke-width="0.75" stroke-linecap="round" stroke-linejoin="round"/>
<path d="M1803.84 4065.2C1803.84 4065.2 1784.34 4078.93 1819.05 4088.67C1842.4 4093.8 1866.47 4091.29 1888.74 4081.39C1888.74 4081.39 1895.96 4076.7 1885.33 4064.02C1874.71 4051.35 1803.84 4065.2 1803.84 4065.2Z" fill="#263238" stroke="#263238" stroke-miterlimit="10"/>
<path d="M1737.65 3356.77C1737.65 3356.77 1753.54 3321.56 1886.11 3334.47C1965.55 3342.1 1976.18 3331.18 1984.17 3375.89C1992.16 3420.6 1944.4 3848.22 1944.4 3876.97C1946.01 3904.35 1955.37 3930.23 1970.91 3950.31C1981.54 3963.1 2058.64 4014.15 2087.89 4014.15C2117.13 4014.15 2127.66 4036.57 2127.66 4052.52C2127.66 4068.48 2086.62 4085.62 2028.23 4085.62C1969.84 4085.62 1894.39 4065.2 1875.87 4065.2C1857.35 4065.2 1830.74 4081.16 1804.23 4065.2C1777.71 4049.24 1804.23 3972.73 1809.59 3937.64C1814.95 3902.55 1769.82 3656.71 1748.57 3538.66C1727.32 3420.6 1734.92 3382.23 1737.65 3356.77Z" fill="#FF9EAF" stroke="#263238" stroke-miterlimit="10"/>
<path opacity="0.1" d="M1737.65 3356.77C1737.65 3356.77 1753.54 3321.56 1886.11 3334.47C1965.55 3342.1 1976.18 3331.18 1984.17 3375.89C1992.16 3420.6 1944.4 3848.22 1944.4 3876.97C1946.01 3904.35 1955.37 3930.23 1970.91 3950.31C1981.54 3963.1 2058.64 4014.15 2087.89 4014.15C2117.13 4014.15 2127.66 4036.57 2127.66 4052.52C2127.66 4068.48 2086.62 4085.62 2028.23 4085.62C1969.84 4085.62 1894.39 4065.2 1875.87 4065.2C1857.35 4065.2 1830.74 4081.16 1804.23 4065.2C1777.71 4049.24 1804.23 3972.73 1809.59 3937.64C1814.95 3902.55 1769.82 3656.71 1748.57 3538.66C1727.32 3420.6 1734.92 3382.23 1737.65 3356.77Z" fill="black"/>
<path d="M1737.65 3356.77C1737.65 3356.77 1753.54 3321.56 1886.11 3334.47C1965.55 3342.1 1976.18 3331.18 1984.17 3375.89C1992.16 3420.6 1944.4 3848.22 1944.4 3876.97C1946.01 3904.35 1955.37 3930.23 1970.91 3950.31C1981.54 3963.1 2058.64 4014.15 2087.89 4014.15C2117.13 4014.15 2127.66 4036.57 2127.66 4052.52C2127.66 4068.48 2086.62 4085.62 2028.23 4085.62C1969.84 4085.62 1894.39 4065.2 1875.87 4065.2C1857.35 4065.2 1830.74 4081.16 1804.23 4065.2C1777.71 4049.24 1804.23 3972.73 1809.59 3937.64C1814.95 3902.55 1769.82 3656.71 1748.57 3538.66C1727.32 3420.6 1734.92 3382.23 1737.65 3356.77Z" stroke="#263238" stroke-miterlimit="10"/>
<path d="M2074.83 1523.2C2074.83 1523.2 2117.23 1645.24 2115.38 1685.26C2113.52 1725.27 2056.89 1871.72 2056.89 1889.44C2056.89 1907.16 2198.91 2488.74 2198.91 2488.74C2198.91 2488.74 2038.47 2550.94 1892.84 2557.51C1800.51 2560.17 1708.58 2542.11 1621.75 2504.23L1735.61 1845.09L1726.34 1534.23C1726.34 1534.23 1772.45 1347.76 1853.07 1334.74C1933.68 1321.71 2058.25 1487.64 2074.83 1523.2Z" fill="#FF9EAF" stroke="#263238" stroke-miterlimit="10"/>
<path opacity="0.1" d="M2074.83 1523.2C2074.83 1523.2 2117.23 1645.24 2115.38 1685.26C2113.52 1725.27 2056.89 1871.72 2056.89 1889.44C2056.89 1907.16 2198.91 2488.74 2198.91 2488.74C2198.91 2488.74 2038.47 2550.94 1892.84 2557.51C1800.51 2560.17 1708.58 2542.11 1621.75 2504.23L1735.61 1845.09L1726.34 1534.23C1726.34 1534.23 1772.45 1347.76 1853.07 1334.74C1933.68 1321.71 2058.25 1487.64 2074.83 1523.2Z" fill="#263238"/>
<path d="M2046.85 1429.67C2046.85 1429.67 2055.23 1449.74 2096.86 1432.96C2138.48 1416.18 2142.77 1397.75 2176.1 1407.96C2209.44 1418.17 2220.55 1431.43 2246.87 1429.67C2273.19 1427.91 2277.48 1419.58 2277.48 1419.58C2277.48 1419.58 2288.59 1412.89 2284.4 1424.63C2280.21 1436.36 2260.81 1441.41 2235.66 1441.41C2210.51 1441.41 2186.92 1421.34 2160.7 1419.58C2134.48 1417.82 2121.71 1441.41 2094.03 1449.74C2081.79 1454.04 2069.21 1456.83 2056.5 1458.07L2046.85 1429.67Z" fill="#FF9EAF" stroke="#263238" stroke-width="0.5" stroke-miterlimit="10"/>
<path opacity="0.1" d="M2046.85 1429.67C2046.85 1429.67 2055.23 1449.74 2096.86 1432.96C2138.48 1416.18 2142.77 1397.75 2176.1 1407.96C2209.44 1418.17 2220.55 1431.43 2246.87 1429.67C2273.19 1427.91 2277.48 1419.58 2277.48 1419.58C2277.48 1419.58 2288.59 1412.89 2284.4 1424.63C2280.21 1436.36 2260.81 1441.41 2235.66 1441.41C2210.51 1441.41 2186.92 1421.34 2160.7 1419.58C2134.48 1417.82 2121.71 1441.41 2094.03 1449.74C2081.79 1454.04 2069.21 1456.83 2056.5 1458.07L2046.85 1429.67Z" fill="black"/>
<path d="M2046.85 1429.67C2046.85 1429.67 2055.23 1449.74 2096.86 1432.96C2138.48 1416.18 2142.77 1397.75 2176.1 1407.96C2209.44 1418.17 2220.55 1431.43 2246.87 1429.67C2273.19 1427.91 2277.48 1419.58 2277.48 1419.58C2277.48 1419.58 2288.59 1412.89 2284.4 1424.63C2280.21 1436.36 2260.81 1441.41 2235.66 1441.41C2210.51 1441.41 2186.92 1421.34 2160.7 1419.58C2134.48 1417.82 2121.71 1441.41 2094.03 1449.74C2081.79 1454.04 2069.21 1456.83 2056.5 1458.07L2046.85 1429.67Z" stroke="#263238" stroke-width="0.5" stroke-miterlimit="10"/>
<path d="M2064.98 1509.94C2064.98 1509.94 2070.54 1521.67 2106.6 1551.71C2142.67 1581.76 2187.22 1548.43 2217.73 1555.12C2217.98 1552.78 2217.81 1550.39 2217.23 1548.14C2216.64 1545.88 2215.66 1543.81 2214.34 1542.06C2213.03 1540.3 2211.41 1538.92 2209.6 1537.99C2207.8 1537.07 2205.85 1536.62 2203.89 1536.69C2188.58 1536.69 2177.47 1560.16 2133.02 1545.03C2088.57 1529.89 2066.35 1474.85 2064.98 1509.94Z" fill="#FF9EAF" stroke="#263238" stroke-width="0.5" stroke-miterlimit="10"/>
<path opacity="0.1" d="M2064.98 1509.94C2064.98 1509.94 2070.54 1521.67 2106.6 1551.71C2142.67 1581.76 2187.22 1548.43 2217.73 1555.12C2217.98 1552.78 2217.81 1550.39 2217.23 1548.14C2216.64 1545.88 2215.66 1543.81 2214.34 1542.06C2213.03 1540.3 2211.41 1538.92 2209.6 1537.99C2207.8 1537.07 2205.85 1536.62 2203.89 1536.69C2188.58 1536.69 2177.47 1560.16 2133.02 1545.03C2088.57 1529.89 2066.35 1474.85 2064.98 1509.94Z" fill="black"/>
<path d="M2064.98 1509.94C2064.98 1509.94 2070.54 1521.67 2106.6 1551.71C2142.67 1581.76 2187.22 1548.43 2217.73 1555.12C2217.98 1552.78 2217.81 1550.39 2217.23 1548.14C2216.64 1545.88 2215.66 1543.81 2214.34 1542.06C2213.03 1540.3 2211.41 1538.92 2209.6 1537.99C2207.8 1537.07 2205.85 1536.62 2203.89 1536.69C2188.58 1536.69 2177.47 1560.16 2133.02 1545.03C2088.57 1529.89 2066.35 1474.85 2064.98 1509.94Z" stroke="#263238" stroke-width="0.5" stroke-miterlimit="10"/>
<path d="M2241.32 1541.15C2241.32 1537.67 2240.46 1534.26 2238.85 1531.36C2237.23 1528.46 2234.95 1526.21 2232.27 1524.88C2229.59 1523.55 2226.65 1523.21 2223.81 1523.9C2220.97 1524.59 2218.36 1526.28 2216.32 1528.75C2214.28 1531.22 2212.9 1534.37 2212.34 1537.79C2211.79 1541.21 2212.09 1544.76 2213.21 1547.97C2214.34 1551.19 2216.23 1553.93 2218.64 1555.85C2221.06 1557.77 2223.9 1558.78 2226.79 1558.76C2228.71 1558.76 2230.6 1558.3 2232.37 1557.41C2234.14 1556.53 2235.75 1555.23 2237.1 1553.59C2238.45 1551.96 2239.52 1550.02 2240.24 1547.88C2240.96 1545.75 2241.33 1543.46 2241.32 1541.15Z" fill="#FF9EAF" stroke="#263238" stroke-width="0.5" stroke-miterlimit="10"/>
<path opacity="0.1" d="M2241.32 1541.15C2241.32 1537.67 2240.46 1534.26 2238.85 1531.36C2237.23 1528.46 2234.95 1526.21 2232.27 1524.88C2229.59 1523.55 2226.65 1523.21 2223.81 1523.9C2220.97 1524.59 2218.36 1526.28 2216.32 1528.75C2214.28 1531.22 2212.9 1534.37 2212.34 1537.79C2211.79 1541.21 2212.09 1544.76 2213.21 1547.97C2214.34 1551.19 2216.23 1553.93 2218.64 1555.85C2221.06 1557.77 2223.9 1558.78 2226.79 1558.76C2228.71 1558.76 2230.6 1558.3 2232.37 1557.41C2234.14 1556.53 2235.75 1555.23 2237.1 1553.59C2238.45 1551.96 2239.52 1550.02 2240.24 1547.88C2240.96 1545.75 2241.33 1543.46 2241.32 1541.15Z" fill="black"/>
<path d="M2241.32 1541.15C2241.32 1537.67 2240.46 1534.26 2238.85 1531.36C2237.23 1528.46 2234.95 1526.21 2232.27 1524.88C2229.59 1523.55 2226.65 1523.21 2223.81 1523.9C2220.97 1524.59 2218.36 1526.28 2216.32 1528.75C2214.28 1531.22 2212.9 1534.37 2212.34 1537.79C2211.79 1541.21 2212.09 1544.76 2213.21 1547.97C2214.34 1551.19 2216.23 1553.93 2218.64 1555.85C2221.06 1557.77 2223.9 1558.78 2226.79 1558.76C2228.71 1558.76 2230.6 1558.3 2232.37 1557.41C2234.14 1556.53 2235.75 1555.23 2237.1 1553.59C2238.45 1551.96 2239.52 1550.02 2240.24 1547.88C2240.96 1545.75 2241.33 1543.46 2241.32 1541.15Z" stroke="#263238" stroke-width="0.5" stroke-miterlimit="10"/>
<path d="M2303.9 1420.4C2303.9 1416.92 2303.04 1413.52 2301.43 1410.62C2299.83 1407.73 2297.54 1405.47 2294.87 1404.14C2292.2 1402.81 2289.26 1402.46 2286.42 1403.14C2283.59 1403.82 2280.98 1405.49 2278.94 1407.96C2276.89 1410.42 2275.5 1413.55 2274.94 1416.97C2274.37 1420.38 2274.66 1423.92 2275.77 1427.14C2276.87 1430.35 2278.75 1433.1 2281.15 1435.04C2283.56 1436.97 2286.38 1438 2289.28 1438C2293.15 1438 2296.87 1436.15 2299.61 1432.85C2302.36 1429.55 2303.9 1425.07 2303.9 1420.4V1420.4Z" fill="#FF9EAF" stroke="#263238" stroke-width="0.5" stroke-miterlimit="10"/>
<path opacity="0.1" d="M2303.9 1420.4C2303.9 1416.92 2303.04 1413.52 2301.43 1410.62C2299.83 1407.73 2297.54 1405.47 2294.87 1404.14C2292.2 1402.81 2289.26 1402.46 2286.42 1403.14C2283.59 1403.82 2280.98 1405.49 2278.94 1407.96C2276.89 1410.42 2275.5 1413.55 2274.94 1416.97C2274.37 1420.38 2274.66 1423.92 2275.77 1427.14C2276.87 1430.35 2278.75 1433.1 2281.15 1435.04C2283.56 1436.97 2286.38 1438 2289.28 1438C2293.15 1438 2296.87 1436.15 2299.61 1432.85C2302.36 1429.55 2303.9 1425.07 2303.9 1420.4V1420.4Z" fill="black"/>
<path d="M2303.9 1420.4C2303.9 1416.92 2303.04 1413.52 2301.43 1410.62C2299.83 1407.73 2297.54 1405.47 2294.87 1404.14C2292.2 1402.81 2289.26 1402.46 2286.42 1403.14C2283.59 1403.82 2280.98 1405.49 2278.94 1407.96C2276.89 1410.42 2275.5 1413.55 2274.94 1416.97C2274.37 1420.38 2274.66 1423.92 2275.77 1427.14C2276.87 1430.35 2278.75 1433.1 2281.15 1435.04C2283.56 1436.97 2286.38 1438 2289.28 1438C2293.15 1438 2296.87 1436.15 2299.61 1432.85C2302.36 1429.55 2303.9 1425.07 2303.9 1420.4V1420.4Z" stroke="#263238" stroke-width="0.5" stroke-miterlimit="10"/>
<path d="M2074.82 1503.25C2070.6 1461.4 2055.05 1422.38 2030.57 1392.24C1990.02 1343.42 1929.19 1307.87 1886.79 1279C1844.39 1250.13 1801.99 1250.13 1772.45 1272.31C1742.91 1294.49 1695.05 1403.27 1658.11 1445.51C1621.17 1487.76 1610.15 1512.05 1643.39 1540.92C1676.63 1569.79 1698.66 1567.56 1739.31 1532C1779.96 1496.44 1803.84 1378.86 1846.53 1370.06C1889.23 1361.26 1958.92 1392.24 1997.72 1432.14C2036.52 1472.04 2071.41 1532 2075.12 1523.2C2077.1 1516.74 2077 1509.62 2074.82 1503.25V1503.25Z" fill="#FF9EAF" stroke="#263238" stroke-miterlimit="10"/>
<path opacity="0.1" d="M2074.82 1503.25C2070.6 1461.4 2055.05 1422.38 2030.57 1392.24C1990.02 1343.42 1929.19 1307.87 1886.79 1279C1844.39 1250.13 1801.99 1250.13 1772.45 1272.31C1742.91 1294.49 1695.05 1403.27 1658.11 1445.51C1621.17 1487.76 1610.15 1512.05 1643.39 1540.92C1676.63 1569.79 1698.66 1567.56 1739.31 1532C1779.96 1496.44 1803.84 1378.86 1846.53 1370.06C1889.23 1361.26 1958.92 1392.24 1997.72 1432.14C2036.52 1472.04 2071.41 1532 2075.12 1523.2C2077.1 1516.74 2077 1509.62 2074.82 1503.25V1503.25Z" fill="black"/>
<path d="M2074.82 1503.25C2070.6 1461.4 2055.05 1422.38 2030.57 1392.24C1990.02 1343.42 1929.19 1307.87 1886.79 1279C1844.39 1250.13 1801.99 1250.13 1772.45 1272.31C1742.91 1294.49 1695.05 1403.27 1658.11 1445.51C1621.17 1487.76 1610.15 1512.05 1643.39 1540.92C1676.63 1569.79 1698.66 1567.56 1739.31 1532C1779.96 1496.44 1803.84 1378.86 1846.53 1370.06C1889.23 1361.26 1958.92 1392.24 1997.72 1432.14C2036.52 1472.04 2071.41 1532 2075.12 1523.2C2077.1 1516.74 2077 1509.62 2074.82 1503.25V1503.25Z" stroke="#263238" stroke-miterlimit="10"/>
<path d="M1864.66 1443.29C1864.66 1443.29 1829.57 1421.11 1790.87 1458.78C1752.18 1496.44 1625.16 1725.16 1589.88 1780.66C1554.59 1836.17 1538.31 1856.12 1549.33 1893.9C1560.34 1931.69 1728.2 2144.68 1739.31 2164.63C1747.54 2178.88 1756.77 2192.27 1766.9 2204.64L1813 2206.87L1860.96 2151.36C1844.39 2103.33 1825.31 2056.61 1803.84 2011.49C1768.75 1938.26 1731.9 1869.49 1731.9 1869.49C1731.9 1869.49 1903.36 1636.32 1916.23 1580.93C1923.82 1546.52 1922.56 1510.15 1912.62 1476.61" fill="#FF9EAF"/>
<path d="M1864.66 1443.29C1864.66 1443.29 1829.57 1421.11 1790.87 1458.78C1752.18 1496.44 1625.16 1725.16 1589.88 1780.66C1554.59 1836.17 1538.31 1856.12 1549.33 1893.9C1560.34 1931.69 1728.2 2144.68 1739.31 2164.63C1747.54 2178.88 1756.77 2192.27 1766.9 2204.64L1813 2206.87L1860.96 2151.36C1844.39 2103.33 1825.31 2056.61 1803.84 2011.49C1768.75 1938.26 1731.9 1869.49 1731.9 1869.49C1731.9 1869.49 1903.36 1636.32 1916.23 1580.93C1923.82 1546.52 1922.56 1510.15 1912.62 1476.61" stroke="#263238" stroke-miterlimit="10"/>
<path opacity="0.1" d="M1864.66 1443.29C1864.66 1443.29 1829.57 1421.11 1790.87 1458.78C1752.18 1496.44 1625.16 1725.16 1589.88 1780.66C1554.59 1836.17 1538.31 1856.12 1549.33 1893.9C1560.34 1931.69 1728.2 2144.68 1739.31 2164.63C1747.54 2178.88 1756.77 2192.27 1766.9 2204.64L1813 2206.87L1860.96 2151.36C1844.39 2103.33 1825.31 2056.61 1803.84 2011.49C1768.75 1938.26 1731.9 1869.49 1731.9 1869.49C1731.9 1869.49 1903.36 1636.32 1916.23 1580.93C1923.82 1546.52 1922.56 1510.15 1912.62 1476.61" fill="black"/>
<path d="M1864.66 1443.29C1864.66 1443.29 1829.57 1421.11 1790.87 1458.78C1752.18 1496.44 1625.16 1725.16 1589.88 1780.66C1554.59 1836.17 1538.31 1856.12 1549.33 1893.9C1560.34 1931.69 1728.2 2144.68 1739.31 2164.63C1747.54 2178.88 1756.77 2192.27 1766.9 2204.64L1813 2206.87L1860.96 2151.36C1844.39 2103.33 1825.31 2056.61 1803.84 2011.49C1768.75 1938.26 1731.9 1869.49 1731.9 1869.49C1731.9 1869.49 1903.36 1636.32 1916.23 1580.93C1923.82 1546.52 1922.56 1510.15 1912.62 1476.61" stroke="#263238" stroke-miterlimit="10"/>
<path d="M1860.96 2151.36L1901.51 2209.1C1901.51 2209.1 1840.69 2213.56 1813 2206.87L1860.96 2151.36Z" fill="white" stroke="#263238" stroke-miterlimit="10"/>
<path d="M1925.49 2206.87H1975.3C1975.3 2206.87 1999.28 2355.55 1991.87 2419.98" stroke="#263238" stroke-linecap="round" stroke-linejoin="round"/>
<path d="M1747.2 2353.32C1747.2 2364.12 1746.62 2374.56 1746.62 2384.42" stroke="#263238" stroke-linecap="round" stroke-linejoin="round"/>
<path d="M1757.73 2213.56C1757.73 2213.56 1751.4 2266.72 1747.99 2326.68" stroke="#263238" stroke-linecap="round" stroke-linejoin="round"/>
<path d="M1815.54 1857.29C1840.45 1883.36 1872.5 1897.4 1905.51 1896.72" stroke="#263238" stroke-linecap="round" stroke-linejoin="round"/>
<path d="M1856.38 1923.01C1884.53 1930.48 1913.87 1928.2 1940.99 1916.43" stroke="#263238" stroke-linecap="round" stroke-linejoin="round"/>
<path d="M1943.72 1594.55C1943.72 1594.55 1949.18 1643.83 1883.67 1653.22" stroke="#263238" stroke-linecap="round" stroke-linejoin="round"/>
<path d="M1875.49 1670.24C1875.49 1670.24 1910.97 1689.95 1932.8 1680.09" stroke="#263238" stroke-linecap="round" stroke-linejoin="round"/>
<path d="M1630.82 2456.47C1630.82 2456.47 1750.52 2505.29 1870.22 2509.86" stroke="#263238" stroke-linecap="round" stroke-linejoin="round"/>
<path d="M1916.52 2509.51C1916.52 2509.51 1987.97 2504.94 2030.47 2495.66" stroke="#263238" stroke-linecap="round" stroke-linejoin="round"/>
<path d="M2072.97 2481.7C2108.33 2476.17 2143.21 2466.82 2177.18 2453.77" stroke="#263238" stroke-linecap="round" stroke-linejoin="round"/>
<path d="M1731.9 1869.73C1728.74 1858.22 1723.65 1847.61 1716.94 1838.57C1710.23 1829.52 1702.05 1822.24 1692.91 1817.16" stroke="#263238" stroke-linecap="round" stroke-linejoin="round"/>
<path d="M1846.24 1370.06C1846.24 1370.06 1780.15 1375.69 1756.76 1406.32C1733.36 1436.95 1692.32 1488.46 1692.32 1488.46" stroke="#263238" stroke-linecap="round" stroke-linejoin="round"/>
</svg>
