<svg width="4013" height="3260" viewBox="0 0 4013 3260" fill="none" xmlns="http://www.w3.org/2000/svg">
<path d="M1819.1 2752.71L1139.49 3024.61L351 2236.12L867.589 2161.39L1819.1 2752.71Z" fill="#FDE16C"/>
<path opacity="0.5" d="M1819.1 2752.71L1139.49 3024.61L351 2236.12L867.589 2161.39L1819.1 2752.71Z" fill="white"/>
<path d="M2655.11 3113.01C2745.2 3113.01 2818.23 3064.3 2818.23 3004.22C2818.23 2944.14 2745.2 2895.44 2655.11 2895.44C2565.02 2895.44 2491.98 2944.14 2491.98 3004.22C2491.98 3064.3 2565.02 3113.01 2655.11 3113.01Z" fill="#FDE16C"/>
<path opacity="0.5" d="M2655.11 3113.01C2745.2 3113.01 2818.23 3064.3 2818.23 3004.22C2818.23 2944.14 2745.2 2895.44 2655.11 2895.44C2565.02 2895.44 2491.98 2944.14 2491.98 3004.22C2491.98 3064.3 2565.02 3113.01 2655.11 3113.01Z" fill="white"/>
<path d="M2016.28 2386.6L3012.14 2465.51L2791.11 2351.73L2016.28 2386.6Z" fill="#FDE16C"/>
<path opacity="0.5" d="M2016.28 2386.6L3012.14 2465.51L2791.11 2351.73L2016.28 2386.6Z" fill="white"/>
<path d="M2240.57 2079.83L1945.12 2055.66L1982.23 2011.83H2152.18L2240.57 2079.83Z" fill="#FDE16C"/>
<path opacity="0.5" d="M2240.57 2079.83L1945.12 2055.66L1982.23 2011.83H2152.18L2240.57 2079.83Z" fill="white"/>
<path d="M3198.61 3259.1C3313.08 3259.1 3405.88 3202.82 3405.88 3133.4C3405.88 3063.97 3313.08 3007.69 3198.61 3007.69C3084.14 3007.69 2991.34 3063.97 2991.34 3133.4C2991.34 3202.82 3084.14 3259.1 3198.61 3259.1Z" fill="#FDE16C"/>
<path opacity="0.5" d="M3198.61 3259.1C3313.08 3259.1 3405.88 3202.82 3405.88 3133.4C3405.88 3063.97 3313.08 3007.69 3198.61 3007.69C3084.14 3007.69 2991.34 3063.97 2991.34 3133.4C2991.34 3202.82 3084.14 3259.1 3198.61 3259.1Z" fill="white"/>
<path d="M1970.4 2841.51L1858.76 3024.92L2106 3072.84L2201.73 2889.43L1970.4 2841.51Z" fill="white" stroke="#263238" stroke-linecap="round" stroke-linejoin="round"/>
<path d="M2161.86 2634.24L2050.23 2801.64L2281.45 2873.42L2377.19 2706.01L2161.86 2634.24Z" fill="#FDE16C"/>
<path opacity="0.5" d="M2161.86 2634.24L2050.23 2801.64L2281.45 2873.42L2377.19 2706.01L2161.86 2634.24Z" fill="white" stroke="#263238" stroke-miterlimit="10"/>
<path d="M2161.86 2634.24L2050.23 2801.64L2281.45 2873.42L2377.19 2706.01L2161.86 2634.24Z" stroke="#263238" stroke-linecap="round" stroke-linejoin="round"/>
<path d="M2409.1 2953.25L2209.68 3009.01L2289.41 3136.66L2520.73 3080.79L2409.1 2953.25Z" fill="#FDE16C" stroke="#263238" stroke-linecap="round" stroke-linejoin="round"/>
<path d="M2977.99 2920.52L2998.38 3075.38C2998.38 3139.51 3076.37 3191.61 3172.61 3191.61C3268.86 3191.61 3346.95 3139.51 3346.95 3075.38L3367.95 2920.52H2977.99Z" fill="#FDE16C" stroke="#263238" stroke-linecap="round" stroke-linejoin="round"/>
<path d="M3172.82 3050.71C3280.64 3050.71 3368.05 2992.42 3368.05 2920.52C3368.05 2848.62 3280.64 2790.33 3172.82 2790.33C3064.99 2790.33 2977.58 2848.62 2977.58 2920.52C2977.58 2992.42 3064.99 3050.71 3172.82 3050.71Z" fill="#FDE16C" stroke="#263238" stroke-linecap="round" stroke-linejoin="round"/>
<path d="M3172.82 3031.24C3264.54 3031.24 3338.9 2981.67 3338.9 2920.52C3338.9 2859.37 3264.54 2809.8 3172.82 2809.8C3081.09 2809.8 3006.74 2859.37 3006.74 2920.52C3006.74 2981.67 3081.09 3031.24 3172.82 3031.24Z" fill="#FDE16C" stroke="#263238" stroke-linecap="round" stroke-linejoin="round"/>
<path d="M3172.82 3031.34C3262.96 3031.34 3336.04 2990.72 3336.04 2940.6C3336.04 2890.49 3262.96 2849.87 3172.82 2849.87C3082.67 2849.87 3009.59 2890.49 3009.59 2940.6C3009.59 2990.72 3082.67 3031.34 3172.82 3031.34Z" fill="#263238" stroke="#263238" stroke-linecap="round" stroke-linejoin="round"/>
<path d="M3231.64 2623.33C3203.3 2605.08 3160.28 2606.71 3143.05 2640.46C3117.56 2689.6 3135.81 2780.64 3126.63 2793.39C3117.46 2806.13 3090.24 2809.8 3077.49 2782.48C3064.75 2755.15 3064.75 2718.76 3048.33 2716.92C3031.92 2715.09 3010.1 2722.43 3006.43 2764.33C3002.76 2806.23 3010.1 2853.54 3039.26 2875.36C3068.42 2897.17 3101.15 2889.93 3110.63 2899.11C3120.11 2908.29 3110.63 2922.56 3110.63 2931.94C3110.63 2972.72 3163.95 2993.11 3197.69 2982.91C3246.83 2968.34 3241.43 2919.09 3248.67 2899.11C3255.91 2879.13 3296.08 2877.19 3310.66 2846.3C3325.23 2815.41 3347.05 2753.32 3316.06 2729.67C3285.07 2706.01 3261.41 2716.92 3257.84 2742.41C3253.6 2762.65 3246.75 2782.25 3237.45 2800.73C3259.27 2757.6 3280.68 2654.94 3231.64 2623.33Z" fill="#FDE16C"/>
<path opacity="0.2" d="M3231.64 2623.33C3203.3 2605.08 3160.28 2606.71 3143.05 2640.46C3117.56 2689.6 3135.81 2780.64 3126.63 2793.39C3117.46 2806.13 3090.24 2809.8 3077.49 2782.48C3064.75 2755.15 3064.75 2718.76 3048.33 2716.92C3031.92 2715.09 3010.1 2722.43 3006.43 2764.33C3002.76 2806.23 3010.1 2853.54 3039.26 2875.36C3068.42 2897.17 3101.15 2889.93 3110.63 2899.11C3120.11 2908.29 3110.63 2922.56 3110.63 2931.94C3110.63 2972.72 3163.95 2993.11 3197.69 2982.91C3246.83 2968.34 3241.43 2919.09 3248.67 2899.11C3255.91 2879.13 3296.08 2877.19 3310.66 2846.3C3325.23 2815.41 3347.05 2753.32 3316.06 2729.67C3285.07 2706.01 3261.41 2716.92 3257.84 2742.41C3253.6 2762.65 3246.75 2782.25 3237.45 2800.73C3259.27 2757.6 3280.68 2654.94 3231.64 2623.33Z" fill="black"/>
<path d="M3231.64 2623.33C3203.3 2605.08 3160.28 2606.71 3143.05 2640.46C3117.56 2689.6 3135.81 2780.64 3126.63 2793.39C3117.46 2806.13 3090.24 2809.8 3077.49 2782.48C3064.75 2755.15 3064.75 2718.76 3048.33 2716.92C3031.92 2715.09 3010.1 2722.43 3006.43 2764.33C3002.76 2806.23 3010.1 2853.54 3039.26 2875.36C3068.42 2897.17 3101.15 2889.93 3110.63 2899.11C3120.11 2908.29 3110.63 2922.56 3110.63 2931.94C3110.63 2972.72 3163.95 2993.11 3197.69 2982.91C3246.83 2968.34 3241.43 2919.09 3248.67 2899.11C3255.91 2879.13 3296.08 2877.19 3310.66 2846.3C3325.23 2815.41 3347.05 2753.32 3316.06 2729.67C3285.07 2706.01 3261.41 2716.92 3257.84 2742.41C3253.6 2762.65 3246.75 2782.25 3237.45 2800.73C3259.27 2757.6 3280.68 2654.94 3231.64 2623.33Z" stroke="#263238" stroke-linecap="round" stroke-linejoin="round"/>
<path d="M3186.78 2636.79C3178.51 2642.23 3171.59 2649.48 3166.54 2658C3161.49 2666.51 3158.44 2676.06 3157.63 2685.93C3155.79 2718.76 3157.63 2822.54 3144.88 2837.12C3132.14 2851.7 3090.24 2848.03 3063.32 2822.54C3036.41 2797.06 3048.33 2742.51 3048.33 2742.51" stroke="#263238" stroke-width="0.5" stroke-linecap="round" stroke-linejoin="round"/>
<path d="M3056.39 2854.66C3065.83 2862.01 3076.75 2867.22 3088.4 2869.95C3121.23 2877.19 3144.88 2860.88 3150.39 2877.19C3155.89 2893.5 3144.88 2951.92 3144.88 2951.92" stroke="#263238" stroke-width="0.5" stroke-linecap="round" stroke-linejoin="round"/>
<path d="M3037.43 2835.29C3040.82 2840.07 3044.72 2844.48 3049.05 2848.44" stroke="#263238" stroke-width="0.5" stroke-linecap="round" stroke-linejoin="round"/>
<path d="M3186.17 2922.05C3188.01 2894.9 3188.22 2867.66 3186.78 2840.49C3183.52 2799.71 3202.49 2723.96 3207.17 2689.7" stroke="#263238" stroke-width="0.5" stroke-linecap="round" stroke-linejoin="round"/>
<path d="M3183.11 2964.67C3183.11 2964.67 3184.13 2953.55 3185.26 2937.24" stroke="#263238" stroke-width="0.5" stroke-linecap="round" stroke-linejoin="round"/>
<path d="M3309.23 2782.17C3310.15 2773.3 3310.66 2767.9 3310.66 2767.9" stroke="#263238" stroke-width="0.5" stroke-linecap="round" stroke-linejoin="round"/>
<path d="M3223.18 2931.84C3223.18 2931.84 3230.52 2871.79 3245.1 2860.47C3259.68 2849.15 3301.48 2842.22 3305.15 2814.9C3305.76 2810.62 3306.27 2806.54 3306.78 2802.77" stroke="#263238" stroke-width="0.5" stroke-linecap="round" stroke-linejoin="round"/>
<path d="M3285.17 2744.25C3281.35 2746.81 3278.3 2750.37 3276.36 2754.54C3274.42 2758.7 3273.66 2763.33 3274.16 2767.9C3274.91 2778.81 3272.58 2789.72 3267.44 2799.38C3262.31 2809.04 3254.57 2817.06 3245.1 2822.54" stroke="#263238" stroke-width="0.5" stroke-linecap="round" stroke-linejoin="round"/>
<path d="M3209.21 2668.9C3209.76 2658.71 3209.56 2648.48 3208.6 2638.32" stroke="#263238" stroke-width="0.5" stroke-linecap="round" stroke-linejoin="round"/>
<path d="M2514.92 2628.94L2541.94 2913.38V2943.46C2541.94 2984.24 2599.24 3016.56 2669.99 3016.56C2740.75 3016.56 2798.04 2983.83 2798.04 2943.46V2913.38L2822.61 2625.98L2514.92 2628.94Z" fill="white" stroke="#263238" stroke-linecap="round" stroke-linejoin="round"/>
<path d="M2799.27 2897.99L2813.44 2732.32C2794.37 2761.99 2737.48 2783.29 2670.2 2783.29C2599.34 2783.29 2540.1 2759.44 2524.3 2727.32L2540.41 2896.97C2566.51 2918.68 2614.73 2933.37 2670.2 2933.37C2725.66 2933.37 2773.17 2919.4 2799.27 2897.99Z" fill="#FDE16C" stroke="#263238" stroke-linecap="round" stroke-linejoin="round"/>
<path d="M2520.02 2682.57V2680.63L2518.7 2669.21L2520.02 2682.57Z" fill="white" stroke="#263238" stroke-linecap="round" stroke-linejoin="round"/>
<path d="M2827.51 2586.73C2800.39 2552.48 2740.13 2528.52 2669.99 2528.52C2599.85 2528.52 2539.6 2552.48 2512.37 2586.73H2496.98V2627.51C2496.98 2682.16 2574.46 2726.4 2670.3 2726.4C2766.13 2726.4 2843.62 2682.16 2843.62 2627.51V2586.73H2827.51Z" fill="#FDE16C" stroke="#263238" stroke-linecap="round" stroke-linejoin="round"/>
<path opacity="0.2" d="M2827.51 2586.73C2800.39 2552.48 2740.13 2528.52 2669.99 2528.52C2599.85 2528.52 2539.6 2552.48 2512.37 2586.73H2496.98V2627.51C2496.98 2682.16 2574.46 2726.4 2670.3 2726.4C2766.13 2726.4 2843.62 2682.16 2843.62 2627.51V2586.73H2827.51Z" fill="black"/>
<path d="M2669.99 2685.62C2765.54 2685.62 2843 2641.35 2843 2586.73C2843 2532.11 2765.54 2487.84 2669.99 2487.84C2574.44 2487.84 2496.98 2532.11 2496.98 2586.73C2496.98 2641.35 2574.44 2685.62 2669.99 2685.62Z" fill="white" stroke="#263238" stroke-linecap="round" stroke-linejoin="round"/>
<path d="M2807.63 2531.57C2783.87 2501.6 2731.26 2480.6 2669.99 2480.6C2608.72 2480.6 2556.11 2501.5 2532.36 2531.57H2519.2V2567.05C2519.2 2614.77 2586.8 2653.41 2670.3 2653.41C2753.8 2653.41 2821.39 2614.77 2821.39 2567.05V2531.57H2807.63Z" fill="#FDE16C" stroke="#263238" stroke-linecap="round" stroke-linejoin="round"/>
<path d="M2669.99 2617.93C2753.44 2617.93 2821.08 2579.27 2821.08 2531.57C2821.08 2483.88 2753.44 2445.22 2669.99 2445.22C2586.55 2445.22 2518.9 2483.88 2518.9 2531.57C2518.9 2579.27 2586.55 2617.93 2669.99 2617.93Z" fill="white" stroke="#263238" stroke-linecap="round" stroke-linejoin="round"/>
<path d="M1145 1693.02C1145 1693.02 1156.83 1685.17 1231.86 1716.68C1306.9 1748.18 1336.36 1741.35 1409.36 1728.5C1497.04 1713.21 1569.83 1697.92 1578.6 1733.4C1593.79 1794.57 1532.42 1793.85 1422 1805.68C1311.59 1817.51 1247.56 1783.76 1212.08 1767.96C1195.75 1761.25 1179.94 1753.35 1164.78 1744.3L1145 1693.02Z" fill="white" stroke="#263238" stroke-linecap="round" stroke-linejoin="round"/>
<path d="M975.351 1724.63C975.351 1724.63 1074.04 1839.02 1117.37 1807.41C1160.7 1775.81 1156.83 1673.35 1117.37 1641.74C1077.91 1610.14 967.501 1669.37 975.351 1724.63Z" fill="white" stroke="#263238" stroke-linecap="round" stroke-linejoin="round"/>
<path d="M1275.4 1408.99C1275.4 1408.99 1279.37 1515.52 1251.74 1586.48C1224.11 1657.44 1172.83 1704.85 1164.98 1744.3C1157.13 1783.76 1161.01 1839.02 1121.55 1854.82C1082.09 1870.62 1082.09 1842.99 1086.07 1811.39C1090.05 1779.78 1097.9 1661.52 1097.9 1661.52L967.501 1740.33C967.501 1740.33 1002.98 1839.02 928.046 1850.84C853.112 1862.67 762.375 1748.28 750.548 1661.83C738.722 1575.37 786.027 1381.66 868.914 1330.38C951.801 1279.1 1058.24 1287.05 1113.6 1287.05C1168.96 1287.05 1251.54 1326.2 1275.4 1408.99Z" fill="white" stroke="#263238" stroke-linecap="round" stroke-linejoin="round"/>
<path d="M960.874 1299.49C960.874 1299.49 940.484 1309.69 904.903 1365.66C869.322 1421.63 940.484 1469.85 978.716 1444.47C1016.95 1419.08 983.712 1365.66 1011.75 1340.17C1027.88 1326.49 1038.7 1307.58 1042.33 1286.75L960.874 1299.49Z" fill="#263238"/>
<path d="M846.485 1378.3C837.37 1384.81 829.714 1393.15 824.008 1402.79C818.303 1412.42 814.673 1423.15 813.351 1434.27C810.802 1469.85 874.522 1403.68 882.066 1373.1C889.611 1342.51 846.485 1378.3 846.485 1378.3Z" fill="#263238"/>
<path d="M1074.04 1298.57C1064.99 1315.01 1060.58 1333.59 1061.28 1352.34C1061.98 1371.09 1067.77 1389.3 1078.02 1405.01C1113.5 1460.27 1192.41 1483.92 1223.91 1444.46C1255.41 1405.01 1267.34 1385.33 1255.51 1365.66C1243.69 1345.98 1129.3 1266.97 1074.04 1298.57Z" fill="#FDE16C" stroke="#263238" stroke-linecap="round" stroke-linejoin="round"/>
<path d="M1365.93 1105.27C1350.95 1106.9 1335.8 1105.27 1321.52 1100.5C1307.23 1095.73 1294.14 1087.94 1283.14 1077.64C1243.69 1042.16 1208.11 963.253 1192.41 967.127C1176.71 971.002 1121.04 1085.49 1121.04 1085.49C1121.04 1085.49 1026.33 1093.45 1018.48 1120.97C1010.63 1148.5 1053.96 1278.79 1089.84 1334.05C1106.58 1358.66 1128.86 1379.01 1154.89 1393.44C1180.92 1407.87 1209.97 1415.99 1239.71 1417.14C1287.02 1417.14 1429.04 1428.97 1448.81 1381.56C1468.59 1334.15 1452.69 1192.24 1452.69 1192.24C1452.69 1192.24 1515.9 1129.13 1488.27 1117.3C1460.64 1105.48 1365.93 1105.27 1365.93 1105.27Z" fill="white" stroke="#263238" stroke-linecap="round" stroke-linejoin="round"/>
<path d="M1346.76 1302.65C1341.97 1296.43 1337.38 1290.11 1332.9 1283.58C1325.45 1272.57 1307.82 1255.75 1273.87 1266.46C1225.54 1281.65 1192.3 1327.63 1245.93 1365.66C1296.4 1401.85 1397.74 1369.22 1346.76 1302.65Z" fill="#263238"/>
<path d="M1121.35 1085.49C1121.35 1085.49 1176.6 1117.1 1208.11 1105.27C1239.61 1093.45 1219.93 959.277 1192.41 967.128C1164.88 974.978 1117.37 1034.21 1121.35 1085.49Z" fill="white" stroke="#263238" stroke-linecap="round" stroke-linejoin="round"/>
<path d="M1488.27 1117.1C1488.27 1117.1 1437.29 1113.12 1405.38 1148.6C1373.47 1184.08 1393.56 1219.97 1436.99 1227.51C1480.42 1235.06 1503.97 1117.1 1488.27 1117.1Z" fill="white" stroke="#263238" stroke-linecap="round" stroke-linejoin="round"/>
<path d="M1180.58 1338.03C1180.58 1338.03 1129.6 1298.57 1141.13 1330.08C1152.65 1361.58 1172.63 1365.66 1192.1 1357.7C1211.57 1349.75 1180.58 1338.03 1180.58 1338.03Z" fill="#FDE16C" stroke="#263238" stroke-linecap="round" stroke-linejoin="round"/>
<path d="M1152.44 1239.13C1149.49 1249.33 1141.13 1256.47 1133.78 1254.43C1126.44 1252.39 1122.88 1242.19 1125.83 1231.69C1128.79 1221.19 1137.15 1214.36 1144.49 1216.4C1151.83 1218.44 1155.4 1228.74 1152.44 1239.13Z" fill="#263238"/>
<path d="M1274.07 1332.22C1264.59 1337.72 1253.68 1336.91 1250.01 1330.28C1246.34 1323.65 1250.62 1313.97 1260.2 1308.46C1263.71 1305.68 1268.13 1304.32 1272.6 1304.66C1277.06 1305 1281.23 1307.01 1284.27 1310.3C1287.94 1316.92 1283.45 1326.71 1274.07 1332.22Z" fill="white"/>
<path d="M920.196 1582.61C920.196 1582.61 908.369 1669.37 924.07 1704.95C939.77 1740.53 955.675 1874.6 987.28 1878.27C1018.88 1881.94 1006.96 1806.9 1006.96 1795.38C1006.96 1783.86 1010.93 1657.34 1010.93 1657.34C1010.93 1657.34 1038.56 1598.11 1054.26 1566.6" fill="white"/>
<path d="M920.196 1582.61C920.196 1582.61 908.369 1669.37 924.07 1704.95C939.77 1740.53 955.675 1874.6 987.28 1878.27C1018.88 1881.94 1006.96 1806.9 1006.96 1795.38C1006.96 1783.86 1010.93 1657.34 1010.93 1657.34C1010.93 1657.34 1038.56 1598.11 1054.26 1566.6" stroke="#263238" stroke-linecap="round" stroke-linejoin="round"/>
<path d="M790.003 1578.63C790.003 1578.63 896.543 1547.03 908.369 1665.39" stroke="#263238" stroke-linecap="round" stroke-linejoin="round"/>
<path d="M1097.69 1661.83C1097.69 1661.83 1188.43 1614.42 1192.41 1511.85" stroke="#263238" stroke-linecap="round" stroke-linejoin="round"/>
<path d="M1 1823.22L55.4657 1808.02" stroke="#263238" stroke-linecap="round" stroke-linejoin="round"/>
<path d="M455.569 2219.71L894.766 2066.06C908.726 2064.24 922.769 2068.41 934.52 2077.89L1649.19 2641.17C1652.23 2643.6 1654.6 2647.12 1655.96 2651.26C1657.33 2655.41 1657.64 2659.97 1656.83 2664.33C1656.03 2668.69 1654.16 2672.64 1651.48 2675.65C1648.79 2678.65 1645.43 2680.57 1641.83 2681.14L1040.81 2912.06L455.569 2219.71Z" fill="#FDE16C" stroke="#263238" stroke-linecap="round" stroke-linejoin="round"/>
<path d="M712.36 2252.13L774.595 2305.04L846.499 2279.96L784.347 2227.15L712.36 2252.13Z" fill="#263238"/>
<path d="M751.122 2400.06L688.97 2347.14L616.982 2372.22L679.217 2425.14L751.122 2400.06Z" fill="#263238"/>
<path d="M868.731 2284.55L930.883 2337.36L1002.79 2312.28L940.636 2259.47L868.731 2284.55Z" fill="#263238"/>
<path d="M941.214 2346.12L1003.37 2398.94L1075.27 2373.86L1013.12 2321.04L941.214 2346.12Z" fill="#263238"/>
<path d="M784.843 2313.7L846.995 2366.62L918.899 2341.54L856.747 2288.73L784.843 2313.7Z" fill="#263238"/>
<path d="M628.471 2281.39L690.623 2334.3L762.61 2309.22L700.375 2256.31L628.471 2281.39Z" fill="#263238"/>
<path d="M1124.78 2617.11L1062.54 2564.2L990.721 2589.28L1052.87 2642.19L1124.78 2617.11Z" fill="#263238"/>
<path d="M1040.81 2646.37L978.654 2593.46L906.75 2618.54L968.984 2671.35L1040.81 2646.37Z" fill="#263238"/>
<path d="M823.522 2461.64L761.37 2408.72L689.466 2433.8L751.618 2486.61L823.522 2461.64Z" fill="#263238"/>
<path d="M1197.18 2678.69L1135.03 2625.88L1063.12 2650.86L1125.27 2703.77L1197.18 2678.69Z" fill="#263238"/>
<path d="M896.005 2523.21L833.771 2470.3L761.866 2495.38L824.101 2548.19L896.005 2523.21Z" fill="#263238"/>
<path d="M968.406 2584.79L906.254 2531.88L834.349 2556.96L896.501 2609.87L968.406 2584.79Z" fill="#263238"/>
<path d="M1013.61 2407.7L1075.77 2460.51L1147.67 2435.43L1085.52 2382.62L1013.61 2407.7Z" fill="#263238"/>
<path d="M700.954 2342.96L763.106 2395.88L835.01 2370.8L772.858 2317.99L700.954 2342.96Z" fill="#263238"/>
<path d="M1281.07 2649.43L1218.91 2596.62L1147.01 2621.7L1209.16 2674.51L1281.07 2649.43Z" fill="#263238"/>
<path d="M1063.78 2464.69L1001.63 2411.88L929.726 2436.86L991.878 2489.77L1063.78 2464.69Z" fill="#263238"/>
<path d="M907.411 2432.38L845.259 2379.46L773.354 2404.54L835.507 2457.46L907.411 2432.38Z" fill="#263238"/>
<path d="M606.238 2276.9L569.872 2245.91L520.696 2262.93L549.458 2296.68L606.238 2276.9Z" fill="#263238"/>
<path d="M678.639 2338.48L616.487 2285.57L557.558 2306.16L606.238 2363.05L606.734 2363.46L678.639 2338.48Z" fill="#263238"/>
<path d="M857.243 2375.38L919.478 2428.2L991.382 2403.12L929.148 2350.3L857.243 2375.38Z" fill="#263238"/>
<path d="M979.894 2493.95L917.742 2441.14L845.837 2466.12L907.989 2519.03L979.894 2493.95Z" fill="#263238"/>
<path d="M1292.56 2558.59L1230.4 2505.78L1158.5 2530.86L1220.65 2583.67L1292.56 2558.59Z" fill="#263238"/>
<path d="M1086.02 2469.28L1148.25 2522.09L1220.15 2497.01L1158 2444.2L1086.02 2469.28Z" fill="#263238"/>
<path d="M1208.67 2587.85L1146.51 2535.04L1074.61 2560.12L1136.76 2612.93L1208.67 2587.85Z" fill="#263238"/>
<path d="M1136.18 2526.27L1074.03 2473.46L1002.13 2498.44L1064.36 2551.35L1136.18 2526.27Z" fill="#263238"/>
<path d="M1052.29 2555.53L990.142 2502.72L918.238 2527.7L980.39 2580.61L1052.29 2555.53Z" fill="#263238"/>
<path d="M739.634 2490.79L677.482 2437.98L671.944 2439.92L720.955 2497.32L739.634 2490.79Z" fill="#263238"/>
<path d="M1291.4 2658.2L1219.49 2683.28L1294.04 2746.59L1364.13 2719.98L1291.4 2658.2Z" fill="#263238"/>
<path d="M1207.43 2687.46L1135.52 2712.44L1212.3 2777.69L1282.31 2751.08L1207.43 2687.46Z" fill="#263238"/>
<path d="M884.518 2613.95L822.366 2561.14L786.248 2573.68L835.342 2631.18L884.518 2613.95Z" fill="#263238"/>
<path d="M1365.04 2620.17L1302.8 2567.36L1230.9 2592.44L1293.13 2645.25L1365.04 2620.17Z" fill="#263238"/>
<path d="M956.918 2675.63L894.766 2622.72L843.441 2640.66L892.452 2698.06L956.918 2675.63Z" fill="#263238"/>
<path d="M1029.4 2737.21L967.249 2684.3L900.551 2707.54L949.645 2764.94L1029.4 2737.21Z" fill="#263238"/>
<path d="M1113.29 2707.95L1051.14 2655.04L979.233 2680.12L1041.38 2733.03L1113.29 2707.95Z" fill="#263238"/>
<path d="M1519.43 2624.96L1478.1 2593.05L1387.19 2624.76L1457.44 2684.5L1512.15 2664.11C1515.76 2663.72 1519.17 2661.94 1521.9 2659.01C1524.63 2656.07 1526.53 2652.15 1527.34 2647.8C1528.15 2643.45 1527.82 2638.9 1526.4 2634.79C1524.97 2630.69 1522.53 2627.25 1519.43 2624.96Z" fill="#263238"/>
<path d="M1039.65 2745.88L957.744 2774.42L1022.21 2849.87L1118.83 2813.17L1039.65 2745.88Z" fill="#263238"/>
<path d="M1401.4 2533L1314.87 2563.18L1377.02 2615.99L1467.52 2584.49L1401.4 2533Z" fill="#263238"/>
<path d="M1375.29 2628.94L1303.38 2654.02L1375.78 2715.6L1445.87 2688.99L1375.29 2628.94Z" fill="#263238"/>
<path d="M869.971 2184.94L928.735 2164.45L890.799 2134.88L834.102 2154.46L869.971 2184.94Z" fill="#263238"/>
<path d="M1200.57 2782.17L1123.54 2716.62L1051.63 2741.7L1130.48 2808.78L1200.57 2782.17Z" fill="#263238"/>
<path d="M880.219 2193.71L942.371 2246.52L1005.76 2224.5L939.644 2173.01L880.219 2193.71Z" fill="#263238"/>
<path d="M1025.1 2316.86L1087.25 2369.68L1159.66 2344.49L1093.62 2293.01L1025.1 2316.86Z" fill="#263238"/>
<path d="M952.62 2255.29L1014.85 2308.1L1082.71 2284.44L1016.59 2232.96L952.62 2255.29Z" fill="#263238"/>
<path d="M1097.5 2378.44L1159.66 2431.25L1236.6 2404.54L1170.57 2352.96L1097.5 2378.44Z" fill="#263238"/>
<path d="M1169.99 2440.02L1232.14 2492.83L1313.55 2464.49L1247.51 2413.01L1169.99 2440.02Z" fill="#263238"/>
<path d="M1324.46 2472.95L1242.39 2501.6L1304.54 2554.41L1390.49 2524.54L1324.46 2472.95Z" fill="#263238"/>
<path d="M796.331 2222.97L858.483 2275.78L930.388 2250.7L868.236 2197.89L796.331 2222.97Z" fill="#263238"/>
<path d="M651.117 2415.66L663.845 2430.44L667.151 2429.22L651.117 2415.66Z" fill="#263238"/>
<path d="M618.222 2272.72L690.127 2247.64L653.927 2216.85L581.857 2241.73L618.222 2272.72Z" fill="#263238"/>
<path d="M702.111 2243.46L774.016 2218.38L737.981 2187.69L665.911 2212.67L702.111 2243.46Z" fill="#263238"/>
<path d="M750.047 2183.61L786.082 2214.2L857.987 2189.12L822.035 2158.64L750.047 2183.61Z" fill="#263238"/>
<path d="M812.034 2552.48L749.882 2499.56L729.055 2506.8L778.148 2564.2L812.034 2552.48Z" fill="#263238"/>
<path d="M1040.39 2912.06L850.301 1962.79C845.97 1941.21 836.636 1921.65 823.44 1906.51L311.016 1317.13C308.838 1314.63 306.069 1313.06 303.116 1312.66C300.162 1312.25 297.18 1313.02 294.608 1314.86C292.036 1316.69 290.01 1319.5 288.828 1322.86C287.645 1326.23 287.369 1329.97 288.04 1333.54L455.569 2219.7L1040.39 2912.06Z" fill="#FDE16C" stroke="#263238" stroke-linecap="round" stroke-linejoin="round"/>
<path d="M753.105 1867.67L811.704 1930.88C811.704 1930.88 829.969 1935.36 848.234 2048.22" stroke="#263238" stroke-width="0.5" stroke-linecap="round" stroke-linejoin="round"/>
<path d="M859.227 2106.84L967.249 2684.3" stroke="#263238" stroke-width="0.5" stroke-linecap="round" stroke-linejoin="round"/>
<path d="M542.929 1841.87C568.302 1917.93 565.988 1991.23 537.722 2005.61C509.456 2019.98 465.9 1969.92 440.527 1893.46C415.154 1817 417.468 1744.1 445.734 1729.83C474 1715.55 517.556 1765.82 542.929 1841.87Z" fill="#FDE16C"/>
<path opacity="0.6" d="M542.929 1841.87C568.302 1917.93 565.988 1991.23 537.722 2005.61C509.456 2019.98 465.9 1969.92 440.527 1893.46C415.154 1817 417.468 1744.1 445.734 1729.83C474 1715.55 517.556 1765.82 542.929 1841.87Z" fill="white"/>
<path d="M524.414 1965.81C544.505 1955.61 546.153 1903.48 528.096 1849.38C510.039 1795.29 479.114 1759.71 459.023 1769.91C438.932 1780.12 437.283 1832.24 455.341 1886.34C473.398 1940.43 504.323 1976.02 524.414 1965.81Z" stroke="#263238" stroke-miterlimit="10"/>
<path d="M582.104 2153.74C595.328 2193.2 589.873 2233.37 570.038 2243.46C550.202 2253.55 523.424 2229.7 510.2 2190.34C496.976 2150.99 502.513 2110.72 522.349 2100.63C542.185 2090.53 568.963 2114.39 582.104 2153.74Z" fill="#263238"/>
<path d="M554.748 2220.52C542.268 2220.52 528.714 2206.55 521.688 2184.74C517.733 2173.52 516.361 2161.17 517.721 2149.05C518.084 2144 519.511 2139.15 521.859 2134.98C524.207 2130.82 527.396 2127.48 531.11 2125.3C545.078 2118.16 562.93 2133.15 571.691 2159.35C580.369 2185.55 576.237 2211.65 562.269 2218.79C559.876 2219.96 557.322 2220.55 554.748 2220.52V2220.52ZM538.218 2133.76C536.798 2133.74 535.391 2134.09 534.086 2134.78C531.711 2136.35 529.703 2138.65 528.255 2141.45C526.808 2144.25 525.97 2147.47 525.821 2150.79C524.639 2161.18 525.841 2171.78 529.292 2181.37C535.987 2201.76 549.624 2214.61 559.046 2209.82C568.468 2205.02 570.699 2183.92 563.922 2163.73C557.723 2145.89 546.483 2133.76 538.218 2133.76Z" fill="#FDE16C"/>
<g opacity="0.5">
<path opacity="0.5" d="M554.748 2220.52C542.268 2220.52 528.714 2206.55 521.688 2184.74C517.733 2173.52 516.361 2161.17 517.721 2149.05C518.084 2144 519.511 2139.15 521.859 2134.98C524.207 2130.82 527.396 2127.48 531.11 2125.3C545.078 2118.16 562.93 2133.15 571.691 2159.35C580.369 2185.55 576.237 2211.65 562.269 2218.79C559.876 2219.96 557.322 2220.55 554.748 2220.52V2220.52ZM538.218 2133.76C536.798 2133.74 535.391 2134.09 534.086 2134.78C531.711 2136.35 529.703 2138.65 528.255 2141.45C526.808 2144.25 525.97 2147.47 525.821 2150.79C524.639 2161.18 525.841 2171.78 529.292 2181.37C535.987 2201.76 549.624 2214.61 559.046 2209.82C568.468 2205.02 570.699 2183.92 563.922 2163.73C557.723 2145.89 546.483 2133.76 538.218 2133.76Z" fill="white"/>
</g>
<path d="M729.468 2166.38L682.441 2258.14C681.229 2260.37 680.582 2263 680.582 2265.69C680.582 2268.37 681.229 2271 682.441 2273.23L783.107 2454.3C783.989 2455.9 785.134 2457.26 786.469 2458.29C787.804 2459.32 789.299 2459.99 790.857 2460.26C792.415 2460.52 794.002 2460.39 795.514 2459.85C797.027 2459.32 798.431 2458.4 799.637 2457.15L851.788 2404.65C853.867 2402.58 855.27 2399.66 855.741 2396.42C856.212 2393.18 855.718 2389.84 854.35 2387.01L748.477 2166.89C747.53 2164.84 746.168 2163.12 744.522 2161.91C742.877 2160.7 741.005 2160.04 739.09 2159.99C737.174 2159.94 735.281 2160.5 733.594 2161.62C731.908 2162.74 730.486 2164.38 729.468 2166.38V2166.38Z" fill="#263238"/>
<path d="M647.645 2288.01C647.645 2288.01 777.9 2261.3 867.409 2487.63L889.642 2453.89C889.642 2453.89 803.439 2276.8 733.187 2261C662.935 2245.19 637.397 2245.09 637.397 2245.09L647.645 2288.01Z" fill="#FDE16C"/>
<path opacity="0.5" d="M647.645 2288.01C647.645 2288.01 777.9 2261.3 867.409 2487.63L889.642 2453.89C889.642 2453.89 803.439 2276.8 733.187 2261C662.935 2245.19 637.397 2245.09 637.397 2245.09L647.645 2288.01Z" fill="white"/>
<path d="M85.8804 1799.56L298.453 1740.33" stroke="#263238" stroke-linecap="round" stroke-linejoin="round"/>
<path d="M1435.54 2370.49C1410.06 2375.45 1384.37 2378.62 1358.59 2379.97C1318.67 2381.91 1301.73 2381.91 1307.85 2393.33C1313.96 2404.75 1361.73 2416.06 1378.59 2419.84C1395.45 2423.61 1435.54 2370.49 1435.54 2370.49Z" fill="white" stroke="#263238" stroke-miterlimit="10"/>
<path d="M2934.46 2782.89L2863.3 2737.01" stroke="#263238" stroke-linecap="round" stroke-linejoin="round"/>
<path d="M1512.98 1711.37C1512.98 1711.37 1527.94 1679.06 1534.22 1719.12L1512.98 1711.37Z" fill="#263238"/>
<path d="M2819.25 2708.56L1084.28 1590.46" stroke="#263238" stroke-linecap="round" stroke-linejoin="round"/>
<path d="M1129.9 2028.34L1494.47 2318.29L1794.32 2167.4L1390.41 1914.16L1129.9 2028.34Z" fill="#263238" stroke="#263238" stroke-linecap="round" stroke-linejoin="round"/>
<path d="M1364.21 1967.88L1218.91 2031.2" stroke="white" stroke-width="0.5" stroke-linecap="round" stroke-linejoin="round"/>
<path d="M1241.73 2052.3L1503.89 2256.2L1717.54 2154.25" stroke="white" stroke-width="0.5" stroke-linecap="round" stroke-linejoin="round"/>
<path d="M2632.05 658.214C2632.05 658.214 2840.82 698.995 2908.01 837.037C2975.21 975.08 2927.19 1192.03 2904.79 1266.97C2884.54 1334.97 2944.38 1391.76 2981.16 1428.66C3063.8 1511.45 3106.37 1628.28 3063.39 1755.42C3036.61 1834.53 2917.52 1870.01 2933.63 1965.23C2949.75 2060.46 3019.92 2194.01 2930.41 2292.7C2835.94 2396.69 2694.2 2343.07 2611.38 2245.91C2518.24 2136.61 2486.17 1946.47 2533.86 1799.56C2591.71 1622.06 2623.37 1507.67 2568.99 1432.54C2514.6 1357.4 2444.27 1310.19 2444.27 1203.76C2444.27 1097.32 2521.05 1065.71 2553.03 959.073C2585.02 852.432 2540.22 742.12 2540.22 742.12L2632.05 658.214Z" fill="#263238" stroke="#263238" stroke-linecap="round" stroke-linejoin="round"/>
<path d="M2827.59 842.338C2867.93 879.959 2904.62 943.27 2891.89 1046.24C2866.11 1255.24 2740.9 1268.9 2821.89 1400.63C2902.89 1532.35 2976.61 1473.22 2961.82 1636.75C2947.02 1800.28 2899.25 1859.31 2899.25 1859.31" stroke="white" stroke-miterlimit="10"/>
<path d="M2741.23 792.076C2757.37 796.76 2773.06 803.597 2788.01 812.466" stroke="white" stroke-miterlimit="10"/>
<path d="M2700.73 851.208C2700.73 851.208 2807.51 887.503 2840.65 996.49C2873.79 1105.48 2741.47 1196.42 2733.87 1264.52" stroke="white" stroke-miterlimit="10"/>
<path d="M2696.02 2629.14C2694.53 2566.65 2693.87 2483.25 2696.93 2395.27C2703.37 2213.79 2879.25 1973.08 2885.61 1929.75C2891.98 1886.43 2876.03 1878.78 2876.03 1878.78L2527.41 1693.33C2365.34 1824.64 2325.92 2206.55 2316.25 2384.76L2696.02 2629.14Z" fill="#FDE16C" stroke="#263238" stroke-linecap="round" stroke-linejoin="round"/>
<path d="M2838.17 1890.3C2838.17 1890.3 2867.43 1912.83 2838.17 1948.92C2808.92 1985.01 2728.42 2138.45 2695.36 2228.68" stroke="#263238" stroke-width="0.5" stroke-linecap="round" stroke-linejoin="round"/>
<path d="M2680.89 2273.54C2680.89 2273.54 2655.27 2345.72 2658.99 2417.9C2662.71 2490.08 2662.63 2557.78 2662.63 2557.78" stroke="#263238" stroke-width="0.5" stroke-linecap="round" stroke-linejoin="round"/>
<path d="M1997.05 1792.32C2012.43 1841.67 2030.94 1947.8 2018.63 2008.46C2012.26 2039.96 1990.94 2106.13 1972.01 2162.51L2442.04 2465.51C2441.54 2344.8 2442.78 2154.25 2455.26 2118.88C2473.69 2065.76 2621.3 1565.18 2612.29 1451.4C2603.28 1337.62 2424.76 1174.5 2424.76 1174.5L2452.12 897.189L2289.22 1018.61C2289.22 1018.61 2270.71 1128.52 2252.27 1155.13C2233.84 1181.74 2083.17 1219.56 2040.11 1287.66C1997.05 1355.77 2012.43 1564.56 2012.43 1575.88C2012.43 1587.2 1981.68 1743.39 1997.05 1792.32Z" fill="white"/>
<g style="mix-blend-mode:multiply" opacity="0.5">
<path d="M2612.05 1450.99C2602.79 1337.21 2424.52 1174.09 2424.52 1174.09L2452.12 897.189L2289.22 1018.61C2289.22 1018.61 2283.85 1050.32 2276.08 1083.86C2286.57 1082.74 2298.31 1080.91 2311.45 1078.05C2373.6 1064.49 2406.58 1037.27 2406.58 1037.27L2373.52 1208.75C2373.52 1208.75 2541.79 1331.09 2585.68 1479.54C2591.63 1499.93 2598 1518.99 2604.52 1537.95C2610.09 1509.49 2612.62 1480.26 2612.05 1450.99V1450.99Z" fill="#FDE16C"/>
</g>
<path d="M1997.05 1792.32C2012.43 1841.67 2030.94 1947.8 2018.63 2008.46C2012.26 2039.96 1990.94 2106.13 1972.01 2162.51L2442.04 2465.51C2441.54 2344.8 2442.78 2154.25 2455.26 2118.88C2473.69 2065.76 2621.3 1565.18 2612.29 1451.4C2603.28 1337.62 2424.76 1174.5 2424.76 1174.5L2452.12 897.189L2289.22 1018.61C2289.22 1018.61 2270.71 1128.52 2252.27 1155.13C2233.84 1181.74 2083.17 1219.56 2040.11 1287.66C1997.05 1355.77 2012.43 1564.56 2012.43 1575.88C2012.43 1587.2 1981.68 1743.39 1997.05 1792.32Z" stroke="#263238" stroke-linecap="round" stroke-linejoin="round"/>
<path d="M1997.05 1792.32C2012.43 1841.67 2030.94 1947.8 2018.63 2008.46C2012.26 2039.96 1990.94 2106.13 1972.01 2162.51L2442.04 2465.51C2441.54 2344.8 2442.78 2154.25 2455.26 2118.87C2473.69 2065.76 2621.3 1565.18 2612.29 1451.4C2606.59 1380.54 2535.35 1290.72 2482.37 1232.92C2430.22 1301.12 2317.07 1428.36 2234.42 1371.67C2160.04 1320.7 2164.75 1243.21 2175.74 1197.13C2125.49 1219.97 2065.41 1249.13 2040.69 1288.28C1997.63 1356.58 2013.01 1565.18 2013.01 1576.49C2013.01 1587.81 1981.68 1743.39 1997.05 1792.32Z" fill="#263238" stroke="#263238" stroke-linecap="round" stroke-linejoin="round"/>
<path d="M2271.61 1657.54L2169.3 1598.31C2169.3 1598.31 2140.45 1539.18 2124.5 1539.18C2108.55 1539.18 2098.88 1622.06 2098.88 1622.06C2098.88 1622.06 2044.58 1685.17 2063.75 1748.28C2082.93 1811.39 2153.26 1906.1 2239.63 1870.62C2326 1835.14 2300.38 1724.73 2300.38 1724.73C2300.38 1724.73 2335.58 1649.8 2335.58 1633.99C2335.58 1618.19 2271.61 1657.54 2271.61 1657.54Z" fill="white" stroke="#263238" stroke-linecap="round" stroke-linejoin="round"/>
<path d="M2052.43 434.43C2052.43 434.43 2074 571.045 2070.86 665.861C2067.72 760.676 2037.06 798.398 2046.07 840.3C2055.07 882.202 2165.99 1037.58 2233.6 1052.67C2301.2 1067.75 2461.13 938.887 2507.25 881.998C2553.37 825.109 2559.48 741.712 2553.37 707.559C2547.25 673.405 2522.62 400.378 2430.38 290.373C2338.15 180.367 2095.49 191.786 2052.43 434.43Z" fill="white"/>
<g style="mix-blend-mode:multiply" opacity="0.5">
<path d="M2430.88 290.373C2396.41 249.592 2340.87 225.124 2282.61 223.594L2278.81 365.103C2278.81 365.103 2260.46 504.981 2326.33 617.739C2392.2 730.498 2450.71 762.205 2457.99 807.267C2465.26 852.33 2432.2 897.189 2348.23 974.264C2315.39 1004.92 2280.21 1031.55 2243.18 1053.79C2315.17 1056.95 2463.53 936.542 2507.66 881.998C2553.78 825.109 2559.89 741.712 2553.78 707.559C2547.66 673.405 2522.87 400.378 2430.88 290.373Z" fill="#FDE16C"/>
</g>
<path d="M2052.43 434.43C2052.43 434.43 2074 571.045 2070.86 665.861C2067.72 760.676 2037.06 798.398 2046.07 840.3C2055.07 882.202 2165.99 1037.58 2233.6 1052.67C2301.2 1067.75 2461.13 938.887 2507.25 881.998C2553.37 825.109 2559.48 741.712 2553.37 707.559C2547.25 673.405 2522.62 400.378 2430.38 290.373C2338.15 180.367 2095.49 191.786 2052.43 434.43Z" stroke="#263238" stroke-linecap="round" stroke-linejoin="round"/>
<path d="M2169.3 715.103C2169.3 715.103 2160.04 787.183 2144.5 809.918C2156.56 822.898 2171.62 830.885 2187.56 832.755" stroke="#263238" stroke-linecap="round" stroke-linejoin="round"/>
<path d="M2175.41 897.189C2195.44 908.141 2217.27 913.162 2239.16 911.852C2261.04 910.543 2282.37 902.937 2301.45 889.644" stroke="#263238" stroke-linecap="round" stroke-linejoin="round"/>
<path d="M2286.08 677.177C2286.08 689.819 2281.28 700.014 2275.33 700.014C2269.38 700.014 2264.59 689.819 2264.59 677.177C2264.59 664.535 2269.38 654.442 2275.33 654.442C2281.28 654.442 2286.08 664.637 2286.08 677.177Z" fill="#263238"/>
<path d="M2133.92 646.897C2133.92 659.437 2129.13 669.632 2123.18 669.632C2117.23 669.632 2112.43 659.437 2112.43 646.897C2112.43 634.357 2117.23 624.162 2123.18 624.162C2129.13 624.162 2133.92 634.357 2133.92 646.897Z" fill="#263238"/>
<path d="M2092.43 548.31C2101.05 541.671 2110.67 537.239 2120.71 535.277C2130.75 533.315 2141 533.864 2150.86 536.891" stroke="#263238" stroke-linecap="round" stroke-linejoin="round"/>
<path d="M2236.9 552.082C2236.9 552.082 2255.33 540.664 2295.33 571.045" stroke="#263238" stroke-linecap="round" stroke-linejoin="round"/>
<path d="M2255.33 332.071C2255.33 332.071 2169.3 419.341 2126.23 472.356C2083.17 525.371 2064.74 563.399 2000.2 529.347C1935.65 495.295 1889.45 377.541 1975.4 237.256C2061.36 96.9701 2227.56 55.17 2390.46 112.059C2553.36 168.948 2621.14 297.917 2633.37 438.304C2645.6 578.692 2620.97 734.066 2563.12 775.866C2505.26 817.666 2375.5 646.897 2329.39 540.664C2300.49 473.527 2275.73 403.798 2255.33 332.071V332.071Z" fill="#263238" stroke="#263238" stroke-linecap="round" stroke-linejoin="round"/>
<path d="M2255.33 332.071C2255.33 332.071 2023.17 374.279 2012.18 437.795C2001.19 501.31 2071.11 483.265 2071.11 483.265" stroke="white" stroke-miterlimit="10"/>
<path d="M1982.26 373.973C1966.56 415.365 1979.04 442.382 1979.04 442.382" stroke="white" stroke-miterlimit="10"/>
<path d="M2487.16 197.087C2487.16 197.087 2262.52 151.718 2262.52 274.264C2262.52 274.264 2126.32 215.234 2037.97 296.999C2024.7 308.924 2012.54 322.599 2001.68 337.78" stroke="white" stroke-miterlimit="10"/>
<path d="M2273.85 301.587C2273.85 301.587 2331.12 529.551 2450.63 587.766" stroke="white" stroke-miterlimit="10"/>
<path d="M2393.03 362.86C2439.06 409.758 2504.93 456.044 2583.12 451.456" stroke="white" stroke-miterlimit="10"/>
<path d="M2321.45 269.778C2332.22 288.04 2344.04 305.315 2356.83 321.468" stroke="white" stroke-miterlimit="10"/>
<path d="M2030.94 567.273L2390.63 643.125C2390.63 643.125 2390.63 710.617 2375.26 745.077C2359.88 779.537 2341.45 779.944 2301.45 779.944C2261.45 779.944 2205.83 749.359 2203.1 738.246C2196.73 711.331 2201.03 622.531 2201.03 622.531L2172.35 616.822C2172.35 616.822 2176.07 720.303 2160.7 731.721C2145.33 743.14 2043.83 720.303 2025.4 690.023C2006.97 659.743 2018.63 563.399 2030.94 567.273Z" stroke="#263238" stroke-linecap="round" stroke-linejoin="round"/>
<path d="M2390.63 643.125L2550.55 608.971V635.479L2390.63 684.823V643.125Z" fill="#FDE16C" stroke="#263238" stroke-linecap="round" stroke-linejoin="round"/>
<path d="M2668.58 666.732C2681.08 570.834 2651.78 485.279 2603.16 475.639C2554.53 465.998 2504.98 535.924 2492.49 631.822C2479.99 727.72 2509.28 813.275 2557.91 822.916C2606.54 832.556 2656.09 762.63 2668.58 666.732Z" fill="#FDE16C" stroke="#263238" stroke-linecap="round" stroke-linejoin="round"/>
<path d="M2694.28 670.55C2683.78 751.296 2647.34 811.142 2613.04 804.311C2578.74 797.48 2559.32 726.624 2569.81 645.878C2580.31 565.132 2616.67 505.389 2651.06 512.219C2685.44 519.05 2704.78 589.907 2694.28 670.55Z" fill="#FDE16C" stroke="#263238" stroke-linecap="round" stroke-linejoin="round"/>
<path d="M2645.77 332.071C2651.71 438.207 2642.33 544.802 2618.08 646.897C2618.08 646.897 2615.02 708.068 2661.14 681.051C2707.26 654.034 2701.14 423.113 2694.94 328.298C2688.74 233.483 2630.48 259.991 2645.77 332.071Z" fill="white" stroke="#263238" stroke-linecap="round" stroke-linejoin="round"/>
<path d="M2473.69 153.757C2473.69 153.757 2544.36 131.022 2581.13 210.748C2617.91 290.474 2611.88 362.452 2663.78 369.997C2715.69 377.541 2719.16 305.563 2691.47 214.521C2663.78 123.478 2605.43 55.1702 2525.43 47.6257C2445.43 40.0813 2406.08 119.706 2406.08 119.706C2406.08 119.706 2449.06 127.25 2473.69 153.757Z" fill="#FDE16C" stroke="#263238" stroke-linecap="round" stroke-linejoin="round"/>
<path d="M2467.49 1572.31L2255.33 2167.81C2255.33 2167.81 1677.29 2300.35 1625.05 2300.35C1572.82 2300.35 1468.02 2345.82 1446.7 2361.52C1425.37 2377.22 1216.35 2495.59 1256.6 2502.93C1281.4 2507.51 1345.53 2463.98 1345.53 2463.98C1345.53 2463.98 1244.04 2525.15 1253.21 2543.61C1262.39 2562.06 1385.45 2486.72 1385.45 2486.72C1385.45 2486.72 1272.97 2568.28 1296.03 2572.87C1317.02 2577.45 1342.39 2562.67 1363.96 2543.61C1382.78 2529.36 1403.04 2518.25 1424.21 2510.57C1424.21 2510.57 1374.63 2551.35 1368.76 2569.91C1362.89 2588.46 1381.07 2577.45 1399.5 2569.91C1433.99 2551.56 1467.34 2530.09 1499.26 2505.68C1511.49 2494.26 1548.44 2471.53 1573.07 2445.02L1622.24 2391.9C1622.24 2391.9 1951.18 2403.22 2101.61 2395.67C2252.03 2388.13 2326.08 2369.17 2381.45 2300.86C2436.83 2232.55 2593.61 1800.17 2630.48 1682.62C2667.34 1565.07 2642.79 1496.77 2605.68 1417.55" fill="white"/>
<g style="mix-blend-mode:multiply" opacity="0.5">
<path d="M2476.09 1962.48C2376.91 2192.59 2293.19 2264.77 2205.41 2319.31C2117.64 2373.86 1634.72 2387.01 1634.72 2387.01L1655.05 2393.02C1742.25 2395.67 1980.03 2401.89 2101.36 2395.78C2252.03 2388.23 2325.83 2369.27 2381.21 2300.96C2436.58 2232.65 2593.37 1800.28 2630.23 1682.73C2647.34 1628.28 2651.14 1584.44 2646.76 1545.09L2625.85 1561.3C2582.53 1698.63 2532.52 1832.6 2476.09 1962.48V1962.48Z" fill="#FDE16C"/>
</g>
<path d="M2467.49 1572.31L2255.33 2167.81C2255.33 2167.81 1677.29 2300.35 1625.05 2300.35C1572.82 2300.35 1468.02 2345.82 1446.7 2361.52C1425.37 2377.22 1216.35 2495.59 1256.6 2502.93C1281.4 2507.51 1345.53 2463.98 1345.53 2463.98C1345.53 2463.98 1244.04 2525.15 1253.21 2543.61C1262.39 2562.06 1385.45 2486.72 1385.45 2486.72C1385.45 2486.72 1272.97 2568.28 1296.03 2572.87C1317.02 2577.45 1342.39 2562.67 1363.96 2543.61C1382.78 2529.36 1403.04 2518.25 1424.21 2510.57C1424.21 2510.57 1374.63 2551.35 1368.76 2569.91C1362.89 2588.46 1381.07 2577.45 1399.5 2569.91C1433.99 2551.56 1467.34 2530.09 1499.26 2505.68C1511.49 2494.26 1548.44 2471.53 1573.07 2445.02L1622.24 2391.9C1622.24 2391.9 1951.18 2403.22 2101.61 2395.67C2252.03 2388.13 2326.08 2369.17 2381.45 2300.86C2436.83 2232.55 2593.61 1800.17 2630.48 1682.62C2667.34 1565.07 2642.79 1496.77 2605.68 1417.55" stroke="#263238" stroke-miterlimit="10"/>
<path d="M2463.94 1557.33L2399.39 1763.78C2446.83 1732.58 2535.84 1690.68 2606.84 1753.58C2616.84 1724.63 2625.02 1700.16 2630.48 1682.73C2667.42 1565.18 2642.79 1496.87 2605.68 1417.65" fill="#263238"/>
<path d="M2463.94 1557.33L2399.39 1763.78C2446.83 1732.58 2535.84 1690.68 2606.84 1753.58C2616.84 1724.63 2625.02 1700.16 2630.48 1682.73C2667.42 1565.18 2642.79 1496.87 2605.68 1417.65" stroke="#263238" stroke-linecap="round" stroke-linejoin="round"/>
<path d="M2007.14 1831.27C1944.74 1853.8 1698.28 1942.8 1675.39 1949.43C1661.2 1953.69 1646.82 1956.86 1632.33 1958.91C1632.33 1958.91 1546.2 1913.34 1523.15 1892.54C1500.09 1871.74 1472.4 1884.9 1458.6 1892.54C1444.79 1900.19 1433.8 1953.2 1460.17 1953.2C1486.53 1953.2 1490.91 1951.27 1520.09 1981.65C1549.26 2012.03 1549.35 2027.22 1570.83 2038.54C1592.32 2049.85 1627.78 2042.31 1646.21 2038.54C1662.74 2035.17 1948.54 2011.72 2018.87 2007.14C2028.05 1959.42 2018.87 1884.9 2007.14 1831.27Z" fill="white"/>
<g style="mix-blend-mode:multiply" opacity="0.5">
<path d="M2016.97 1886.12L1646.21 2039.05C1662.74 2035.68 1948.54 2012.23 2018.87 2007.65C2025.16 1974.41 2022.84 1929.04 2016.97 1886.12Z" fill="#FDE16C"/>
</g>
<path d="M2007.14 1831.27C1944.74 1853.8 1698.28 1942.8 1675.39 1949.43C1661.2 1953.69 1646.82 1956.86 1632.33 1958.91C1632.33 1958.91 1546.2 1913.34 1523.15 1892.54C1500.09 1871.74 1472.4 1884.9 1458.6 1892.54C1444.79 1900.19 1433.8 1953.2 1460.17 1953.2C1486.53 1953.2 1490.91 1951.27 1520.09 1981.65C1549.26 2012.03 1549.35 2027.22 1570.83 2038.54C1592.32 2049.85 1627.78 2042.31 1646.21 2038.54C1662.74 2035.17 1948.54 2011.72 2018.87 2007.14C2028.05 1959.42 2018.87 1884.9 2007.14 1831.27Z" stroke="#263238" stroke-linecap="round" stroke-linejoin="round"/>
<path d="M1390.91 1955.14C1390.91 1955.14 1358.59 1977.88 1349.58 2004.38C1340.57 2030.89 1358.76 2023.35 1364.96 2017.74C1371.15 2012.13 1397.27 1985.42 1397.27 1985.42L1390.91 1955.14Z" fill="white" stroke="#263238" stroke-linecap="round" stroke-linejoin="round"/>
<path d="M1400.16 1936.08C1394.11 1940.86 1389.33 1947.73 1386.39 1955.82C1383.45 1963.92 1382.5 1972.89 1383.63 1981.65C1386.69 2013.86 1414.38 2061.27 1417.52 2042.31C1420.66 2023.35 1400.16 1936.08 1400.16 1936.08Z" fill="white" stroke="#263238" stroke-linecap="round" stroke-linejoin="round"/>
<path d="M1438.6 1907.63C1438.6 1907.63 1409.34 1917.11 1400.16 1936.08C1390.99 1955.04 1406.28 2036.7 1417.11 2042.31C1419.4 2043.58 1421.91 2044.19 1424.42 2044.09C1426.94 2043.99 1429.4 2043.18 1431.63 2041.72C1433.85 2040.27 1435.78 2038.2 1437.26 2035.69C1438.74 2033.18 1439.73 2030.28 1440.17 2027.22C1443.22 2013.86 1438.6 1907.63 1438.6 1907.63Z" fill="white" stroke="#263238" stroke-linecap="round" stroke-linejoin="round"/>
<path d="M1475.54 1888.67C1475.54 1888.67 1437.03 1888.67 1432.48 1911.51C1427.93 1934.34 1420.16 2032.83 1427.85 2048.02C1435.54 2063.21 1447.85 2057.5 1453.97 2038.54C1460.08 2019.57 1475.54 1888.67 1475.54 1888.67Z" fill="white" stroke="#263238" stroke-linecap="round" stroke-linejoin="round"/>
<path d="M1510.5 1711.99L1447.36 2066.68L1457.27 2111.94C1457.42 2112.64 1457.72 2113.27 1458.13 2113.78C1458.54 2114.29 1459.05 2114.65 1459.61 2114.84C1460.17 2115.02 1460.77 2115.02 1461.33 2114.84C1461.89 2114.65 1462.4 2114.29 1462.81 2113.78L1490.42 2079.93L1536.53 1721.47L1510.5 1711.99Z" fill="#263238"/>
<path d="M1572.4 1998.27C1572.4 1998.27 1537.03 2015.39 1509.34 2030.58C1481.66 2045.78 1453.97 2053.32 1457.03 2074.22C1460.08 2095.12 1472.4 2087.47 1492.4 2079.93C1519.84 2068.12 1548.21 2059.85 1577.03 2055.26C1615.46 2049.55 1646.21 2005.91 1646.21 2005.91" fill="white"/>
<path d="M1572.4 1998.27C1572.4 1998.27 1537.03 2015.39 1509.34 2030.58C1481.66 2045.78 1453.97 2053.32 1457.03 2074.22C1460.08 2095.12 1472.4 2087.47 1492.4 2079.93C1519.84 2068.12 1548.21 2059.85 1577.03 2055.26C1615.46 2049.55 1646.21 2005.91 1646.21 2005.91" stroke="#263238" stroke-linecap="round" stroke-linejoin="round"/>
<path d="M1448.18 2072.18L1454.63 2105.62C1454.95 2107.23 1455.6 2108.71 1456.52 2109.92C1457.45 2111.12 1458.61 2112 1459.9 2112.48C1461.19 2112.95 1462.56 2113 1463.86 2112.62C1465.17 2112.24 1466.38 2111.44 1467.36 2110.31L1482.48 2092.57" stroke="white" stroke-width="0.5" stroke-linecap="round" stroke-linejoin="round"/>
<path d="M1447.44 2066.68L1480.09 1887.04" stroke="white" stroke-width="0.5" stroke-linecap="round" stroke-linejoin="round"/>
<path d="M317.876 1362.29L734.84 1840.65" stroke="#263238" stroke-width="0.5" stroke-linecap="round" stroke-linejoin="round"/>
</svg>
