<svg width="4012" height="4711" viewBox="0 0 4012 4711" fill="none" xmlns="http://www.w3.org/2000/svg">
<path d="M1934.85 4710.1C2804.85 4710.1 3510.13 4562.69 3510.13 4380.86C3510.13 4199.02 2804.85 4051.62 1934.85 4051.62C1064.85 4051.62 359.576 4199.02 359.576 4380.86C359.576 4562.69 1064.85 4710.1 1934.85 4710.1Z" fill="#E6A5E1"/>
<path opacity="0.5" d="M1934.85 4710.1C2804.85 4710.1 3510.13 4562.69 3510.13 4380.86C3510.13 4199.02 2804.85 4051.62 1934.85 4051.62C1064.85 4051.62 359.576 4199.02 359.576 4380.86C359.576 4562.69 1064.85 4710.1 1934.85 4710.1Z" fill="white"/>
<path d="M3607.18 1H2471.36C2432.56 1 2401.11 33.8721 2401.11 74.4218V1382.98C2401.11 1423.53 2432.56 1456.41 2471.36 1456.41H3607.18C3645.98 1456.41 3677.43 1423.53 3677.43 1382.98V74.4218C3677.43 33.8721 3645.98 1 3607.18 1Z" fill="white" stroke="#263238" stroke-linecap="round" stroke-linejoin="round"/>
<path d="M2471.36 1.00092H3607.06C3625.6 1.00092 3643.38 8.69791 3656.49 22.3987C3669.6 36.0994 3676.97 54.6816 3676.97 74.0573V150.28H2401.11V74.4227C2401.06 64.7673 2402.85 55.198 2406.36 46.2682C2409.88 37.3384 2415.05 29.2252 2421.58 22.3977C2428.12 15.5702 2435.88 10.1639 2444.42 6.49122C2452.97 2.81857 2462.12 0.952519 2471.36 1.00092V1.00092Z" fill="#263238" stroke="#263238" stroke-linecap="round" stroke-linejoin="round"/>
<path d="M2470.66 778.079H2984.22" stroke="#263238" stroke-linecap="round" stroke-linejoin="round"/>
<path d="M2470.66 847.36H2984.22" stroke="#263238" stroke-linecap="round" stroke-linejoin="round"/>
<path d="M2470.66 916.642H2984.22" stroke="#263238" stroke-linecap="round" stroke-linejoin="round"/>
<path d="M2470.66 985.924H2984.22" stroke="#263238" stroke-linecap="round" stroke-linejoin="round"/>
<path d="M2470.66 1055.21H2984.22" stroke="#263238" stroke-linecap="round" stroke-linejoin="round"/>
<path d="M2470.66 1124.61H2984.22" stroke="#263238" stroke-linecap="round" stroke-linejoin="round"/>
<path d="M2470.66 1193.89H2984.22" stroke="#263238" stroke-linecap="round" stroke-linejoin="round"/>
<path d="M2470.66 1263.17H2984.22" stroke="#263238" stroke-linecap="round" stroke-linejoin="round"/>
<path d="M2470.66 1332.46H2984.22" stroke="#263238" stroke-linecap="round" stroke-linejoin="round"/>
<path d="M3074.51 778.079H3588.07" stroke="#263238" stroke-linecap="round" stroke-linejoin="round"/>
<path d="M3074.51 847.36H3588.07" stroke="#263238" stroke-linecap="round" stroke-linejoin="round"/>
<path d="M3074.51 916.642H3588.07" stroke="#263238" stroke-linecap="round" stroke-linejoin="round"/>
<path d="M3074.51 985.924H3588.07" stroke="#263238" stroke-linecap="round" stroke-linejoin="round"/>
<path d="M3074.51 1055.21H3588.07" stroke="#263238" stroke-linecap="round" stroke-linejoin="round"/>
<path d="M3074.51 1124.61H3588.07" stroke="#263238" stroke-linecap="round" stroke-linejoin="round"/>
<path d="M3074.51 1193.89H3588.07" stroke="#263238" stroke-linecap="round" stroke-linejoin="round"/>
<path d="M3074.51 1263.17H3588.07" stroke="#263238" stroke-linecap="round" stroke-linejoin="round"/>
<path d="M3074.51 1332.46H3588.07" stroke="#263238" stroke-linecap="round" stroke-linejoin="round"/>
<path d="M2814.12 339.374C2816.66 331.147 2817.99 322.569 2818.08 313.926C2818.08 282.39 2787.44 280.564 2757.38 280.564H2749.81V273.136H2881V280.564C2846.86 280.564 2834.39 303.333 2823.79 337.061L2753.89 555.134C2748.65 571.329 2744.22 583.383 2727.79 583.383H2726.39L2664.88 375.05L2607.67 555.621C2602.32 571.816 2597.89 583.87 2581.46 583.87H2580.18L2490.7 280.564H2459.25V273.136H2574.35V280.564H2541.62L2608.02 519.458H2610.7L2660.8 360.804L2637.5 281.173H2606.04V273.136H2721.27V280.564H2688.53L2754.94 519.458H2757.5L2814.12 339.374Z" fill="#E6A5E1"/>
<path d="M3591.68 204.098H3063.21V703.317H3591.68V204.098Z" fill="#E6A5E1" stroke="#263238" stroke-width="2" stroke-linecap="round" stroke-linejoin="round"/>
<path d="M3591.68 412.795C3573.96 413.851 3556.35 416.416 3539.02 420.466C3458.75 438.731 3437.78 559.152 3347.02 559.152C3266.63 559.152 3259.76 446.036 3144.53 431.425C3116.5 426.81 3087.79 432.125 3062.98 446.523V703.317H3591.68V412.795Z" fill="#263238" stroke="#263238" stroke-linecap="round" stroke-linejoin="round"/>
<path d="M3238.79 318.31C3238.81 330.602 3235.34 342.625 3228.82 352.855C3222.3 363.086 3213.02 371.064 3202.16 375.779C3191.3 380.494 3179.34 381.734 3167.81 379.342C3156.27 376.95 3145.67 371.033 3137.35 362.341C3129.04 353.65 3123.38 342.574 3121.09 330.516C3118.8 318.459 3119.98 305.963 3124.5 294.611C3129.01 283.26 3136.64 273.562 3146.43 266.748C3156.22 259.934 3167.72 256.31 3179.49 256.334C3195.21 256.334 3210.3 262.863 3221.42 274.486C3232.54 286.109 3238.79 301.873 3238.79 318.31V318.31Z" fill="white" stroke="#263238" stroke-linecap="round" stroke-linejoin="round"/>
<path d="M3615.8 44.7131H2439.44V92.0781H3615.8V44.7131Z" fill="white" stroke="#263238" stroke-linecap="round" stroke-linejoin="round"/>
<path d="M3542.4 1746.81H3033.15C3013.13 1746.81 2993.93 1755.12 2979.77 1769.92C2965.61 1784.71 2957.66 1804.78 2957.66 1825.71V2110.39C2957.66 2131.31 2965.61 2151.38 2979.77 2166.18C2993.93 2180.97 3013.13 2189.29 3033.15 2189.29H3048.77C3032.92 2225.81 3002.16 2281.82 2953.58 2315.07C2953.58 2315.07 3056.92 2307.52 3164.57 2189.29H3542.17C3562.19 2189.29 3581.39 2180.97 3595.55 2166.18C3609.71 2151.38 3617.66 2131.31 3617.66 2110.39V1825.71C3617.66 1804.82 3609.74 1784.79 3595.63 1770C3581.53 1755.21 3562.38 1746.87 3542.4 1746.81V1746.81Z" fill="#263238" stroke="#263238" stroke-linecap="round" stroke-linejoin="round"/>
<path d="M3200.22 1957.94C3200.25 1949.89 3197.98 1942.01 3193.71 1935.3C3189.45 1928.59 3183.37 1923.36 3176.26 1920.27C3169.14 1917.18 3161.31 1916.36 3153.75 1917.93C3146.19 1919.49 3139.24 1923.37 3133.79 1929.06C3128.35 1934.76 3124.64 1942.01 3123.14 1949.91C3121.64 1957.81 3122.42 1966 3125.38 1973.44C3128.34 1980.87 3133.35 1987.22 3139.76 1991.68C3146.18 1996.14 3153.72 1998.51 3161.43 1998.49C3171.71 1998.45 3181.56 1994.17 3188.83 1986.57C3196.1 1978.98 3200.19 1968.68 3200.22 1957.94V1957.94Z" fill="#E6A5E1" stroke="#263238" stroke-linecap="round" stroke-linejoin="round"/>
<path d="M3332.22 1957.94C3332.22 1949.92 3329.95 1942.08 3325.69 1935.41C3321.42 1928.75 3315.36 1923.55 3308.27 1920.48C3301.19 1917.41 3293.38 1916.61 3285.86 1918.17C3278.33 1919.74 3271.42 1923.6 3265.99 1929.27C3260.57 1934.94 3256.87 1942.17 3255.38 1950.03C3253.88 1957.9 3254.65 1966.05 3257.58 1973.46C3260.52 1980.87 3265.49 1987.2 3271.87 1991.65C3278.25 1996.11 3285.75 1998.49 3293.43 1998.49C3303.71 1998.45 3313.56 1994.17 3320.83 1986.58C3328.1 1978.98 3332.19 1968.68 3332.22 1957.94V1957.94Z" fill="#E6A5E1" stroke="#263238" stroke-linecap="round" stroke-linejoin="round"/>
<path d="M3464.34 1957.94C3464.37 1949.89 3462.1 1942.02 3457.84 1935.31C3453.58 1928.61 3447.51 1923.38 3440.4 1920.28C3433.29 1917.18 3425.47 1916.36 3417.91 1917.92C3410.35 1919.47 3403.41 1923.34 3397.96 1929.02C3392.5 1934.7 3388.78 1941.95 3387.27 1949.84C3385.76 1957.73 3386.53 1965.91 3389.47 1973.35C3392.41 1980.79 3397.4 1987.15 3403.8 1991.62C3410.2 1996.1 3417.73 1998.49 3425.43 1998.49C3435.72 1998.45 3445.58 1994.18 3452.87 1986.58C3460.16 1978.99 3464.28 1968.69 3464.34 1957.94Z" fill="#E6A5E1" stroke="#263238" stroke-linecap="round" stroke-linejoin="round"/>
<path d="M741.948 173.658H1580.79C1600.75 173.658 1619.9 181.945 1634.01 196.696C1648.12 211.447 1656.05 231.454 1656.05 252.315V860.023H667.035V252.315C667.035 231.517 674.916 211.565 688.955 196.825C702.994 182.084 722.048 173.754 741.948 173.658V173.658Z" fill="#E6A5E1" stroke="#263238" stroke-linecap="round" stroke-linejoin="round"/>
<path d="M1655.59 762.006H667.035V859.658H1655.59V762.006Z" fill="#263238" stroke="#263238" stroke-linecap="round" stroke-linejoin="round"/>
<path d="M1610.38 795.368H712.356V826.296H1610.38V795.368Z" fill="white" stroke="#263238" stroke-linecap="round" stroke-linejoin="round"/>
<path d="M1161.37 627.826C1236.78 627.826 1297.91 563.935 1297.91 485.122C1297.91 406.309 1236.78 342.418 1161.37 342.418C1085.96 342.418 1024.82 406.309 1024.82 485.122C1024.82 563.935 1085.96 627.826 1161.37 627.826Z" fill="#263238" stroke="#263238" stroke-linecap="round" stroke-linejoin="round"/>
<path d="M1099.74 396.358L1247.12 485.243L1099.74 574.129V396.358Z" fill="white" stroke="#263238" stroke-linecap="round" stroke-linejoin="round"/>
<path d="M1228.01 1109.63H289.789C271.644 1109.63 256.934 1125.01 256.934 1143.97V1517.65C256.934 1536.62 271.644 1551.99 289.789 1551.99H1228.01C1246.16 1551.99 1260.87 1536.62 1260.87 1517.65V1143.97C1260.87 1125.01 1246.16 1109.63 1228.01 1109.63Z" fill="#263238" stroke="#263238" stroke-linecap="round" stroke-linejoin="round"/>
<path d="M376.469 1169.91L381.363 1178.43C359.226 1191.34 338.605 1213.98 338.605 1240.53C338.321 1245.09 338.912 1249.66 340.341 1253.98C341.771 1258.3 344.01 1262.27 346.929 1265.67C349.848 1269.08 353.387 1271.84 357.339 1273.79C361.291 1275.74 365.577 1276.85 369.945 1277.05C373.207 1277.05 375.421 1275.35 375.421 1271.94C375.421 1268.53 373.79 1267.44 370.527 1266.83C366.128 1265.58 362.296 1262.74 359.714 1258.82C357.131 1254.89 355.968 1250.14 356.43 1245.4C356.515 1241.62 357.335 1237.89 358.84 1234.45C360.345 1231.01 362.503 1227.93 365.184 1225.39C367.865 1222.85 371.012 1220.91 374.434 1219.68C377.857 1218.45 381.482 1217.96 385.091 1218.24C389.016 1218.26 392.899 1219.1 396.51 1220.71C400.12 1222.31 403.385 1224.67 406.112 1227.62C408.838 1230.57 410.97 1234.06 412.383 1237.89C413.795 1241.72 414.458 1245.8 414.334 1249.9C414.277 1255.06 413.227 1260.14 411.246 1264.86C409.266 1269.58 406.395 1273.84 402.807 1277.37C399.218 1280.91 394.985 1283.65 390.36 1285.43C385.735 1287.22 380.812 1288.02 375.887 1287.77C369.763 1288.18 363.625 1287.25 357.869 1285.03C352.114 1282.8 346.869 1279.34 342.476 1274.86C338.082 1270.39 334.637 1264.99 332.365 1259.04C330.093 1253.08 329.043 1246.69 329.284 1240.28C328.935 1209.48 351.653 1184.64 376.469 1169.91ZM476.548 1169.91L481.441 1178.43C459.188 1191.34 438.683 1213.98 438.683 1240.53C438.384 1245.09 438.963 1249.67 440.386 1254C441.81 1258.32 444.049 1262.3 446.97 1265.71C449.892 1269.11 453.438 1271.87 457.397 1273.82C461.357 1275.77 465.65 1276.87 470.024 1277.05C473.286 1277.05 475.499 1275.35 475.499 1271.94C475.499 1268.53 473.868 1267.44 470.606 1266.83C466.207 1265.58 462.374 1262.74 459.792 1258.82C457.21 1254.89 456.046 1250.14 456.509 1245.4C456.577 1241.61 457.385 1237.88 458.885 1234.43C460.384 1230.98 462.542 1227.89 465.227 1225.35C467.912 1222.81 471.066 1220.86 474.495 1219.64C477.925 1218.42 481.557 1217.94 485.169 1218.24C489.095 1218.26 492.978 1219.1 496.588 1220.71C500.199 1222.31 503.464 1224.67 506.19 1227.62C508.917 1230.57 511.049 1234.06 512.461 1237.89C513.873 1241.72 514.537 1245.8 514.412 1249.9C514.339 1255.05 513.278 1260.13 511.292 1264.84C509.306 1269.55 506.436 1273.8 502.85 1277.33C499.265 1280.86 495.038 1283.61 490.42 1285.4C485.802 1287.19 480.887 1288 475.965 1287.77C469.846 1288.16 463.716 1287.22 457.968 1284.99C452.221 1282.76 446.984 1279.29 442.594 1274.82C438.204 1270.35 434.759 1264.96 432.481 1259.02C430.202 1253.07 429.14 1246.69 429.363 1240.28C428.897 1209.48 451.616 1184.64 476.548 1169.91Z" fill="#E6A5E1"/>
<path d="M572.316 1260.01H1143.66" stroke="white" stroke-linecap="round" stroke-linejoin="round"/>
<path d="M572.316 1311.27H1143.66" stroke="white" stroke-linecap="round" stroke-linejoin="round"/>
<path d="M572.316 1362.53H1143.66" stroke="white" stroke-linecap="round" stroke-linejoin="round"/>
<path d="M572.316 1413.91H1143.66" stroke="white" stroke-linecap="round" stroke-linejoin="round"/>
<path d="M1042.57 2237.86C1160.5 2217.75 1240.49 2101.53 1221.25 1978.28C1202 1855.04 1090.8 1771.43 972.868 1791.55C854.941 1811.67 774.946 1927.88 794.194 2051.13C813.442 2174.38 924.644 2257.98 1042.57 2237.86Z" fill="#263238" stroke="#263238" stroke-linecap="round" stroke-linejoin="round"/>
<path d="M1144.95 2140.87C1211.48 2061.69 1204 1941.14 1128.24 1871.6C1052.48 1802.07 937.13 1809.88 870.597 1889.06C804.064 1968.24 811.543 2088.79 887.303 2158.33C963.063 2227.86 1078.41 2220.04 1144.95 2140.87Z" fill="white" stroke="#263238" stroke-linecap="round" stroke-linejoin="round"/>
<path d="M1007.81 1876.73V2014.68H1097.06" stroke="#263238" stroke-width="2" stroke-linecap="round" stroke-linejoin="round"/>
<path d="M2361.38 2015.17C2361.38 2015.17 2485.46 2291.93 2485.46 2306.54C2485.46 2321.15 2375.36 2383.74 2354.39 2396.89C2338.13 2406.57 2321.36 2415.31 2304.18 2423.07L2316.76 2551.28C2316.76 2551.28 2506.31 2506.11 2585.77 2460.93C2665.23 2415.76 2662.43 2364.74 2644.02 2289.01C2625.62 2213.27 2503.17 1920.56 2503.17 1920.56L2361.38 2015.17Z" fill="white"/>
<g style="mix-blend-mode:multiply" opacity="0.5">
<path d="M2585.42 2460.93C2664.88 2415.76 2662.08 2364.74 2643.67 2289.01C2625.27 2213.27 2502.82 1920.56 2502.82 1920.56L2483.01 1933.71L2476.72 1945.89C2476.72 1945.89 2591.01 2239.09 2597.89 2336.74C2602.55 2402.37 2476.14 2484.19 2392.6 2530.95C2454.59 2513.78 2538.94 2487.36 2585.42 2460.93Z" fill="#E6A5E1"/>
</g>
<path d="M2361.38 2015.17C2361.38 2015.17 2485.46 2291.93 2485.46 2306.54C2485.46 2321.15 2375.36 2383.74 2354.39 2396.89C2338.13 2406.57 2321.36 2415.31 2304.18 2423.07L2316.76 2551.28C2316.76 2551.28 2506.31 2506.11 2585.77 2460.93C2665.23 2415.76 2662.43 2364.74 2644.02 2289.01C2625.62 2213.27 2503.17 1920.56 2503.17 1920.56L2361.38 2015.17Z" stroke="#263238" stroke-linecap="round" stroke-linejoin="round"/>
<path d="M1466.15 1954.04C1466.15 1954.04 1375.62 2300.7 1372.94 2361.94C1370.26 2423.19 1552.71 2543.97 1559.35 2551.28C1565.99 2558.59 1548.98 2340.63 1548.98 2340.63L1610.85 2024.06L1466.15 1954.04Z" fill="white"/>
<g style="mix-blend-mode:multiply" opacity="0.5">
<path d="M1507.63 1982.41L1505.64 1973.04L1466.15 1954.04C1466.15 1954.04 1375.62 2300.7 1372.94 2361.94C1370.26 2423.19 1552.71 2543.97 1559.35 2551.28C1562.03 2554.2 1560.99 2521.57 1558.77 2481.27C1504.48 2433.17 1426.54 2365.47 1417.45 2336.98" fill="#E6A5E1"/>
</g>
<path d="M1466.15 1954.04C1466.15 1954.04 1375.62 2300.7 1372.94 2361.94C1370.26 2423.19 1552.71 2543.97 1559.35 2551.28C1565.99 2558.59 1548.98 2340.63 1548.98 2340.63L1610.85 2024.06L1466.15 1954.04Z" stroke="#263238" stroke-linecap="round" stroke-linejoin="round"/>
<path d="M1891.28 1605.81C1891.28 1605.81 1856.33 1632.11 1788.17 1635.03C1720.02 1637.95 1716.75 1586.33 1632.05 1586.33C1529.41 1586.33 1400.67 1925.67 1400.67 1925.67C1400.67 1925.67 1464.75 1991.3 1527.55 2018.94C1562.29 2034.85 1598.81 2046.1 1636.25 2052.43L1646.03 2275.37H2337.38L2345.65 2052.43L2561.77 1905.95C2561.77 1905.95 2455.75 1707.84 2404.25 1633.57C2352.76 1559.29 2266.2 1586.93 2239.75 1605.81C2213.3 1624.68 2134.89 1629.19 2106 1624.8C2068.31 1616.08 2031.06 1605.4 1994.39 1592.78C1994.39 1592.78 1949.88 1554.06 1891.28 1605.81Z" fill="#E6A5E1" stroke="#263238" stroke-linecap="round" stroke-linejoin="round"/>
<path d="M1643.24 1684.46L1640.44 2054.5" stroke="#263238" stroke-width="0.5" stroke-linecap="round" stroke-linejoin="round"/>
<path d="M1668.29 1718.07C1668.29 1718.07 1678.07 1898.64 1714.89 1999.22" stroke="#263238" stroke-width="0.5" stroke-linecap="round" stroke-linejoin="round"/>
<path d="M1721.3 2013.71C1729.25 2038.25 1739.03 2062.11 1750.54 2085.06" stroke="#263238" stroke-width="0.5" stroke-linecap="round" stroke-linejoin="round"/>
<path d="M1690.54 1697.62C1703.77 1763.27 1722.44 1827.6 1746.35 1889.88" stroke="#263238" stroke-width="0.5" stroke-linecap="round" stroke-linejoin="round"/>
<path d="M2291.48 1729.64C2291.48 1729.64 2258.04 1872.46 2228.68 1936.63" stroke="#263238" stroke-width="0.5" stroke-linecap="round" stroke-linejoin="round"/>
<path d="M2345.65 2053.04L2344.25 1764.58" stroke="#263238" stroke-width="0.5" stroke-linecap="round" stroke-linejoin="round"/>
<path d="M2330.39 1770.43C2330.39 1770.43 2305.23 1953.07 2243.94 2048.65" stroke="#263238" stroke-width="0.5" stroke-linecap="round" stroke-linejoin="round"/>
<path d="M2299.75 2012.25C2299.75 2012.25 2271.79 2067.65 2252.33 2096.75" stroke="#263238" stroke-width="0.5" stroke-linecap="round" stroke-linejoin="round"/>
<path d="M1852.25 1627.73C1852.25 1627.73 1871.82 1753.02 1899.67 1817.06C1927.51 1881.11 1976.33 1894.26 2018.15 1875.39C2059.98 1856.51 2090.62 1763.12 2088.06 1644.04" stroke="#263238" stroke-width="0.5" stroke-linecap="round" stroke-linejoin="round"/>
<path d="M1753.34 1365.45C1753.34 1365.45 1726.77 1317.48 1705.92 1342.2C1685.06 1366.91 1722.7 1423.78 1743.55 1442.65C1764.4 1461.52 1779.78 1449.95 1778.5 1429.62C1777.22 1409.29 1753.34 1365.45 1753.34 1365.45Z" fill="#E6A5E1" stroke="#263238" stroke-linecap="round" stroke-linejoin="round"/>
<path opacity="0.5" d="M1753.34 1365.45C1753.34 1365.45 1726.77 1317.48 1705.92 1342.2C1685.06 1366.91 1722.7 1423.78 1743.55 1442.65C1764.4 1461.52 1779.78 1449.95 1778.5 1429.62C1777.22 1409.29 1753.34 1365.45 1753.34 1365.45Z" fill="white"/>
<path d="M1753.34 1365.45C1753.34 1365.45 1726.77 1317.48 1705.92 1342.2C1685.06 1366.91 1722.7 1423.78 1743.55 1442.65C1764.4 1461.52 1779.78 1449.95 1778.5 1429.62C1777.22 1409.29 1753.34 1365.45 1753.34 1365.45Z" stroke="#263238" stroke-linecap="round" stroke-linejoin="round"/>
<path d="M2174.97 1365.45C2174.97 1365.45 2201.42 1317.48 2222.39 1342.2C2243.36 1366.91 2205.61 1423.78 2184.76 1442.65C2163.9 1461.52 2148.41 1449.95 2149.81 1429.62C2151.2 1409.29 2174.97 1365.45 2174.97 1365.45Z" fill="#E6A5E1" stroke="#263238" stroke-linecap="round" stroke-linejoin="round"/>
<path opacity="0.5" d="M2174.97 1365.45C2174.97 1365.45 2201.42 1317.48 2222.39 1342.2C2243.36 1366.91 2205.61 1423.78 2184.76 1442.65C2163.9 1461.52 2148.41 1449.95 2149.81 1429.62C2151.2 1409.29 2174.97 1365.45 2174.97 1365.45Z" fill="white"/>
<path d="M2174.97 1365.45C2174.97 1365.45 2201.42 1317.48 2222.39 1342.2C2243.36 1366.91 2205.61 1423.78 2184.76 1442.65C2163.9 1461.52 2148.41 1449.95 2149.81 1429.62C2151.2 1409.29 2174.97 1365.45 2174.97 1365.45Z" stroke="#263238" stroke-linecap="round" stroke-linejoin="round"/>
<path d="M1878.7 1595.7C1891.86 1657.87 1908.63 1719.15 1928.91 1779.2C1954.08 1844.7 2001.38 1844.7 2020.95 1802.45C2040.52 1760.2 2052.99 1602.76 2052.99 1602.76C2052.99 1602.76 1921.92 1621.88 1878.7 1595.7Z" fill="white" stroke="#263238" stroke-linecap="round" stroke-linejoin="round"/>
<path d="M1756.13 1381.52C1756.13 1381.52 1792.37 1515.46 1860.99 1594.24C1929.61 1673.02 1954.19 1691.65 1990.66 1685.93C2027.13 1680.2 2065.92 1630.65 2120.21 1527.64C2174.5 1424.63 2178.47 1345.61 2183.01 1338.3C2187.55 1330.99 2171.36 1185.37 2093.77 1122.66C2016.17 1059.95 1929.26 1032.44 1854 1100.87C1778.73 1169.3 1730.97 1280.95 1756.13 1381.52Z" fill="white"/>
<g style="mix-blend-mode:multiply" opacity="0.5">
<path d="M2093.42 1122.17C2015.36 1059.59 1928.91 1031.95 1853.65 1100.38C1778.38 1168.81 1730.97 1280.95 1756.13 1381.52C1756.13 1381.52 1763.01 1407.34 1776.64 1442.4C1776.6 1437.92 1777.19 1433.44 1778.38 1429.13C1795.05 1373.98 1844.21 1267.19 2009.65 1316.14C2141.07 1354.86 2124.99 1475.65 2112.76 1540.06L2119.86 1526.66C2174.27 1423.29 2178.12 1344.63 2182.66 1337.33C2187.2 1330.02 2171.48 1184.88 2093.42 1122.17Z" fill="#E6A5E1"/>
</g>
<path d="M1756.13 1381.52C1756.13 1381.52 1792.37 1515.46 1860.99 1594.24C1929.61 1673.02 1954.19 1691.65 1990.66 1685.93C2027.13 1680.2 2065.92 1630.65 2120.21 1527.64C2174.5 1424.63 2178.47 1345.61 2183.01 1338.3C2187.55 1330.99 2171.36 1185.37 2093.77 1122.66C2016.17 1059.95 1929.26 1032.44 1854 1100.87C1778.73 1169.3 1730.97 1280.95 1756.13 1381.52Z" stroke="#263238" stroke-linecap="round" stroke-linejoin="round"/>
<path d="M1990.31 1451.42C1985.99 1479.86 1983.65 1508.59 1983.32 1537.38C1984.72 1566.48 1993.11 1575.25 1980.52 1578.17C1967.94 1581.09 1954.08 1560.64 1954.08 1560.64" stroke="#263238" stroke-linecap="round" stroke-linejoin="round"/>
<path d="M1850.85 1474.79C1858.93 1480.89 1868.58 1484.29 1878.54 1484.55C1888.5 1484.81 1898.3 1481.92 1906.66 1476.25" stroke="#263238" stroke-linecap="round" stroke-linejoin="round"/>
<path d="M2027.94 1474.79C2036 1480.88 2045.63 1484.28 2055.57 1484.54C2065.51 1484.8 2075.29 1481.91 2083.63 1476.25" stroke="#263238" stroke-linecap="round" stroke-linejoin="round"/>
<path d="M1939.86 1425.72C1939.86 1425.72 1913.3 1357.17 1825.57 1389.2" stroke="#263238" stroke-linecap="round" stroke-linejoin="round"/>
<path d="M2012.91 1417.32C2012.91 1417.32 2035.16 1350.23 2114.62 1389.56" stroke="#263238" stroke-linecap="round" stroke-linejoin="round"/>
<path d="M1956.76 1479.78C1956.76 1517.29 1915.63 1547.61 1864.83 1547.61C1814.04 1547.61 1772.79 1517.29 1772.79 1479.78C1772.79 1442.28 1811.24 1426.7 1862.04 1426.7C1912.83 1426.7 1956.76 1442.4 1956.76 1479.78Z" stroke="#263238" stroke-linecap="round" stroke-linejoin="round"/>
<path d="M2168.68 1479.78C2168.68 1517.29 2127.44 1547.61 2076.64 1547.61C2025.84 1547.61 1984.72 1517.29 1984.72 1479.78C1984.72 1442.28 2023.05 1426.7 2073.84 1426.7C2124.64 1426.7 2168.68 1442.4 2168.68 1479.78Z" stroke="#263238" stroke-linecap="round" stroke-linejoin="round"/>
<path d="M993.951 2647.84L988.242 4123.94C988.242 4128.59 990.009 4133.05 993.156 4136.34C996.302 4139.63 1000.57 4141.48 1005.02 4141.48V4141.48C1009.36 4141.48 1013.53 4139.71 1016.64 4136.55C1019.75 4133.39 1021.56 4129.08 1021.68 4124.55L1061.99 2649.91L993.951 2647.84Z" fill="white" stroke="#263238" stroke-linecap="round" stroke-linejoin="round"/>
<path d="M898.882 2992.91L893.406 4518.93C893.39 4521.24 893.814 4523.53 894.651 4525.66C895.489 4527.8 896.724 4529.74 898.285 4531.37C899.846 4533 901.702 4534.29 903.744 4535.17C905.787 4536.04 907.975 4536.48 910.183 4536.47V4536.47C914.514 4536.47 918.678 4534.73 921.805 4531.59C924.932 4528.46 926.779 4524.19 926.96 4519.67L967.154 2994.85L898.882 2992.91Z" fill="white" stroke="#263238" stroke-linecap="round" stroke-linejoin="round"/>
<path d="M2946.59 2647.84L2952.3 4123.94C2952.31 4126.24 2951.89 4128.52 2951.06 4130.64C2950.23 4132.77 2949.01 4134.7 2947.46 4136.33C2945.91 4137.96 2944.07 4139.26 2942.04 4140.14C2940.01 4141.02 2937.84 4141.48 2935.64 4141.48V4141.48C2931.29 4141.48 2927.11 4139.72 2923.98 4136.56C2920.85 4133.4 2919.01 4129.1 2918.86 4124.55L2878.67 2649.91L2946.59 2647.84Z" fill="white" stroke="#263238" stroke-linecap="round" stroke-linejoin="round"/>
<path d="M3041.78 2992.91L3047.48 4518.93C3047.5 4521.24 3047.08 4523.53 3046.24 4525.66C3045.4 4527.8 3044.17 4529.74 3042.6 4531.37C3041.04 4533 3039.19 4534.29 3037.15 4535.17C3035.1 4536.04 3032.91 4536.48 3030.71 4536.47V4536.47C3026.39 4536.47 3022.24 4534.72 3019.13 4531.59C3016.02 4528.45 3014.2 4524.18 3014.05 4519.67L2973.74 2994.85L3041.78 2992.91Z" fill="white" stroke="#263238" stroke-linecap="round" stroke-linejoin="round"/>
<path d="M1560.87 3056.34L1557.49 4410.81C1557.12 4414.19 1558.02 4417.59 1560 4420.29C1561.97 4422.99 1564.87 4424.79 1568.09 4425.3V4425.3C1571.23 4424.85 1574.09 4423.16 1576.08 4420.58C1578.07 4418 1579.05 4414.72 1578.81 4411.42L1604.09 3057.93L1560.87 3056.34Z" fill="white" stroke="#263238" stroke-linecap="round" stroke-linejoin="round"/>
<path d="M2381.19 3012.75L2384.33 4194.81C2384.6 4197.67 2383.81 4200.53 2382.12 4202.79C2380.43 4205.06 2377.97 4206.56 2375.25 4206.98C2372.53 4206.56 2370.08 4205.05 2368.41 4202.78C2366.74 4200.51 2365.97 4197.65 2366.27 4194.81L2344.72 3013.73L2381.19 3012.75Z" fill="white" stroke="#263238" stroke-linecap="round" stroke-linejoin="round"/>
<path d="M1548.17 3012.75L1551.32 4194.81C1551.58 4197.67 1550.79 4200.53 1549.1 4202.79C1547.41 4205.06 1544.95 4206.56 1542.23 4206.98C1539.52 4206.56 1537.07 4205.05 1535.39 4202.78C1533.72 4200.51 1532.96 4197.65 1533.26 4194.81L1511.7 3013.73L1548.17 3012.75Z" fill="white" stroke="#263238" stroke-linecap="round" stroke-linejoin="round"/>
<path d="M2357.77 3056.34L2361.38 4410.81C2361.75 4414.19 2360.85 4417.59 2358.87 4420.29C2356.9 4422.99 2354 4424.79 2350.78 4425.3C2347.65 4424.82 2344.81 4423.12 2342.82 4420.55C2340.84 4417.98 2339.85 4414.72 2340.06 4411.42L2314.78 3057.93L2357.77 3056.34Z" fill="white" stroke="#263238" stroke-linecap="round" stroke-linejoin="round"/>
<path d="M1953.61 3151.2C2239.94 3151.2 2472.06 3095.75 2472.06 3027.37C2472.06 2958.98 2239.94 2903.53 1953.61 2903.53C1667.28 2903.53 1435.16 2958.98 1435.16 3027.37C1435.16 3095.75 1667.28 3151.2 1953.61 3151.2Z" fill="white" stroke="#263238" stroke-linecap="round" stroke-linejoin="round"/>
<path d="M1701.14 4078.53C1701.14 4078.53 1674 4119.19 1693.45 4139.41C1712.91 4159.62 1732.25 4151.58 1730.27 4171.92C1728.29 4192.25 1697.3 4261.17 1670.15 4334.22C1643.01 4407.28 1699.28 4480.34 1751.71 4460.13C1804.13 4439.91 1798.31 4236.82 1806 4200.29C1813.69 4163.76 1819.63 4157.67 1817.65 4123.21C1815.67 4088.75 1813.8 4052.23 1788.52 4048.09C1763.24 4043.95 1712.79 4064.4 1701.14 4078.53Z" fill="white" stroke="#263238" stroke-linecap="round" stroke-linejoin="round"/>
<path d="M1784.44 4404.11C1749.49 4390.23 1695.9 4393.03 1665.72 4396.2C1675.86 4442.1 1714.66 4474.37 1751.71 4460.12C1767.2 4454.16 1777.34 4432.48 1784.44 4404.11Z" fill="#E6A5E1" stroke="#263238" stroke-linecap="round" stroke-linejoin="round"/>
<path d="M1641.02 3989.28C1641.02 3989.28 1697.3 4088.75 1712.79 4115.05C1728.29 4141.35 1780.83 4133.32 1786.66 4096.79C1792.48 4060.26 1765.22 3958.83 1765.22 3958.83L1648.71 3989.28H1641.02Z" fill="white" stroke="#263238" stroke-linecap="round" stroke-linejoin="round"/>
<path d="M1507.04 3830.99C1507.04 3830.99 1491.43 3857.41 1499.24 3875.67C1507.04 3893.94 1528.36 3946.66 1541.99 3973.08C1555.63 3999.5 1617.72 4015.7 1689.49 4003.52C1761.26 3991.35 1802.15 3956.77 1804.13 3926.32C1806.11 3895.88 1792.48 3855.34 1782.7 3806.63C1772.91 3757.93 1747.74 3760 1712.79 3760C1677.84 3760 1536.17 3802.62 1507.04 3830.99Z" fill="#E6A5E1" stroke="#263238" stroke-linecap="round" stroke-linejoin="round"/>
<path d="M1716.75 3234.36C1717.8 3184.44 1745.41 3159.84 1747.51 3125.63C1750.8 3080.39 1747.22 3034.9 1736.91 2990.84L1683.78 2914.98C1530.93 2917.05 1421.41 2919.73 1419.66 2920.34C1413.84 2922.29 1409.88 2956.87 1406.03 2985.24C1406.03 2985.24 1341.14 2993.88 1352.79 3182.61C1354.42 3208.91 1419.9 3513.19 1424.67 3547.89C1453.8 3759.88 1518.69 3866.05 1518.69 3866.05C1518.69 3866.05 1524.52 3892.48 1600.25 3886.39C1675.98 3880.3 1751.71 3827.58 1751.71 3827.58C1751.71 3827.58 1712.79 3414.93 1716.75 3234.36Z" fill="#263238" stroke="#263238" stroke-linecap="round" stroke-linejoin="round"/>
<path d="M1395.55 2954.31C1395.55 2954.31 1315.27 2966.48 1266.11 3025.17C1216.94 3083.86 1258.65 3122.58 1354.19 3112.11C1449.72 3101.64 1559.94 2999.48 1564.6 2994C1569.26 2988.52 1464.98 2919.12 1395.55 2954.31Z" fill="white" stroke="#263238" stroke-linecap="round" stroke-linejoin="round"/>
<path d="M1538.03 2990.84C1589.18 2993.59 1639.92 3001.75 1689.49 3015.19C1755.55 3035.52 1872.06 3076.07 1899.2 3076.07C1926.35 3076.07 1918.66 2970.5 1918.66 2950.29C1918.66 2930.08 1569.14 2917.78 1526.38 2917.78C1483.62 2917.78 1538.03 2990.84 1538.03 2990.84Z" fill="white" stroke="#263238" stroke-linecap="round" stroke-linejoin="round"/>
<path d="M1918.66 2950.29C1918.66 2950.29 1887.55 2966.49 1875.9 3027.37C1864.25 3088.25 1848.75 3120.76 1872.06 3136.95C1895.36 3153.14 1996.37 3165.32 2011.86 3149.13C2027.36 3132.93 2070.12 3051.72 2077.92 2999C2085.73 2946.27 1918.66 2950.29 1918.66 2950.29Z" fill="#E6A5E1" stroke="#263238" stroke-linecap="round" stroke-linejoin="round"/>
<path d="M2050.66 2970.5C2032.6 2992.16 2018.18 3016.86 2008.02 3043.56C1999.78 3071.5 1993.28 3099.97 1988.56 3128.79C2025.73 3139.44 2062.07 3153.04 2097.26 3169.46C2159.48 3197.83 2264.33 3218.16 2365.23 3242.52C2466.12 3266.87 2493.38 3291.22 2528.33 3291.22C2563.29 3291.22 2606.04 3262.73 2660.45 3193.81C2714.86 3124.9 2668.14 2978.66 2613.85 2933.97C2559.56 2889.29 2268.18 2852.88 2229.38 2865.06C2190.58 2877.23 2050.66 2970.5 2050.66 2970.5Z" fill="#263238" stroke="#263238" stroke-linecap="round" stroke-linejoin="round"/>
<path d="M1322.03 3113.21C1314.36 3076.78 1298.82 3042.67 1276.59 3013.48C1272.98 3017.02 1269.49 3020.67 1266.11 3024.69C1222.88 3076.07 1249.91 3112.6 1322.03 3113.21Z" fill="#E6A5E1" stroke="#263238" stroke-linecap="round" stroke-linejoin="round"/>
<path d="M1710.81 3145.35C1710.81 3145.35 1670.73 3593.55 1588.95 3663.32" stroke="white" stroke-width="0.5" stroke-linecap="round" stroke-linejoin="round"/>
<path d="M1682.5 3570.78C1682.5 3570.78 1650.69 3716.9 1567.28 3774.98" stroke="white" stroke-width="0.5" stroke-linecap="round" stroke-linejoin="round"/>
<path d="M2198.27 3063.89C2198.27 3063.89 2073.96 3072.05 2155.51 3128.79C2237.07 3185.53 2384.68 3222.18 2384.68 3222.18" stroke="white" stroke-width="0.5" stroke-linecap="round" stroke-linejoin="round"/>
<path d="M3100.73 2910.35L3058.79 2870.9L2961.85 2651.73C2957.25 2641.76 2950.04 2633.37 2941.04 2627.52C2932.05 2621.68 2921.65 2618.63 2911.06 2618.74H1028.32C1017.71 2618.61 1007.28 2621.65 998.267 2627.49C989.25 2633.33 982.014 2641.74 977.407 2651.73L856.59 2924.72L836.667 2917.05V2979.51L837.6 2978.78C838.786 2987.12 842.833 2994.71 848.986 3000.16C855.139 3005.6 862.976 3008.52 871.037 3008.37H3068.22C3076.71 3008.57 3084.94 3005.32 3091.18 2999.3C3097.42 2993.28 3101.18 2984.96 3101.66 2976.1L3100.73 2910.35Z" fill="#263238" stroke="#263238" stroke-linecap="round" stroke-linejoin="round"/>
<path d="M3068.22 2951.26H871.037C865.595 2951.49 860.189 2950.27 855.323 2947.71C850.457 2945.16 846.292 2941.35 843.218 2936.66C840.144 2931.96 838.261 2926.52 837.747 2920.86C837.233 2915.19 838.104 2909.48 840.279 2904.26L977.407 2594.63C981.991 2584.62 989.222 2576.19 998.244 2570.34C1007.27 2564.5 1017.7 2561.47 1028.32 2561.63H2911.06C2921.65 2561.5 2932.06 2564.53 2941.06 2570.38C2950.06 2576.22 2957.28 2584.64 2961.85 2594.63L3098.98 2904.26C3101.15 2909.48 3102.03 2915.19 3101.51 2920.86C3101 2926.52 3099.12 2931.96 3096.04 2936.66C3092.97 2941.35 3088.8 2945.16 3083.94 2947.71C3079.07 2950.27 3073.66 2951.49 3068.22 2951.26V2951.26Z" fill="white" stroke="#263238" stroke-linecap="round" stroke-linejoin="round"/>
<g style="mix-blend-mode:multiply" opacity="0.5">
<path d="M982.3 2743.3C982.3 2743.3 932.552 2778.97 963.659 2792C994.766 2805.03 1352.32 2795.29 1395.9 2782.26C1439.47 2769.23 1489.1 2649.05 1489.1 2629.57C1489.1 2610.09 1426.42 2596.09 1403.35 2594.99C1380.28 2593.9 1075.5 2613.26 1075.5 2613.26L982.3 2743.3Z" fill="#E6A5E1"/>
</g>
<g style="mix-blend-mode:multiply" opacity="0.5">
<path d="M2760.88 2805.03C2831.27 2805.03 2888.34 2780.28 2888.34 2749.75C2888.34 2719.22 2831.27 2694.47 2760.88 2694.47C2690.49 2694.47 2633.42 2719.22 2633.42 2749.75C2633.42 2780.28 2690.49 2805.03 2760.88 2805.03Z" fill="#E6A5E1"/>
</g>
<g style="mix-blend-mode:multiply" opacity="0.5">
<path d="M1949.42 2873.34C2201.84 2873.34 2406.47 2833.32 2406.47 2783.97C2406.47 2734.61 2201.84 2694.59 1949.42 2694.59C1696.99 2694.59 1492.36 2734.61 1492.36 2783.97C1492.36 2833.32 1696.99 2873.34 1949.42 2873.34Z" fill="#E6A5E1"/>
</g>
<path d="M2667.67 2532.29C2667.67 2532.29 2659.29 2497.34 2631.44 2509.03C2603.6 2520.72 2606.39 2597.91 2611.87 2641.63C2617.34 2685.34 2655.09 2664.88 2655.09 2664.88V2638.7C2655.09 2638.7 2641.23 2650.27 2634.24 2634.32C2627.25 2618.37 2628.64 2538.13 2635.64 2539.59C2642.63 2541.05 2656.49 2565.77 2656.49 2565.77C2656.49 2565.77 2660.68 2562.97 2667.67 2532.29Z" fill="#E6A5E1" stroke="#263238" stroke-linecap="round" stroke-linejoin="round"/>
<path d="M2647.64 2538.13V2729.54C2647.64 2752.06 2697.15 2770.33 2758.32 2770.33C2819.48 2770.33 2868.88 2752.06 2868.88 2729.54V2538.13H2647.64Z" fill="#E6A5E1" stroke="#263238" stroke-linecap="round" stroke-linejoin="round"/>
<path d="M2868.88 2538.13C2868.88 2557.61 2819.37 2573.32 2758.32 2573.32C2697.27 2573.32 2647.64 2557.61 2647.64 2538.13C2647.64 2518.65 2697.15 2502.94 2758.32 2502.94C2819.48 2502.94 2868.88 2518.77 2868.88 2538.13Z" fill="white" stroke="#263238" stroke-linecap="round" stroke-linejoin="round"/>
<path d="M2854.43 2538.13C2854.43 2555.06 2811.33 2568.69 2758.32 2568.69C2705.31 2568.69 2662.08 2555.06 2662.08 2538.13C2662.08 2521.21 2705.19 2507.57 2758.32 2507.57C2811.44 2507.57 2854.43 2521.21 2854.43 2538.13Z" fill="white" stroke="#263238" stroke-linecap="round" stroke-linejoin="round"/>
<path d="M2684.1 2557.61C2732.53 2572.38 2783.99 2572.38 2832.41 2557.61C2783.99 2542.84 2732.53 2542.84 2684.1 2557.61V2557.61Z" fill="#263238" stroke="#263238" stroke-linecap="round" stroke-linejoin="round"/>
<path d="M968.552 2625.55L969.95 2691.06L1392.28 2695.45V2619.71L968.552 2625.55Z" fill="white" stroke="#263238" stroke-linecap="round" stroke-linejoin="round"/>
<path d="M1392.28 2695.44L1453.68 2557.12V2516.33L1389.49 2632.86L1392.28 2695.44Z" fill="white" stroke="#263238" stroke-linecap="round" stroke-linejoin="round"/>
<path d="M968.552 2685.22L969.95 2750.85L1392.28 2755.23V2679.49L968.552 2685.22Z" fill="white" stroke="#263238" stroke-linecap="round" stroke-linejoin="round"/>
<path d="M1392.28 2755.23L1453.68 2616.79V2576L1389.49 2692.52L1392.28 2755.23Z" fill="white" stroke="#263238" stroke-linecap="round" stroke-linejoin="round"/>
<path d="M1131.66 2459.47C1131.66 2459.47 1141.45 2439.14 1127.47 2430.37C1113.49 2421.6 1098.22 2442.55 1089.83 2449.24C1081.45 2455.94 905.872 2577.46 900.28 2596.45C894.687 2615.45 900.28 2657.33 937.911 2661.96C975.543 2666.59 1008.98 2640.17 1025.76 2635.78C1042.53 2631.4 1049.06 2629.94 1049.06 2629.94L1164.75 2466.78L1131.66 2459.47Z" fill="white" stroke="#263238" stroke-linecap="round" stroke-linejoin="round"/>
<path d="M937.911 2662.08C975.542 2666.47 1008.98 2640.29 1025.76 2635.9C1042.53 2631.52 1049.06 2630.06 1049.06 2630.06L1053.25 2624.09L944.552 2600.96C938.642 2595.14 931.044 2591.55 922.961 2590.76C914.878 2589.96 906.773 2592.01 899.93 2596.58C894.687 2615.33 900.28 2657.58 937.911 2662.08Z" fill="white" stroke="#263238" stroke-linecap="round" stroke-linejoin="round"/>
<path d="M944.901 2601.2H1271.12C1372.94 2601.2 1403.59 2595.36 1403.59 2595.36L1466.27 2459.84C1466.27 2459.84 1268.21 2472.99 1207.04 2468.6C1181.76 2467.84 1156.59 2464.91 1131.78 2459.84L944.901 2601.2Z" fill="white" stroke="#263238" stroke-linecap="round" stroke-linejoin="round"/>
<path d="M944.901 2601.2L950.494 2627.38C950.494 2627.38 1215.31 2628.84 1284.98 2628.84C1354.65 2628.84 1407.66 2631.76 1407.66 2631.76L1403.47 2595.24L944.901 2601.2Z" fill="white" stroke="#263238" stroke-linecap="round" stroke-linejoin="round"/>
<path d="M1407.66 2631.4L1466.15 2491.5V2459.47L1403.47 2594.99L1407.66 2631.4Z" fill="white" stroke="#263238" stroke-linecap="round" stroke-linejoin="round"/>
<path d="M2348.57 2795.05H1549.92C1548.15 2795.06 1546.39 2794.71 1544.75 2794.02C1543.11 2793.32 1541.62 2792.29 1540.37 2790.99C1539.11 2789.69 1538.11 2788.14 1537.43 2786.43C1536.75 2784.72 1536.4 2782.89 1536.4 2781.04C1536.4 2779.19 1536.75 2777.36 1537.43 2775.66C1538.11 2773.95 1539.11 2772.4 1540.37 2771.1C1541.62 2769.8 1543.11 2768.77 1544.75 2768.07C1546.39 2767.37 1548.15 2767.02 1549.92 2767.04H2348.57C2350.33 2767.02 2352.08 2767.38 2353.71 2768.07C2355.34 2768.77 2356.83 2769.8 2358.07 2771.11C2359.32 2772.41 2360.31 2773.96 2360.98 2775.67C2361.64 2777.37 2361.98 2779.2 2361.96 2781.04C2361.98 2782.89 2361.64 2784.71 2360.98 2786.42C2360.31 2788.13 2359.32 2789.68 2358.07 2790.98C2356.83 2792.28 2355.34 2793.31 2353.71 2794.01C2352.08 2794.71 2350.33 2795.06 2348.57 2795.05V2795.05Z" fill="white" stroke="#263238" stroke-linecap="round" stroke-linejoin="round"/>
<path d="M2355.32 2766.8H1543.04C1540.07 2766.8 1537.21 2765.62 1535.04 2763.49C1532.88 2761.36 1531.57 2758.45 1531.39 2755.35L1487.24 2200.73C1487.04 2199.01 1487.19 2197.27 1487.69 2195.62C1488.18 2193.97 1489.01 2192.45 1490.11 2191.16C1491.21 2189.87 1492.57 2188.84 1494.08 2188.14C1495.59 2187.44 1497.23 2187.08 1498.89 2187.09H2399.59C2401.25 2187.08 2402.89 2187.44 2404.4 2188.14C2405.91 2188.84 2407.27 2189.87 2408.37 2191.16C2409.47 2192.45 2410.3 2193.97 2410.79 2195.62C2411.29 2197.27 2411.44 2199.01 2411.25 2200.73L2367.09 2755.35C2366.91 2758.47 2365.59 2761.4 2363.4 2763.53C2361.21 2765.67 2358.32 2766.83 2355.32 2766.8V2766.8Z" fill="white" stroke="#263238" stroke-linecap="round" stroke-linejoin="round"/>
<path d="M2025.84 2486.5C2025.84 2519.62 1991.47 2546.41 1949.18 2546.41C1906.89 2546.41 1872.41 2519.62 1872.41 2486.5C1872.41 2453.39 1906.77 2426.72 1949.18 2426.72C1991.59 2426.72 2025.84 2453.51 2025.84 2486.5Z" fill="white" stroke="#263238" stroke-linecap="round" stroke-linejoin="round"/>
<path d="M2819.6 2053.28C2832.06 2043.12 2840.81 2028.81 2844.41 2012.73C2847.03 2000.67 2846.75 1988.12 2843.6 1976.2" stroke="#263238" stroke-linecap="round" stroke-linejoin="round"/>
<path d="M2726.63 2487.48C2726.63 2487.48 2804.1 2438.77 2778.82 2383.13C2753.54 2327.48 2668.02 2290.59 2668.02 2203.9C2668.02 2129.13 2744.1 2101.5 2793.73 2071.54" stroke="#263238" stroke-linecap="round" stroke-linejoin="round"/>
<path d="M2798.16 2485.89C2798.16 2485.89 2841.39 2455.82 2841.39 2408.09C2841.39 2376.07 2808.65 2355.12 2765.42 2303.62" stroke="#263238" stroke-linecap="round" stroke-linejoin="round"/>
<path d="M2741.54 2272.45C2741.54 2272.45 2713.23 2249.19 2734.08 2205.48" stroke="#263238" stroke-linecap="round" stroke-linejoin="round"/>
<path d="M2085.61 997.004C2099.48 993.96 2129.18 982.027 2149.22 933.445C2149.53 932.71 2149.7 931.918 2149.71 931.115C2149.73 930.313 2149.59 929.515 2149.31 928.768C2149.03 928.021 2148.61 927.34 2148.07 926.763C2147.54 926.187 2146.9 925.726 2146.19 925.409C2144.77 924.79 2143.17 924.775 2141.74 925.365C2140.3 925.956 2139.14 927.107 2138.5 928.574C2120.1 973.139 2093.77 983.001 2082.81 985.193C2102.41 960.405 2113.23 929.314 2113.46 897.16C2113.46 812.658 2038.54 744.229 1946.15 744.229C1853.76 744.229 1778.85 812.658 1778.85 897.16C1778.91 928.018 1788.75 957.986 1806.81 982.393C1789.22 981.419 1759.51 989.211 1721.88 1035.12C1720.8 1036.27 1720.2 1037.82 1720.2 1039.44C1720.2 1041.05 1720.8 1042.6 1721.88 1043.76C1722.96 1044.7 1724.32 1045.21 1725.72 1045.22C1726.57 1045.22 1727.41 1045.03 1728.17 1044.65C1728.94 1044.27 1729.62 1043.72 1730.15 1043.03C1778.27 984.463 1810.07 994.325 1816.48 997.004C1805.6 1003.26 1795.41 1010.73 1786.07 1019.29C1732.37 1069.82 1699.63 1165.4 1703.82 1245.03C1708.54 1297.85 1726.85 1348.34 1756.83 1391.14C1795.84 1361.97 1828.19 1324.13 1851.55 1280.34C1868.96 1248.18 1884.52 1214.96 1898.15 1180.86C1898.15 1216.54 1902.58 1259.64 1920.52 1290.45C1933.47 1314.78 1952.43 1335.03 1975.42 1349.08C1998.42 1363.13 2024.6 1370.47 2051.24 1370.32C2060.44 1370.46 2069.62 1369.52 2078.62 1367.52C2079.41 1367.32 2080.15 1366.94 2080.79 1366.41C2081.44 1365.89 2081.97 1365.23 2082.35 1364.48C2127.32 1374.46 2172.06 1373.61 2178.93 1363.63C2190 1347.68 2205.73 1297.87 2210.97 1236.99C2220.52 1133.74 2158.31 1044.13 2085.61 997.004ZM1931.36 1283.02C1908.76 1244.42 1909.45 1181.47 1912.13 1145.31L1913.65 1141.17C1914.72 1178.36 1923.8 1214.83 1940.19 1247.86C1956.59 1280.88 1979.89 1309.63 2008.37 1331.97C2024.1 1343.33 2041.55 1351.85 2059.98 1357.17C2031.44 1359.24 1972.72 1353.52 1931.36 1283.02V1283.02Z" fill="#263238"/>
<path d="M1933.34 1091.37C1933.34 1091.37 1923.78 1165.16 2013.49 1237.48C2103.2 1309.81 2188.25 1281.32 2188.25 1281.32" stroke="white" stroke-width="0.5" stroke-linecap="round" stroke-linejoin="round"/>
<path d="M1946.5 1067.02C1946.5 1067.02 2040.99 1210.82 2171.48 1173.31" stroke="white" stroke-width="0.5" stroke-linecap="round" stroke-linejoin="round"/>
<path d="M1899.78 1019.16C1884.88 1011.26 1868.19 1007.78 1851.53 1009.11C1834.87 1010.44 1818.87 1016.53 1805.3 1026.71C1755.08 1061.66 1729.92 1144.21 1729.92 1144.21" stroke="white" stroke-width="0.5" stroke-linecap="round" stroke-linejoin="round"/>
<path d="M1902.23 1059.22C1902.23 1059.22 1861.57 1047.9 1836.4 1074.2C1824.14 1085.82 1813.65 1099.33 1805.3 1114.26" stroke="white" stroke-width="0.5" stroke-linecap="round" stroke-linejoin="round"/>
</svg>
