<svg width="15981" height="15818" viewBox="0 0 15981 15818" fill="none" xmlns="http://www.w3.org/2000/svg">
<rect x="0.5" y="0.5" width="12954" height="12960" rx="753.5" fill="#E6A5E1" fill-opacity="0.24" stroke="#AAAAAA"/>
<path d="M5815.81 12885.4C5903.06 12856.5 6057.79 12715.3 6057.79 12715C6057.79 12714.7 5933.31 12643.1 5924.88 12639.6C5826.87 12598.6 5613.1 12576.6 5535.45 12666.5C5523.17 12681.7 5514.24 12699.4 5509.23 12718.3C5504.22 12737.2 5503.24 12756.9 5506.37 12776.3C5509.49 12795.6 5516.64 12814 5527.35 12830.4C5538.07 12846.8 5552.12 12860.8 5568.6 12871.5C5637.24 12920 5740.2 12909.6 5815.81 12885.4Z" fill="#9C9C9C"/>
<path d="M7427.33 11524.1C7429.36 11524.1 7363.34 11396.2 7358.11 11388.4C7299.94 11301.8 7133 11165.2 7018.41 11197.5C6999.52 11203.4 6982.09 11213.2 6967.25 11226.2C6952.41 11239.2 6940.48 11255.2 6932.26 11273.1C6924.03 11291 6919.68 11310.4 6919.49 11330.1C6919.31 11349.7 6923.28 11369.2 6931.16 11387.2C6962.28 11464.6 7053.89 11512.6 7130.68 11533.7C7220.83 11558.5 7427.04 11524.4 7427.33 11524.1Z" fill="#9C9C9C"/>
<path d="M6272.13 13287.2C6347.17 13238.4 6450.7 13075.2 6458.85 13062.2C6552.72 13121.2 6650.46 13173.9 6751.43 13219.9C6809.59 13247 6870.09 13272.8 6930.58 13297.6C6901.5 13290.1 6875.03 13284 6872.42 13283.4C6766.84 13269.6 6554.82 13304.5 6503.93 13411.4C6495.95 13429.4 6491.9 13448.9 6492.04 13468.6C6492.18 13488.4 6496.51 13507.8 6504.75 13525.8C6512.98 13543.7 6524.94 13559.7 6539.83 13572.7C6554.73 13585.8 6572.22 13595.5 6591.18 13601.4C6670.29 13630.3 6765.68 13592.4 6833.44 13549.1C6901.21 13505.8 6991.95 13367.5 7015.51 13330.8L7085.31 13359.7C7197.28 13403.9 7308.96 13446.3 7417.44 13493.7C7455.54 13509.8 7492.47 13527.5 7529.7 13544.5C7503.53 13538.1 7481.71 13532.9 7478.22 13532.7C7372.65 13518.8 7160.92 13553.7 7109.74 13660.6C7101.76 13678.6 7097.71 13698.1 7097.85 13717.8C7098 13737.5 7102.33 13756.9 7110.57 13774.8C7118.81 13792.8 7130.76 13808.7 7145.66 13821.7C7160.55 13834.8 7178.04 13844.5 7196.99 13850.3C7276.38 13879.2 7372.94 13841.4 7439.25 13798C7505.56 13754.7 7588.74 13630 7617.24 13586.7C7654.47 13605.4 7691.99 13624.2 7727.47 13644.4C7751.32 13658.6 7775.46 13670.4 7798.72 13686L7867.94 13730.2C7910.69 13759.1 7955.19 13790.2 7996.49 13820.3C8025.57 13841.1 8052.33 13861.3 8079.67 13881.5C8041.86 13865 7967.12 13833.9 7960.43 13832.1C7858.34 13803.2 7643.42 13805.3 7576.82 13903.2C7566.15 13919.7 7559.12 13938.3 7556.19 13957.8C7553.26 13977.2 7554.5 13997.1 7559.82 14016C7565.15 14035 7574.44 14052.6 7587.09 14067.7C7599.74 14082.9 7615.47 14095.2 7633.24 14103.9C7707.11 14143.4 7807.74 14121.5 7880.74 14088.6C7960.14 14052.5 8084.32 13913 8098.28 13895.4C8143.36 13929.1 8186.99 13962.4 8227.41 13994.4C8345.49 14087.1 8443.79 14170.6 8518.25 14235.8L8576.41 14183.3C8498.47 14118 8394.35 14033.1 8269 13939C8223.34 13904.6 8173.9 13868.5 8123.59 13832.1C8150.43 13778.8 8174.12 13723.9 8194.55 13667.8C8283.84 13676.8 8451.94 13630.8 8473.75 13624.8C8492.65 13677.6 8510.4 13729.3 8526.39 13778.1C8572.34 13917.6 8607.53 14038 8633.42 14133.6L8698.57 14075.8C8671.52 13986.6 8636.62 13877.7 8593.28 13755C8574.38 13701.3 8553.15 13644.4 8530.46 13586.1C8550.53 13574.8 8712.23 13481.3 8763.13 13410.8C8809.37 13346.7 8850.38 13252.2 8825.37 13172.3C8820.09 13153.3 8810.87 13135.7 8798.31 13120.6C8785.75 13105.4 8770.12 13093 8752.45 13084.2C8734.77 13075.4 8715.43 13070.4 8695.67 13069.5C8675.92 13068.6 8656.2 13071.8 8637.78 13079C8528.14 13125.5 8484.51 13334.3 8494.11 13439.4C8494.11 13445.7 8508.65 13512.4 8517.96 13554.9C8508.65 13530.9 8499.93 13507.8 8488.87 13483.6C8469.68 13435 8449.03 13387.4 8427.22 13336C8415.58 13311.4 8404.24 13286.9 8392.32 13262.1C8380.39 13237.2 8366.43 13212.1 8353.34 13186.7C8322.23 13128.9 8287.62 13071.2 8251.26 13013.4C8294.01 12996.7 8444.38 12934.9 8500.22 12878.3C8556.06 12821.7 8610.73 12733.9 8597.94 12652.2C8595.69 12632.6 8589.32 12613.8 8579.26 12596.9C8569.19 12580 8555.65 12565.4 8539.51 12554C8523.38 12542.7 8505.01 12534.8 8485.61 12531C8466.21 12527.1 8446.22 12527.4 8426.93 12531.7C8310.59 12560.6 8236.43 12761 8230.03 12866.4C8230.03 12872.8 8233.52 12949 8236.43 12990.9C8214.33 12956.8 8192.51 12922.7 8169.25 12889C8101.77 12791.6 8030.23 12695.2 7959.56 12598.7C7937.74 12569.9 7916.51 12539.5 7895.28 12509.8C7910.4 12504 8090.72 12434.4 8153.25 12371.2C8208.8 12313.4 8263.77 12226.8 8251.26 12144.8C8248.98 12125.2 8242.58 12106.4 8232.48 12089.5C8222.38 12072.6 8208.81 12058 8192.66 12046.6C8176.5 12035.3 8158.11 12027.4 8138.7 12023.6C8119.28 12019.7 8099.27 12020 8079.96 12024.4C7963.63 12053.2 7889.46 12253.6 7883.07 12359C7883.07 12367.1 7888.3 12476.6 7891.21 12503.4C7844.09 12437.9 7797.85 12372.3 7754.81 12305.9C7696.12 12216.6 7643.46 12123.5 7597.17 12027.2C7604.15 12024.6 7792.62 11952.7 7856.6 11887.8C7912.15 11830 7967.12 11743.4 7954.61 11661.6C7952.36 11642.1 7946 11623.3 7935.93 11606.4C7925.87 11589.5 7912.32 11574.9 7896.19 11563.5C7880.05 11552.2 7861.69 11544.3 7842.29 11540.5C7822.89 11536.6 7802.89 11536.9 7783.6 11541.2C7667.27 11570.1 7593.1 11770.5 7586.7 11875.9C7586.7 11882.8 7590.49 11966.3 7593.39 12005.9L7587 12007.6C7542.75 11909.6 7507.51 11807.8 7481.71 11703.5C7466.88 11645.8 7455.83 11590.6 7446.23 11536.6C7482.59 11526.8 7649.82 11480.3 7713.22 11428C7776.62 11375.8 7838.86 11297.2 7835.66 11213.7C7835.5 11194.1 7831.18 11174.7 7822.99 11156.8C7814.8 11138.9 7802.92 11122.9 7788.11 11109.9C7773.31 11096.9 7755.91 11087.1 7737.05 11081.1C7718.18 11075.2 7698.28 11073.2 7678.61 11075.4C7560.82 11091.9 7463.97 11282.5 7445.94 11386.7C7445.94 11392.2 7441.29 11450.8 7439.25 11493.6C7435.47 11469 7430.82 11443.9 7427.62 11420.2C7415.11 11331.6 7409 11249.8 7404.06 11177.4C7401.73 11136.1 7400.57 11098.5 7399.7 11063.6C7430.24 11034.7 7552.97 10919.2 7584.96 10846.1C7616.95 10773.1 7635.86 10672.9 7594.27 10600.1C7585.06 10582.7 7572.25 10567.4 7556.7 10555.2C7541.14 10543 7523.17 10534.2 7503.96 10529.4C7484.76 10524.6 7464.74 10523.8 7445.22 10527.2C7425.71 10530.6 7407.12 10538 7390.68 10549C7293.54 10617.7 7296.16 10831.1 7328.44 10931.9C7331.35 10940.6 7390.39 11071.7 7392.14 11070.2L7393.88 11068.5C7393.88 11102 7393.88 11138.1 7396.21 11177.6C7399.41 11250.4 7403.48 11332.7 7414.24 11422C7424.73 11518.1 7440.85 11613.6 7462.52 11707.8C7486.26 11813.7 7519.55 11917.2 7561.98 12017.1L7563.73 12020.6C7541.04 11994.3 7475.02 11923 7469.21 11918.1C7388.94 11848.8 7192.62 11761.9 7091.12 11823.1C7074.46 11833.7 7060.23 11847.7 7049.38 11864.1C7038.52 11880.5 7031.28 11899.1 7028.12 11918.5C7024.97 11937.9 7025.97 11957.7 7031.06 11976.7C7036.15 11995.7 7045.22 12013.4 7057.68 12028.7C7108.28 12095.4 7209.2 12117.6 7288.89 12117.9C7378.47 12117.9 7555.29 12038.5 7569.55 12031.3C7615.09 12132 7667.37 12229.5 7726.01 12323.2C7759.75 12377.8 7795.52 12432.1 7832.17 12485.8C7811.81 12463.9 7793.49 12444.2 7790.58 12441.6C7710.31 12372.6 7514 12285.4 7412.49 12346.6C7395.83 12357.2 7381.61 12371.2 7370.75 12387.7C7359.89 12404.1 7352.65 12422.6 7349.5 12442C7346.34 12461.4 7347.34 12481.3 7352.43 12500.3C7357.52 12519.3 7366.59 12537 7379.05 12552.2C7429.36 12619.2 7530.57 12641.2 7610.26 12641.5C7689.95 12641.8 7842.93 12576.8 7883.07 12559.2C7897.32 12579.7 7912.15 12600.5 7925.82 12621C7994.46 12718.9 8063.38 12816.8 8129.4 12914.4C8152.38 12949 8173.61 12983.7 8194.84 13018.3C8176.81 12998.7 8161.39 12982.5 8158.78 12980.2C8078.51 12910.9 7882.19 12824 7780.69 12885.2C7764.05 12895.8 7749.85 12909.8 7739.02 12926.3C7728.19 12942.7 7720.98 12961.3 7717.85 12980.7C7714.72 13000.1 7715.75 13019.9 7720.87 13038.9C7725.98 13057.9 7735.07 13075.6 7747.54 13090.8C7797.85 13157.5 7899.06 13179.8 7978.46 13180.1C8057.86 13180.3 8196.59 13122.3 8244.28 13100.9C8265.22 13137 8286.16 13173.1 8304.48 13209.2C8316.7 13234.1 8330.08 13257.2 8340.55 13282.9C8351.02 13308.6 8362.94 13333.1 8373.7 13357.7C8393.19 13406.2 8413.26 13455.8 8431.87 13503.5C8444.38 13536.4 8455.72 13568.2 8467.06 13599.9C8444.96 13565.3 8399.59 13498.6 8395.23 13493.4C8331.85 13424.7 8251.72 13373.4 8162.56 13344.4C8155.93 13336.3 8148.53 13329 8140.45 13322.4C8125.57 13309.5 8108.11 13299.8 8089.21 13294C8070.31 13288.2 8050.4 13286.4 8030.76 13288.8C8011.13 13291.1 7992.21 13297.5 7975.23 13307.6C7958.25 13317.7 7943.6 13331.2 7932.22 13347.3C7866.49 13446 7946.18 13644.1 8012.78 13726.7C8016.56 13731.6 8065.13 13779.6 8096.25 13809.3L8030.52 13766.9C7987.77 13738 7943.27 13709.1 7897.32 13677.6L7827.23 13634.9C7803.96 13620.2 7777.78 13607.4 7752.77 13593.6C7694.6 13562.4 7633.82 13533.5 7572.16 13507C7598.34 13469.7 7688.5 13336 7704.49 13258C7720.49 13180.1 7716.71 13077.8 7660.58 13015.7C7647.82 13000.7 7632.03 12988.5 7614.23 12980C7596.42 12971.4 7577 12966.6 7557.22 12966C7537.45 12965.4 7517.76 12968.9 7499.44 12976.3C7481.12 12983.7 7464.58 12994.9 7450.89 13009.1C7370.91 13095.7 7419.48 13304.5 7472.41 13396.1C7475.9 13401.8 7521.27 13463.1 7547.15 13496.3C7509.92 13480.1 7472.7 13463.6 7434.6 13448.3C7324.08 13404.1 7210.95 13361.7 7098.39 13321C7063.78 13308.3 7029.47 13295 6995.15 13282C7004.74 13269 7116.43 13112.2 7133.29 13025C7148.42 12947.6 7145.8 12844.8 7089.38 12782.7C7076.63 12767.7 7060.83 12755.5 7043.03 12746.9C7025.22 12738.3 7005.8 12733.6 6986.02 12733C6966.25 12732.3 6946.56 12735.9 6928.24 12743.3C6909.92 12750.7 6893.38 12761.9 6879.69 12776C6799.71 12862.7 6848.28 13071.5 6901.5 13163C6905.28 13169.9 6971.01 13258 6988.75 13278.5C6913.13 13249.6 6838.1 13220.8 6765.1 13188.7C6666.55 13146.3 6570.95 13097.5 6478.92 13042.6C6483.28 13036.5 6600.78 12873.4 6617.93 12784.1C6632.77 12706.7 6630.15 12603.9 6574.02 12541.8C6561.27 12526.8 6545.47 12514.6 6527.67 12506.1C6509.86 12497.5 6490.44 12492.8 6470.66 12492.1C6450.89 12491.5 6431.2 12495 6412.88 12502.4C6394.56 12509.9 6378.02 12521 6364.33 12535.2C6284.35 12621.8 6332.92 12830.6 6385.85 12922.2C6389.34 12928.2 6439.36 12995.5 6464.08 13027L6459.43 13031.9C6368.2 12974.3 6282.35 12908.7 6202.91 12835.8C6158.42 12796.3 6118.28 12756.1 6080.18 12716C6105.19 12687.1 6218.04 12558 6242.76 12479.2C6267.48 12400.3 6274.75 12301.3 6225.89 12233.7C6214.8 12217.4 6200.39 12203.7 6183.59 12193.3C6166.8 12182.9 6147.99 12176.1 6128.39 12173.3C6108.78 12170.6 6088.82 12172 6069.8 12177.4C6050.77 12182.9 6033.11 12192.2 6017.94 12204.8C5928.95 12283.4 5954.25 12495.4 5996.71 12592.1C5999.04 12597.3 6028.7 12648.1 6050.81 12684.8C6033.94 12666.6 6016.2 12648.1 6000.2 12630.2C5942.04 12563.2 5889.98 12498.2 5845.77 12440.2C5820.76 12407 5798.94 12376.7 5778.59 12348.1C5788.77 12307.6 5827.16 12144.5 5812.61 12065.1C5798.07 11985.7 5758.52 11891.8 5683.48 11854.8C5666.16 11845.4 5647.03 11839.7 5627.33 11838C5607.63 11836.4 5587.81 11838.9 5569.16 11845.4C5550.5 11851.9 5533.43 11862.2 5519.05 11875.7C5504.67 11889.1 5493.32 11905.5 5485.72 11923.6C5442.96 12033.9 5563.66 12210.3 5646.26 12276.7C5653.53 12282.5 5775.68 12359.3 5776.26 12357.3C5776.32 12356.5 5776.32 12355.6 5776.26 12354.7C5795.16 12383.6 5815.81 12412.5 5838.79 12444.8C5881.83 12502.6 5931.27 12570.1 5989.73 12638.6C6051.99 12713.1 6118.51 12783.9 6188.95 12850.8C6267.63 12925.5 6352.79 12993.2 6443.43 13053L6446.92 13055C6413.48 13045.5 6318.67 13022.1 6311.1 13021.2C6205.53 13007.4 5993.8 13042.3 5942.62 13149.2C5934.64 13167.2 5930.59 13186.7 5930.73 13206.4C5930.87 13226.1 5935.2 13245.6 5943.44 13263.5C5951.67 13281.5 5963.63 13297.5 5978.52 13310.5C5993.41 13323.5 6010.91 13333.3 6029.87 13339.2C6109.27 13367.5 6205.82 13330.8 6272.13 13287.2Z" fill="#9C9C9C"/>
<path d="M11713.4 5961.4C11775.6 6064.78 11999.8 6216.39 12000.1 6216.39C12000.4 6216.39 12056 6039.37 12058.3 6027.53C12082.1 5892.67 12048.4 5617.75 11912.9 5546.13C11889.8 5534.85 11864.7 5528.51 11839 5527.53C11813.4 5526.54 11787.8 5530.93 11763.9 5540.41C11740.1 5549.89 11718.5 5564.25 11700.6 5582.55C11682.8 5600.85 11669 5622.68 11660.1 5646.63C11618 5747.12 11660.4 5873.61 11713.4 5961.4Z" fill="#9C9C9C"/>
<path d="M13912.4 7594.13C13912.4 7596.72 14057.8 7476.88 14065.6 7468.22C14160.7 7368.59 14285.2 7121.68 14211 6986.24C14198.1 6964.21 14180.6 6945.13 14159.8 6930.25C14138.9 6915.37 14115.1 6905.02 14090 6899.87C14064.8 6894.72 14038.8 6894.89 14013.7 6900.37C13988.7 6905.85 13965 6916.51 13944.4 6931.66C13854.5 6993.17 13819.9 7121.97 13814.9 7224.2C13809.4 7344.33 13912.4 7593.84 13912.4 7594.13Z" fill="#9C9C9C"/>
<path d="M11332.7 6650.65C11416.7 6730.65 11654.6 6813.81 11673.5 6820.17C11625.5 6955.19 11586.7 7093.25 11557.2 7233.41C11539.4 7314.85 11524 7397.73 11509.8 7480.9C11509.8 7441.91 11509.8 7406.97 11509.8 7402.06C11497 7265.76 11391.4 7009.32 11240.5 6976.11C11215.2 6971.23 11189.3 6971.69 11164.2 6977.45C11139.2 6983.21 11115.6 6994.14 11095.2 7009.53C11074.7 7024.93 11057.7 7044.44 11045.3 7066.79C11032.9 7089.14 11025.3 7113.84 11023.2 7139.27C11010.4 7246.99 11085.4 7357.88 11159.9 7428.05C11234.4 7498.22 11436.8 7575.04 11490.3 7594.1C11485.1 7625.87 11479.5 7657.92 11474.6 7689.69C11450.4 7843.03 11427.2 7996.08 11399.5 8145.67C11389.9 8198.23 11378.3 8249.92 11367 8301.61C11367 8266.96 11367 8237.79 11367 8233.46C11354.2 8096.87 11248.6 7840.72 11097.7 7807.22C11072.4 7802.39 11046.5 7802.89 11021.4 7808.69C10996.4 7814.48 10972.9 7825.45 10952.4 7840.87C10932 7856.29 10915 7875.82 10902.6 7898.18C10890.3 7920.55 10882.8 7945.24 10880.7 7970.67C10867.9 8078.1 10942.6 8188.99 11017.1 8259.45C11091.6 8329.91 11274.5 8398.64 11337 8421.75C11323.9 8474.3 11310.8 8526.86 11295.7 8577.11C11284.4 8611.19 11276.2 8644.68 11263.1 8678.47L11226.5 8778.1C11201.2 8840.48 11175.3 8905.16 11148.8 8965.81C11130.8 9007.68 11112.8 9047.53 11094.8 9087.67C11104.9 9035.4 11123.8 8932.6 11123.8 8923.94C11132 8787.05 11065.7 8517.91 10922.6 8461.89C10898.4 8453.27 10872.6 8449.82 10847 8451.76C10821.3 8453.7 10796.4 8460.98 10773.8 8473.14C10751.2 8485.29 10731.4 8502.04 10715.7 8522.29C10700.1 8542.55 10688.9 8565.85 10682.9 8590.68C10653.8 8694.93 10712 8815.93 10773.7 8897.08C10842.9 8986.6 11056.1 9100.96 11082.8 9115.11C11053.7 9181.24 11022.9 9245.64 10993.8 9305.7C10909.5 9480.99 10831.5 9628.27 10769.9 9741.19L10853.9 9800.67C10915 9685.16 10993 9528.93 11076.7 9344.11C11107.5 9276.83 11139.2 9204.34 11170.9 9129.55C11246.6 9148.11 11323.3 9162.09 11400.7 9171.42C11415.3 9286.93 11522 9484.46 11535.9 9509.87C11474 9548.86 11413.5 9586.11 11355.6 9620.19C11191.3 9718.37 11046.8 9797.5 10933.6 9857.27L11025.2 9922.25C11131.4 9862.76 11259.9 9787.68 11403.3 9697.87C11466.4 9658.59 11533 9615.28 11600.8 9570.23C11620.9 9592.17 11786.6 9768.33 11891.6 9812.23C11986.7 9851.79 12118.8 9876.33 12213.3 9821.76C12236 9809.76 12255.8 9793.16 12271.6 9773.02C12287.4 9752.89 12298.7 9729.67 12304.8 9704.9C12310.9 9680.13 12311.7 9654.35 12307.1 9629.25C12302.5 9604.15 12292.7 9580.3 12278.2 9559.25C12187.4 9434.79 11908.8 9440.28 11777.3 9482.73C11769.8 9485.33 11688.6 9521.71 11638 9545.68C11665.7 9527.2 11692.7 9509.29 11720.9 9489.95C11777 9451.83 11832 9412.26 11891.1 9370.1L11975.4 9305.13C12004.5 9283.76 12031.5 9258.05 12060 9234.37C12124.9 9178.35 12188 9118.86 12249.9 9056.49C12283.7 9105 12405.8 9276.25 12494 9329.96C12582.1 9383.67 12708.9 9427.57 12810.4 9387.72C12834.6 9379.26 12856.8 9365.83 12875.5 9348.3C12894.2 9330.77 12908.9 9309.53 12918.7 9285.96C12928.6 9262.39 12933.3 9237.03 12932.7 9211.52C12932 9186.02 12925.9 9160.94 12914.8 9137.92C12844.1 9001.33 12567.5 8964.65 12431.4 8986.89C12423 8988.33 12327 9015.77 12274.7 9030.78C12311.6 8993.53 12348.8 8956.28 12384.9 8917C12489.6 8804.38 12592 8685.98 12694.3 8570.47C12725.8 8534.66 12757.7 8499.43 12789.2 8464.2C12801.1 8481.52 12941.6 8688 13040.4 8748.36C13127.7 8801.78 13255.4 8845.96 13357.2 8806.11C13381.4 8797.63 13403.5 8784.18 13422.2 8766.63C13440.8 8749.09 13455.5 8727.84 13465.3 8704.28C13475.2 8680.71 13479.9 8655.36 13479.2 8629.87C13478.5 8604.38 13472.4 8579.32 13461.3 8556.32C13390.6 8419.72 13114 8383.05 12977.9 8405.29C12967.7 8406.73 12829.6 8445.71 12795 8457.27C12864.8 8379.29 12934.9 8302.19 13007.3 8228.84C13104.4 8129.5 13207.8 8036.51 13317 7950.46C13322.5 7958.54 13468.3 8174.84 13569.5 8236.64C13656.7 8290.06 13784.4 8333.96 13886.2 8294.39C13910.4 8285.91 13932.6 8272.46 13951.2 8254.91C13969.8 8237.37 13984.5 8216.12 13994.4 8192.56C14004.2 8168.99 14008.9 8143.64 14008.2 8118.15C14007.5 8092.66 14001.4 8067.6 13990.3 8044.6C13919.6 7908 13643 7871.33 13506.9 7893.85C13497.9 7893.85 13392.9 7924.75 13343.2 7939.77L13339.1 7931.97C13451.5 7848.34 13571.1 7774.79 13696.6 7712.21C13765.2 7676.98 13832.7 7647.24 13900.1 7619.51C13923.1 7662.54 14030.4 7858.05 14115.4 7923.6C14200.3 7989.15 14318.9 8044.02 14423.6 8015.72C14448.6 8009.93 14472.1 7998.98 14492.6 7983.59C14513.1 7968.19 14530 7948.69 14542.4 7926.36C14554.8 7904.02 14562.3 7879.35 14564.4 7853.95C14566.5 7828.55 14563.3 7802.98 14554.8 7778.92C14499.6 7634.53 14229.1 7568.69 14091.2 7576.77C14083.7 7576.77 14007.8 7589.77 13952.8 7599.3C13981.9 7587.46 14013.9 7574.46 14042.9 7563.49C14152.3 7522.19 14254.7 7491.01 14346 7464.15C14397.8 7449.13 14445.2 7435.27 14489.4 7425.45C14534.2 7456.06 14715.9 7577.06 14820.1 7595.83C14924.2 7614.6 15055.9 7609.98 15136.2 7536.63C15155.7 7520.05 15171.5 7499.57 15182.5 7476.53C15193.5 7453.49 15199.5 7428.4 15200.1 7402.9C15200.7 7377.4 15195.9 7352.06 15186 7328.53C15176.1 7305 15161.3 7283.81 15142.6 7266.33C15026.3 7164.39 14756.1 7229.08 14637.1 7298.39C14626.6 7304.45 14476.9 7416.79 14479.2 7418.52L14481.8 7420.25C14439.1 7430.07 14393.1 7441.34 14343.1 7454.33C14251.5 7479.45 14147.6 7508.62 14037.1 7547.61C13917.5 7588.99 13800.4 7637.2 13686.4 7692C13558.4 7752.41 13436.1 7823.92 13320.8 7905.69L13317 7908.87C13343.8 7872.77 13415.9 7769.39 13420.6 7760.73C13485.7 7639.73 13540.1 7368.27 13432.8 7257.67C13414.4 7239.87 13392.4 7226.1 13368.3 7217.25C13344.2 7208.41 13318.6 7204.68 13292.9 7206.31C13267.3 7207.95 13242.3 7214.9 13219.5 7226.74C13196.8 7238.57 13176.8 7255.01 13160.8 7275C13090.5 7357.88 13091.3 7491.29 13114 7591.21C13139.6 7703.84 13291.7 7903.38 13303.9 7919.27C13188.8 8005.51 13079.6 8099.28 12977 8199.96C12916.8 8257.72 12858.4 8318.94 12800.2 8380.45C12822.6 8348.4 12842.1 8319.52 12844.4 8315.19C12909.6 8194.48 12963.9 7922.73 12856.6 7812.42C12838.3 7794.54 12816.4 7780.7 12792.3 7771.81C12768.2 7762.91 12742.5 7759.16 12716.9 7760.79C12691.3 7762.43 12666.3 7769.42 12643.5 7781.3C12620.8 7793.18 12600.9 7809.69 12585 7829.75C12514.3 7912.34 12515.2 8045.75 12537.9 8145.67C12560.6 8245.59 12687.4 8420.01 12721.4 8465.06L12655.1 8536.39C12549.8 8651.9 12445.4 8765.97 12339.2 8875.42C12302 8914.12 12263.6 8950.79 12225.5 8987.76C12245.3 8958.88 12261.9 8935.2 12263.9 8930C12329.1 8809.29 12383.4 8537.55 12276.1 8427.23C12257.8 8409.37 12235.8 8395.55 12211.8 8386.65C12187.7 8377.76 12162 8373.99 12136.3 8375.6C12110.7 8377.2 12085.7 8384.15 12062.9 8395.98C12040.1 8407.81 12020.1 8424.26 12004.2 8444.27C11933.8 8527.15 11934.7 8660.57 11957.4 8760.49C11980.1 8860.4 12094.3 9017.79 12134.8 9071.79C12094.6 9108.18 12054.5 9144.85 12013.8 9178.64C11984.7 9200.88 11960 9224.27 11930.3 9245.35L11844.5 9308.3C11788.7 9346.71 11731.1 9386.27 11675.5 9422.37C11636.9 9447.49 11599.9 9470.89 11562.4 9494.57C11600.2 9456.45 11672.3 9380.5 11678.7 9373.57C11747.9 9274.37 11790.4 9159.25 11802.1 9039.16C11810.3 9028.48 11817.5 9017.08 11823.6 9005.08C11835.8 8982.62 11843.1 8957.87 11845 8932.42C11846.9 8906.98 11843.5 8881.42 11834.8 8857.4C11826.1 8833.38 11812.5 8811.44 11794.7 8793C11776.9 8774.56 11755.5 8760.04 11731.7 8750.38C11586.3 8696.38 11357.4 8853.47 11271.6 8960.9C11266.3 8967.25 11219.2 9042.05 11190.1 9089.7C11202.9 9059.08 11215.7 9029.63 11228.5 8997.86C11254.1 8935.49 11278 8872.53 11303.6 8804.67C11314.9 8771.46 11326.5 8737.96 11337.9 8704.17C11349.2 8670.39 11358.5 8634.29 11369.3 8599.06C11392.3 8516.47 11411.5 8432.14 11428.9 8346.37C11483.9 8368.61 11680.8 8444.56 11784.3 8441.09C11887.9 8437.63 12017 8404.71 12080.7 8316.05C12096.2 8295.7 12107.2 8272.34 12113 8247.49C12118.7 8222.64 12119.2 8196.86 12114.3 8171.82C12109.4 8146.79 12099.2 8123.06 12084.4 8102.19C12069.7 8081.31 12050.7 8063.75 12028.6 8050.66C11894 7975.29 11643 8096.29 11541.8 8189.28C11535.4 8195.34 11470.2 8270.14 11435.3 8312.01C11445.2 8260.61 11455.7 8209.2 11464.4 8156.64C11488.8 8005.03 11508.9 7851.11 11529.8 7697.48C11535.9 7650.41 11542.9 7603.63 11549.6 7556.85C11569.1 7564.93 11801.2 7660.23 11917.2 7656.19C12020.2 7652.72 12149.9 7619.8 12213.3 7531.15C12228.8 7510.81 12239.8 7487.47 12245.6 7462.63C12251.4 7437.79 12251.9 7412.02 12247 7386.99C12242.1 7361.95 12232 7338.22 12217.3 7317.33C12202.5 7296.45 12183.6 7278.87 12161.5 7265.76C12026.6 7190.67 11775.6 7311.38 11674.4 7404.66C11666.8 7411.59 11573.2 7520.17 11550.8 7549.05C11565.6 7445.96 11579.9 7343.15 11600.8 7242.37C11626.9 7106.19 11661.8 6971.82 11705.2 6840.09C11714.2 6843.85 11955.9 6944.63 12074.9 6940.59C12177.8 6936.83 12307.5 6904.2 12370.9 6815.55C12386.4 6795.19 12397.5 6771.82 12403.3 6746.96C12409.1 6722.1 12409.6 6696.31 12404.7 6671.25C12399.8 6646.2 12389.7 6622.44 12374.9 6601.53C12360.2 6580.61 12341.2 6563.01 12319.2 6549.87C12184.2 6474.79 11933.5 6595.5 11832 6688.77C11825.3 6694.84 11754.1 6777.14 11720.9 6816.99L11713.4 6812.66C11760 6681.44 11818.4 6554.64 11887.9 6433.78C11925.7 6366.78 11965.2 6304.69 12004.2 6245.2C12047.2 6268.6 12245.3 6372.85 12353.2 6381.22C12456.1 6388.73 12589.1 6370.25 12661.5 6289.1C12679.1 6270.56 12692.6 6248.54 12701.1 6224.48C12709.6 6200.41 12712.9 6174.84 12710.8 6149.42C12708.7 6124.01 12701.2 6099.32 12688.9 6076.96C12676.5 6054.61 12659.5 6035.08 12639.1 6019.67C12513.4 5930.15 12250.8 6022.84 12139.7 6104.57C12133.9 6108.9 12077.5 6160.59 12037.1 6199C12055.4 6172.43 12074 6144.71 12092.3 6119.59C12160.4 6025.44 12228.7 5943.14 12289.5 5870.66C12324.7 5829.94 12357.3 5793.55 12387.8 5760.05C12442.2 5760.05 12661.2 5762.36 12758.3 5721.07C12855.5 5679.77 12961.9 5603.53 12989.2 5498.42C12996.3 5473.85 12998.1 5448.08 12994.4 5422.79C12990.8 5397.5 12981.8 5373.25 12968.1 5351.64C12954.4 5330.03 12936.2 5311.53 12914.8 5297.36C12893.4 5283.2 12869.2 5273.67 12843.8 5269.41C12690.9 5247.47 12500.6 5450.19 12439.9 5573.21C12434.6 5583.9 12372.1 5759.76 12374.7 5759.76H12378.2C12349.1 5791.53 12315.7 5825.9 12281.4 5864.3C12218.8 5935.34 12148.4 6016.49 12077.8 6109.48C12000.7 6209.16 11929.5 6313.2 11864.6 6421.07C11791.5 6541.56 11729.3 6668.25 11678.7 6799.66L11677 6804.57C11679.6 6759.52 11681.9 6633.9 11681.1 6624.09C11668.3 6487.49 11562.7 6231.34 11411.8 6198.13C11386.6 6193.3 11360.6 6193.79 11335.6 6199.57C11310.6 6205.35 11287.1 6216.3 11266.6 6231.68C11246.2 6247.07 11229.2 6266.57 11216.8 6288.9C11204.5 6311.23 11196.9 6335.89 11194.8 6361.29C11183.5 6469.01 11258.2 6579.9 11332.7 6650.65Z" fill="#9C9C9C"/>
<path d="M13091.6 11734.1V11637.4C13091.6 11139.2 13726.8 11117.6 13726.8 10762.9C13726.8 10609 13600.6 10508.5 13412.7 10508.5C13207.1 10508.5 13077.1 10619.7 13077.1 10777.4V10816.9C13077.1 10856.2 13055.6 10874.7 13015.7 10874.7L12629.8 10860.2C12593.7 10860.2 12568.4 10842.3 12568.4 10817.5V10777.9C12568.4 10344.8 12914.8 10047 13423.8 10047C13921.7 10047 14242.7 10326.6 14242.7 10745.6C14242.7 11340.5 13596.8 11344.2 13596.8 11669.7V11734.1C13597.8 11742.3 13596.9 11750.7 13594.1 11758.5C13591.4 11766.4 13586.9 11773.5 13581 11779.3C13575.1 11785.2 13567.9 11789.7 13560 11792.4C13552.1 11795.1 13543.7 11796 13535.4 11795H13153C13144.7 11796 13136.3 11795.1 13128.4 11792.4C13120.5 11789.7 13113.3 11785.2 13107.4 11779.3C13101.5 11773.5 13097 11766.4 13094.3 11758.5C13091.6 11750.7 13090.6 11742.3 13091.6 11734.1V11734.1ZM13059 12311.7C13059 12154 13199.8 12024.9 13369.4 12024.9C13531.9 12024.9 13676.2 12154 13676.2 12311.7C13676.2 12469.3 13530.8 12598.4 13365.9 12598.4C13201 12598.4 13059 12468.8 13059 12311.1V12311.7Z" fill="#263238"/>
<path d="M5465.94 7630.54V7546.51C5465.94 7113.34 6018.52 7095.15 6018.52 6787.02C6018.52 6653.02 5908.88 6566.1 5746.01 6566.1C5567.15 6566.1 5455.18 6662.55 5455.18 6799.44V6833.8C5455.18 6867.88 5436.56 6883.47 5401.95 6883.47L5066.62 6871.05C5035.21 6871.05 5013.4 6855.46 5013.4 6833.8V6799.44C5013.4 6424.02 5314.12 6164.12 5756.19 6164.12C6188.66 6164.12 6467.86 6406.98 6467.86 6770.56C6467.86 7287.18 5906.55 7290.36 5906.55 7573.65V7629.68C5907.39 7636.82 5906.59 7644.05 5904.21 7650.85C5901.83 7657.64 5897.94 7663.8 5892.82 7668.89C5887.7 7673.97 5881.49 7677.84 5874.65 7680.2C5867.81 7682.56 5860.52 7683.36 5853.33 7682.52H5519.16C5512.05 7683.33 5504.85 7682.55 5498.08 7680.24C5491.31 7677.93 5485.15 7674.14 5480.05 7669.15C5474.94 7664.17 5471.03 7658.12 5468.59 7651.44C5466.14 7644.76 5465.24 7637.62 5465.94 7630.54V7630.54ZM5436.85 8131.58C5436.85 7994.69 5559 7882.65 5706.17 7882.65C5847.22 7882.65 5972.86 7994.69 5972.86 8131.58C5972.86 8268.46 5847.22 8380.5 5703.26 8380.5C5634.87 8382.22 5568.57 8357.01 5518.83 8310.37C5469.08 8263.74 5439.93 8199.47 5437.73 8131.58H5436.85Z" fill="#E6A5E1"/>
<path d="M12485.5 4316.78V4274.33C12485.5 4055.72 12764.1 4046.19 12764.1 3890.54C12764.1 3822.96 12708.6 3778.78 12626.3 3778.78C12536.1 3778.78 12479.1 3827.58 12479.1 3896.89V3914.22C12479.1 3931.55 12469.5 3939.34 12452.1 3939.34L12282.8 3932.99C12266.8 3932.99 12255.8 3925.19 12255.8 3914.22V3896.89C12255.8 3706.59 12407.9 3576.06 12631.2 3576.06C12849.6 3576.06 12990.7 3698.79 12990.7 3882.74C12990.7 4142.64 12707.1 4145.24 12707.1 4287.03V4315.91C12707.6 4319.53 12707.2 4323.19 12705.9 4326.63C12704.7 4330.07 12702.7 4333.19 12700.1 4335.75C12697.5 4338.31 12694.4 4340.24 12690.9 4341.41C12687.4 4342.58 12683.7 4342.94 12680.1 4342.48H12512.3C12508.7 4342.93 12505.1 4342.58 12501.7 4341.46C12498.3 4340.34 12495.3 4338.48 12492.7 4336.01C12490.1 4333.54 12488.1 4330.53 12486.9 4327.2C12485.7 4323.87 12485.2 4320.31 12485.5 4316.78V4316.78ZM12471.3 4570.04C12469.4 4543.04 12475.8 4516.1 12489.5 4492.74C12503.3 4469.37 12523.8 4450.65 12548.4 4439.02C12573 4427.39 12600.6 4423.39 12627.5 4427.52C12654.5 4431.66 12679.5 4443.75 12699.5 4462.21C12719.4 4480.68 12733.2 4504.68 12739.3 4531.08C12745.3 4557.48 12743.1 4585.06 12733.1 4610.24C12723.1 4635.42 12705.7 4657.04 12683.2 4672.27C12660.7 4687.5 12634.1 4695.65 12606.8 4695.66C12589.6 4696.28 12572.4 4693.51 12556.3 4687.53C12540.1 4681.54 12525.4 4672.46 12512.8 4660.79C12500.2 4649.12 12490 4635.09 12482.9 4619.52C12475.8 4603.95 12471.8 4587.13 12471.3 4570.04Z" fill="#E6A5E1"/>
<path d="M4318.01 10157.1V10103.7C4318.01 9828.16 4669.34 9816.32 4669.34 9619.95C4669.34 9534.76 4599.54 9479.31 4494.84 9479.31C4381.13 9479.31 4309.29 9540.82 4309.29 9628.03V9649.69C4309.29 9671.64 4297.37 9681.46 4275.26 9681.46L4061.79 9673.66C4041.72 9673.66 4027.76 9663.55 4027.76 9649.69V9628.03C4027.76 9388.34 4219.42 9223.74 4500.95 9223.74C4776.37 9223.74 4953.78 9378.24 4953.78 9610.13C4953.78 9939.05 4596.63 9941.07 4596.63 10121.6V10157.1C4597.2 10161.6 4596.71 10166.3 4595.2 10170.6C4593.69 10175 4591.2 10179 4587.92 10182.2C4584.64 10185.5 4580.65 10187.9 4576.27 10189.4C4571.88 10190.9 4567.21 10191.4 4562.61 10190.9H4351.46C4346.9 10191.3 4342.3 10190.8 4337.99 10189.2C4333.67 10187.7 4329.77 10185.2 4326.55 10182C4323.34 10178.7 4320.91 10174.8 4319.43 10170.5C4317.95 10166.2 4317.47 10161.6 4318.01 10157.1V10157.1ZM4299.98 10476.2C4297.71 10442.2 4305.8 10408.2 4323.2 10378.8C4340.61 10349.5 4366.52 10325.9 4397.57 10311.4C4428.62 10296.8 4463.37 10291.9 4497.29 10297.2C4531.21 10302.5 4562.73 10317.8 4587.75 10341.2C4612.77 10364.6 4630.13 10394.8 4637.57 10428.1C4645.01 10461.4 4642.18 10496.2 4629.46 10527.8C4616.73 10559.5 4594.7 10586.6 4566.23 10605.7C4537.76 10624.8 4504.17 10634.9 4469.83 10634.7C4426.06 10636.1 4383.52 10620.2 4351.56 10590.5C4319.61 10560.7 4300.84 10519.6 4299.4 10476.2H4299.98Z" stroke="#263238" stroke-miterlimit="10"/>
<path d="M6993.7 5172.18V5135.5C6993.7 4946.06 7235.38 4937.69 7235.38 4802.83C7235.38 4745.07 7187.39 4706.09 7115.85 4706.09C7037.61 4706.09 6988.17 4748.25 6988.17 4808.32V4823.33C6988.17 4838.35 6980.03 4844.99 6964.9 4844.99L6819.49 4839.5C6805.82 4839.5 6796.22 4832.86 6796.22 4823.33V4808.32C6796.22 4643.42 6927.97 4530.22 7121.37 4530.22C7314.78 4530.22 7429.95 4636.49 7429.95 4795.9C7429.95 5022.3 7184.19 5023.75 7184.19 5147.63V5172.18C7184.57 5175.3 7184.22 5178.47 7183.18 5181.44C7182.15 5184.41 7180.45 5187.11 7178.21 5189.34C7175.97 5191.56 7173.25 5193.25 7170.25 5194.28C7167.26 5195.31 7164.07 5195.65 7160.93 5195.28H7015.51C7012.48 5195.43 7009.45 5194.92 7006.64 5193.79C7003.83 5192.66 7001.3 5190.93 6999.23 5188.73C6997.15 5186.54 6995.58 5183.92 6994.63 5181.06C6993.67 5178.2 6993.35 5175.17 6993.7 5172.18V5172.18ZM6981.48 5391.65C6980.2 5368.58 6985.92 5345.65 6997.9 5325.84C7009.88 5306.03 7027.57 5290.24 7048.68 5280.51C7069.8 5270.79 7093.36 5267.58 7116.33 5271.29C7139.3 5275 7160.62 5285.47 7177.54 5301.34C7194.46 5317.22 7206.19 5337.76 7211.22 5360.33C7216.25 5382.89 7214.35 5406.43 7205.77 5427.91C7197.18 5449.39 7182.31 5467.82 7163.06 5480.82C7143.82 5493.81 7121.09 5500.78 7097.81 5500.81C7067.78 5501.83 7038.56 5490.96 7016.58 5470.6C6994.61 5450.24 6981.67 5422.06 6980.61 5392.23L6981.48 5391.65Z" fill="#263238"/>
<path d="M11298 13089.1V13052.4C11298 12863 11539.7 12854.9 11539.7 12719.7C11539.7 12662 11491.7 12623 11420.2 12623C11342 12623 11292.5 12665.1 11292.5 12725.2V12740.2C11292.5 12755.2 11284.4 12762.2 11269.3 12762.2L11123.8 12756.7C11110.2 12756.7 11100.6 12749.8 11100.6 12740.2V12725.2C11100.6 12560.3 11232.3 12447.1 11425.7 12447.1C11619.1 12447.1 11737.5 12553.4 11737.5 12713.1C11737.5 12939.2 11491.7 12940.6 11491.7 13064.5V13089.1C11492.1 13092.2 11491.8 13095.4 11490.7 13098.4C11489.7 13101.3 11488 13104.1 11485.8 13106.3C11483.5 13108.6 11480.8 13110.3 11477.8 13111.3C11474.8 13112.4 11471.6 13112.8 11468.5 13112.5H11323.1C11319.8 13113.1 11316.4 13112.9 11313.2 13112C11309.9 13111.1 11307 13109.4 11304.5 13107.1C11302.1 13104.8 11300.2 13102 11299.1 13098.9C11298 13095.7 11297.6 13092.4 11298 13089.1V13089.1ZM11285.8 13308.5C11284.5 13285.5 11290.3 13262.5 11302.2 13242.7C11314.2 13222.9 11331.9 13207.1 11353 13197.4C11374.1 13187.7 11397.7 13184.5 11420.7 13188.2C11443.7 13191.9 11465 13202.4 11481.9 13218.2C11498.8 13234.1 11510.5 13254.7 11515.6 13277.2C11520.6 13299.8 11518.7 13323.3 11510.1 13344.8C11501.5 13366.3 11486.7 13384.7 11467.4 13397.7C11448.2 13410.7 11425.4 13417.7 11402.2 13417.7C11372.2 13418.4 11343.2 13407.3 11321.5 13386.9C11299.7 13366.4 11287 13338.3 11286.1 13308.5H11285.8Z" stroke="#263238" stroke-miterlimit="10"/>
<path d="M10159.4 13746.4C10157.4 13740.3 10155.4 13734.2 10153 13728.2C10150.7 13722.1 10149 13715.7 10146.6 13709.7C10144.3 13703.6 10142.6 13697.5 10140.2 13691.5C10137.9 13685.4 10136.2 13679.1 10133.8 13673C10131.5 13666.9 10129.8 13660.9 10127.4 13654.8C10125.1 13648.7 10123.4 13642.4 10121 13636.3L10114.6 13618.1C10112.6 13611.8 10110.3 13605.7 10108.2 13599.7L10101.8 13581.5C10099.8 13575.1 10097.5 13569 10095.4 13563L10089 13544.8C10087 13538.4 10084.7 13532.4 10082.6 13526.3L10076.5 13507C10074.5 13500.6 10072.2 13494.5 10070.1 13488.5L10063.5 13470.3C10061.4 13463.9 10059.4 13457.9 10057.1 13451.8C10054.7 13445.7 10053 13439.7 10050.7 13433.6C10048.3 13427.5 10046.6 13421.2 10044.3 13415.1C10041.9 13409.1 10040.2 13403 10037.9 13396.9C9943.05 13110.5 9649.89 12900.2 9327.35 12900.2C9014.7 12900.2 8742.77 13081 8629.35 13335.7C8626.44 13341.5 8623.82 13347.5 8621.21 13353.3L8613.35 13371.2C8610.44 13377 8607.83 13382.8 8605.21 13388.8C8602.59 13394.9 8599.68 13400.7 8597.07 13406.5L8589.21 13424.1C8586.3 13430.1 8583.69 13435.9 8581.07 13442C8578.45 13448 8575.54 13453.5 8572.93 13459.6C8570.31 13465.7 8567.4 13471.1 8564.78 13477.2L8556.93 13494.8C8554.02 13500.6 8551.4 13506.7 8548.79 13512.4C8546.17 13518.2 8543.26 13524.3 8540.64 13530.1L8532.79 13548C8529.88 13553.7 8527.27 13559.5 8524.65 13565.6C8522.03 13571.6 8519.12 13577.4 8516.5 13583.2L8508.65 13600.8C8505.74 13606.9 8503.13 13612.6 8500.51 13618.7C8497.89 13624.8 8494.98 13630.3 8492.37 13636.3L8484.51 13653.9C8481.6 13659.7 8478.99 13665.8 8476.37 13671.6C8473.75 13677.3 8470.84 13683.4 8468.23 13689.5C8418.33 13795 8392.7 13910.2 8393.19 14026.8C8393.19 14491.7 8797.45 14871.7 9297.4 14871.7C9786.58 14871.7 10212.1 14491.7 10212.1 14026.8C10212 13938.1 10196.3 13850.2 10165.8 13766.9C10163.8 13758.5 10161.8 13752.4 10159.4 13746.4Z" fill="#263238"/>
<path d="M9467.53 7350.14C7967.7 7350.14 6946.58 8226.58 6946.58 9504.73V9620.24C6946.85 9639.33 6952.08 9658.02 6961.76 9674.51C6971.44 9691.01 6985.24 9704.74 7001.84 9714.38C7008.11 9720.38 7014.93 9725.79 7022.19 9730.55C7028.5 9736.64 7035.42 9742.06 7042.84 9746.73C7049.15 9752.81 7056.07 9758.23 7063.49 9762.9C7069.74 9769.04 7076.67 9774.47 7084.14 9779.07C7090.34 9785.15 7097.17 9790.57 7104.5 9795.24C7110.8 9801.42 7117.72 9806.93 7125.15 9811.7C7131.53 9817.7 7138.44 9823.11 7145.8 9827.87C7152.12 9833.94 7159.04 9839.36 7166.45 9844.04C7172.66 9850.11 7179.49 9855.53 7186.81 9860.22C7193.64 9866.76 7201.15 9872.56 7209.2 9877.54C7215.13 9882.9 7221.45 9887.83 7228.11 9892.27C7234.48 9898.27 7241.39 9903.68 7248.76 9908.44C7255.03 9914.44 7261.85 9919.85 7269.11 9924.61C7275.49 9930.61 7282.4 9936.03 7289.76 9940.79C7296.08 9946.85 7303 9952.27 7310.41 9956.96C7316.63 9963.02 7323.45 9968.44 7330.77 9973.13C7337.09 9979.19 7344.01 9984.61 7351.42 9989.3C7357.64 9995.36 7364.46 10000.8 7371.78 10005.5C7378.16 10011.5 7385.07 10016.9 7392.43 10021.6C7398.64 10027.7 7405.46 10033.1 7412.79 10037.8C7446.39 10067.2 7490.24 10082.3 7534.94 10080L8470.26 10114.6C8566.53 10114.6 8618.88 10071.3 8618.88 9975.73V9880.43C8618.88 9498.37 8933.56 9229.52 9433.21 9229.52C9887.79 9229.52 10193.7 9472.38 10193.7 9845.78C10193.8 9888.32 10189.7 9930.78 10181.5 9972.55C9712.12 10583.6 8490.33 10853 8490.33 12039.1V12324.4C8490.33 12439.9 8554.02 12503.7 8671.23 12503.7H9797.34C9913.67 12503.7 9978.24 12440.5 9978.24 12324.4V12134.1C9978.24 11173 11882.3 11162.3 11882.3 9409.14C11882.3 8173.74 10935.4 7350.14 9467.53 7350.14Z" fill="#263238"/>
<path d="M8488.88 12325V12039.6C8488.88 10571.5 10361 10509.1 10361 9462.56C10361 9008.31 9988.71 8711.73 9435.54 8711.73C8829.15 8711.73 8446.71 9039.21 8446.71 9503.85V9619.37C8446.71 9734.88 8382.72 9788.59 8265.81 9788.59L7127.48 9746.14C7021.32 9746.14 6946.87 9693.29 6946.87 9619.37V9503.85C6946.87 8225.71 7967.99 7349.26 9467.83 7349.26C10935.7 7349.26 11881.8 8172.87 11881.8 9408.85C11881.8 11162 9977.66 11172.7 9977.66 12133.8V12324.1C9977.66 12439.6 9913.67 12503.4 9796.76 12503.4H8669.78C8552.57 12504.3 8488.88 12441 8488.88 12325ZM8393.19 14026.7C8393.19 13562.1 8807.92 13181.8 9307.87 13181.8C9786.58 13181.8 10212.1 13562.1 10212.1 14026.7C10212.1 14491.4 9785.71 14870.3 9297.4 14870.3C8796.87 14870.3 8393.19 14490.2 8393.19 14026.7Z" fill="#E6A5E1" stroke="#E5E5E5" stroke-miterlimit="10"/>
<path d="M9250.86 15817.1C10128 15817.1 10839.1 15659.3 10839.1 15464.5C10839.1 15269.8 10128 15111.9 9250.86 15111.9C8373.7 15111.9 7662.61 15269.8 7662.61 15464.5C7662.61 15659.3 8373.7 15817.1 9250.86 15817.1Z" fill="#263238"/>
<path d="M8036.92 7467.04L7976.13 7598.72C7976.13 7598.72 7623.06 7636.55 7623.06 7662.83C7623.06 7689.11 7626.84 7870.17 7646.03 7877.68C7660.62 7883.32 7676.81 7883.32 7691.4 7877.68L8211.42 7745.71L8260.86 7512.09L8036.92 7467.04Z" fill="white" stroke="#263238" stroke-linecap="round" stroke-linejoin="round"/>
<path d="M7938.03 7702.45C7873.46 7754.98 7803.81 7801.03 7730.09 7839.91C7646.04 7877.46 7642.84 7934.35 7669.59 7934.35C7696.35 7934.35 7933.67 7835.58 7933.67 7835.58C7933.67 7835.58 8149.18 7779.56 8180.3 7762.52C8211.42 7745.48 8214.91 7650.76 8214.91 7650.76" fill="white"/>
<path d="M7938.03 7702.45C7873.46 7754.98 7803.81 7801.03 7730.09 7839.91C7646.04 7877.46 7642.84 7934.35 7669.59 7934.35C7696.35 7934.35 7933.67 7835.58 7933.67 7835.58C7933.67 7835.58 8149.18 7779.56 8180.3 7762.52C8211.42 7745.48 8214.91 7650.76 8214.91 7650.76" stroke="#263238" stroke-linecap="round" stroke-linejoin="round"/>
<path d="M8347.53 4936.78L8130.56 6588.03L7979.62 7482.1L8314.66 7560.64L8564.49 6503.13L8682.86 5837.49L8347.53 4936.78Z" fill="#7D7D7D" stroke="#263238" stroke-linecap="round" stroke-linejoin="round"/>
<path d="M10098.4 3741.27L9966.02 3720.48L9694.97 3618.54L9685.08 3938.22L10105.3 3976.63L10098.4 3741.27Z" fill="white" stroke="#263238" stroke-linecap="round" stroke-linejoin="round"/>
<path d="M8551.4 9596.79C8452.78 9710.98 8360.63 9830.52 8275.4 9954.88C8163.43 10124.7 8202.98 10307.2 8341.13 10353.1C8479.27 10399 8656.39 10274.6 8702.64 10176.7C8748.88 10078.8 8735.5 10026.8 8807.63 9928.89C8879.75 9830.99 8939.08 9733.1 8912.91 9602.57C8886.73 9472.04 8622.37 9505.54 8551.4 9596.79Z" fill="#7D7D7D" stroke="#263238" stroke-linecap="round" stroke-linejoin="round"/>
<path d="M8689.26 10201.2C8679.95 10181.6 8669.19 10160.8 8656.4 10138.6C8550.82 9954.04 8365.56 9968.77 8249.23 10003.1C8172.74 10158.2 8216.36 10312.4 8341.71 10354C8467.06 10395.6 8628.77 10293.9 8689.26 10201.2Z" fill="white" stroke="#263238" stroke-linecap="round" stroke-linejoin="round"/>
<path d="M8656.4 10138.6C8617.13 10196.4 8564.49 10354.1 8360.62 10288.8C8303.76 10274.3 8252.91 10242.5 8215.2 10197.8C8219.61 10233 8233.84 10266.3 8256.3 10293.9C8278.76 10321.6 8308.55 10342.4 8342.29 10354.1C8480.15 10399.7 8657.56 10275.5 8703.8 10177.6C8750.04 10079.7 8736.67 10027.7 8808.79 9929.84C8880.92 9831.95 8940.25 9734.05 8914.07 9603.52C8914.07 9760.04 8855.91 9786.03 8782.62 9870.93C8709.33 9955.83 8695.95 10079.7 8656.4 10138.6Z" fill="white" stroke="#263238" stroke-linecap="round" stroke-linejoin="round"/>
<path d="M10491 9596.79C10589.6 9710.98 10681.7 9830.52 10767 9954.88C10879 10124.7 10839.4 10307.2 10701.3 10353.1C10563.1 10399 10386 10274.6 10339.7 10176.7C10293.5 10078.8 10306.9 10026.8 10234.8 9928.89C10162.6 9830.99 10103.3 9733.1 10129.5 9602.57C10155.6 9472.04 10418.9 9505.54 10491 9596.79Z" fill="#7D7D7D" stroke="#263238" stroke-linecap="round" stroke-linejoin="round"/>
<path d="M10353.4 10201.2C10362.4 10181.6 10373.2 10160.8 10386 10138.6C10491.6 9954.04 10676.8 9968.77 10793.2 10003.1C10869.6 10158.2 10826 10312.4 10700.7 10354C10575.3 10395.6 10413.6 10293.9 10353.4 10201.2Z" fill="white" stroke="#263238" stroke-linecap="round" stroke-linejoin="round"/>
<path d="M10386 10138.6C10425.3 10196.4 10477.9 10354.1 10681.8 10288.8C10738.6 10274.3 10789.5 10242.5 10827.2 10197.8C10822.8 10233 10808.5 10266.3 10786.1 10293.9C10763.6 10321.6 10733.8 10342.4 10700.1 10354.1C10562.2 10399.7 10384.8 10275.5 10338.6 10177.6C10292.3 10079.7 10305.7 10027.7 10233.6 9929.84C10161.5 9831.95 10102.1 9734.05 10128.3 9603.52C10128.3 9760.04 10186.5 9786.03 10259.8 9870.93C10333.1 9955.83 10346.4 10079.7 10386 10138.6Z" fill="white" stroke="#263238" stroke-linecap="round" stroke-linejoin="round"/>
<path d="M10799.3 7345.22C10799.3 7227.68 10595.7 7097.15 10595.7 7097.15C10288.8 6787.29 9735.1 6828.3 9530.64 6856.02C9327.06 6827.15 8772.73 6787.29 8465.9 7097.15C8465.9 7097.15 8262.31 7227.68 8262.31 7345.22C8262.31 7462.75 8518.83 9583.83 8518.83 9583.83C8518.83 9583.83 8512.14 9694.73 8696.24 9707.72C8880.34 9720.72 8957.99 9616.47 8957.99 9616.47L9030.41 7821.7C9030.41 7821.7 9326.19 7612.63 9379.41 7606.27C9398.6 7603.67 9423.62 7599.63 9451.54 7596.17V7599.63C9503.62 7588.85 9557.38 7588.85 9609.46 7599.63V7596.17C9638.54 7599.63 9662.1 7603.67 9681.59 7606.27C9734.23 7612.63 10030.6 7821.7 10030.6 7821.7L10103 9616.47C10103 9616.47 10181.8 9720.72 10364.8 9707.72C10547.7 9694.73 10542.2 9583.83 10542.2 9583.83C10542.2 9583.83 10799.3 7462.75 10799.3 7345.22Z" fill="#263238" stroke="#263238" stroke-linecap="round" stroke-linejoin="round"/>
<path d="M10030.3 7821.73C10030.3 7821.73 9990.74 7390.87 10181.5 7227.71" stroke="#707070" stroke-linecap="round" stroke-linejoin="round"/>
<path d="M9031.28 7821.71C9031.28 7821.71 9051.06 7462.75 9011.51 7332.23C8971.95 7201.7 8906.22 7149.43 8906.22 7149.43" stroke="#707070" stroke-linecap="round" stroke-linejoin="round"/>
<path d="M9274.42 6966.57C9274.42 6966.57 9484.69 7207.99 9524.24 7410.43" stroke="#707070" stroke-linecap="round" stroke-linejoin="round"/>
<path d="M9734.52 6980.53C9734.52 6980.53 9616.15 7111.06 9603.06 7208.96" stroke="#707070" stroke-linecap="round" stroke-linejoin="round"/>
<path d="M9438.74 4440.94C9438.74 4440.94 9248.24 4414.66 9182.51 4479.92C9116.78 4545.19 8893.13 4785.74 8893.13 4785.74L9011.5 6861.21C9011.5 6861.21 9281.11 6965.75 9511.16 6965.75C9741.21 6965.75 10004.1 6880.84 10063.7 6835.22C10123.4 6789.59 10070.4 4563.96 10070.4 4563.96C10070.4 4563.96 9582.12 4421.3 9438.74 4440.94Z" fill="#FDE16C" stroke="#263238" stroke-linecap="round" stroke-linejoin="round"/>
<path d="M9787.16 4486.61C9887.22 4471.52 9988.15 4462.74 10089.3 4460.33C10220.8 4460.33 10351.1 4466.97 10351.1 4466.97L10679.7 4153.64L10018.4 4003.48L10071 3703.44C10071 3703.44 10557.3 3670.8 10800.4 3716.43C11043.6 3762.06 11424.8 3879.59 11444.6 3879.59C11464.4 3879.59 11490.6 3951.5 11470.8 4003.48C11451 4055.46 10832.7 4734.67 10648 4910.83C10527.2 5028.38 10413.1 5152.56 10306.3 5282.78L10222 6738.23C10222 6738.23 10438.9 6855.76 10478.5 6894.75C10518 6933.73 10564 7090.54 10564 7090.54C10564 7090.54 10162.9 6927.38 10057.6 6914.39C9952.35 6901.39 9886.91 6894.75 9867.14 6856.63C9847.36 6818.51 9683.04 5074.85 9683.04 5074.85L9689.73 4520.11C9689.73 4520.11 9688.56 4486.61 9787.16 4486.61Z" fill="#7D7D7D" stroke="#263238" stroke-linecap="round" stroke-linejoin="round"/>
<path d="M10181.5 5380.69L9826.42 5426.31L9859.29 5556.84L10037 5602.47L10207.7 5524.21L10181.5 5380.69Z" stroke="#263238" stroke-linecap="round" stroke-linejoin="round"/>
<path d="M10385.1 4597.45L10306.3 5282.73L10510.2 4701.99" stroke="#263238" stroke-linecap="round" stroke-linejoin="round"/>
<path d="M10680.9 4153.62C10680.9 4153.62 10845.2 4186.25 11095 4088.35" stroke="#263238" stroke-linecap="round" stroke-linejoin="round"/>
<path d="M10851.9 4199.23C10959.9 4202.21 11067.8 4193.5 11173.9 4173.24" stroke="#263238" stroke-linecap="round" stroke-linejoin="round"/>
<path d="M9215.38 4434.29L9248.24 4910.77C9278.2 4949.9 9317 4981.49 9361.5 5003.01C9406 5024.53 9454.97 5035.37 9504.47 5034.66C9668.79 5028.31 9688.57 4910.77 9688.57 4910.77V4519.19L9215.38 4434.29Z" fill="white" stroke="#263238" stroke-linecap="round" stroke-linejoin="round"/>
<path d="M9694.97 4682.36L9681.88 5074.52L9820.03 4859.09C9820.03 4859.09 9971.26 5048.24 10010.5 5041.89C10049.8 5035.54 9984.35 4956.99 9971.26 4885.37C9958.17 4813.75 9846.2 4558.76 9833.11 4487.14C9820.03 4415.53 9694.97 4402.24 9687.7 4434.87C9684.05 4463.06 9684.05 4491.59 9687.7 4519.78L9694.97 4682.36Z" fill="#7D7D7D" stroke="#263238" stroke-linecap="round" stroke-linejoin="round"/>
<path d="M9241.55 5034.71C9241.55 5034.71 9267.73 6862.11 9202 6882.9C9136.27 6903.69 8873.36 6909.18 8707.58 6987.44C8541.81 7065.7 8464.44 7098.33 8464.44 7098.33C8464.44 7098.33 8543.26 6909.18 8635.45 6824.28C8696.73 6769.59 8765.22 6723.44 8839.04 6687.11L8668.32 5812.68C8668.32 5812.68 8352.76 4983.59 8346.07 4937.97C8339.39 4892.34 8944.32 4553.02 9069.09 4494.11C9193.86 4435.2 9227.01 4487.76 9227.01 4487.76L9241.55 5034.71Z" fill="#7D7D7D" stroke="#263238" stroke-linecap="round" stroke-linejoin="round"/>
<path d="M9077.23 4401.7C9077.23 4401.7 8919.6 4897.82 8906.22 4963.09C8892.84 5028.35 8906.22 5028.35 8952.47 4982.43C8998.71 4936.52 9116.79 4825.92 9116.79 4825.92L9241.55 5034.7L9234.87 4649.76V4427.69C9234.87 4427.69 9228.47 4336.43 9077.23 4401.7Z" fill="#7D7D7D" stroke="#263238" stroke-linecap="round" stroke-linejoin="round"/>
<path d="M8768.37 5472.17H9156.05L9149.65 5628.69L8978.64 5687.31L8761.68 5628.69L8768.37 5472.17Z" stroke="#263238" stroke-linecap="round" stroke-linejoin="round"/>
<path d="M9833.11 3755.69C9833.11 3755.69 9925.01 4153.63 9944.79 4217.74C9964.57 4281.85 9839.8 4537.7 9799.37 4596.33C9783.99 4621.75 9762.83 4643.25 9737.57 4659.09C9712.32 4674.94 9683.69 4684.69 9653.96 4687.58C9608 4687.58 9358.18 4602.97 9298.85 4563.69C9239.52 4524.42 9180.77 4478.79 9180.77 4478.79C9152.81 4491.45 9121.74 4495.73 9091.36 4491.12C9060.98 4486.5 9032.63 4473.19 9009.76 4452.8C8930.94 4380.9 8825.66 4296 8851.83 4237.37C8864.59 4208.61 8885.93 4184.43 8912.98 4168.1C8940.03 4151.78 8971.48 4144.11 9003.07 4146.12C9075.49 4146.12 9049.31 4139.48 9049.31 4139.48C9049.31 4139.48 8917.85 3950.33 8917.85 3800.16C8917.85 3650 9200.25 3540.26 9364.58 3540.26C9478.2 3544.96 9589.81 3571.54 9693.22 3618.52L9833.11 3755.69Z" fill="white" stroke="#263238" stroke-linecap="round" stroke-linejoin="round"/>
<path d="M9603.06 3905.59L9721.43 4127.66L9603.06 4205.92L9550.42 4140.66" stroke="#263238" stroke-linecap="round" stroke-linejoin="round"/>
<path d="M9820.02 4107.95C9820.02 4107.95 9826.42 4160.22 9747.61 4245.12" stroke="#263238" stroke-linecap="round" stroke-linejoin="round"/>
<path d="M9478.29 3987.32C9478.29 4017.93 9464.91 4042.77 9449.21 4042.77C9433.5 4042.77 9420.12 4017.93 9420.12 3987.32C9420.12 3956.71 9433.5 3931.88 9449.21 3931.88C9464.91 3931.88 9478.29 3956.71 9478.29 3987.32Z" fill="#263238"/>
<path d="M9685.08 3938.2C9701.46 3938.2 9714.74 3913.37 9714.74 3882.75C9714.74 3852.13 9701.46 3827.31 9685.08 3827.31C9668.69 3827.31 9655.41 3852.13 9655.41 3882.75C9655.41 3913.37 9668.69 3938.2 9685.08 3938.2Z" fill="#263238"/>
<path d="M9123.18 3416.07C9123.18 3416.07 8709.62 3566.24 8695.95 3755.67C8682.28 3945.11 9064.14 4205.88 9083.92 4238.52C9103.7 4271.15 9162.74 4199.24 9162.74 4199.24C9149.59 4181.71 9140.42 4161.56 9135.85 4140.17C9131.29 4118.79 9131.43 4096.68 9136.27 4075.35C9156.05 4010.09 9241.55 3930.96 9241.55 3899.2C9241.55 3867.43 9142.96 3925.19 9142.96 3827.29C9142.96 3729.4 9386.1 3670.77 9530.64 3677.13C9675.19 3683.48 9800.25 3925.19 9905.53 3807.66C10010.8 3690.12 9859.29 3657.78 9859.29 3657.78C9859.29 3657.78 10062.9 3631.5 10062.9 3527.25C10062.9 3423 9957.59 3350.81 9911.64 3350.81C9865.68 3350.81 9740.92 3429.35 9740.92 3344.45C9740.92 3259.55 9865.68 3220.28 9747.32 3084.55C9628.95 2948.82 9478 3084.55 9478 3136.82C9478 3189.09 9438.45 3286.7 9412.27 3286.7C9386.1 3286.7 9306.99 3169.45 9215.09 3234.72C9187.46 3256.53 9164.93 3284.05 9149.06 3315.36C9133.19 3346.67 9124.36 3381.04 9123.18 3416.07V3416.07Z" fill="#263238" stroke="#263238" stroke-linecap="round" stroke-linejoin="round"/>
<path d="M9294.2 3918.85L9504.47 3840.3" stroke="#263238" stroke-linecap="round" stroke-linejoin="round"/>
<path d="M9537.33 3749.04C9533.31 3728.55 9536.6 3707.31 9546.64 3688.97" stroke="#263238" stroke-linecap="round" stroke-linejoin="round"/>
<path d="M9546.64 3688.42C9561.47 3659.54 9594.92 3622.29 9668.79 3591.96" stroke="white" stroke-linecap="round" stroke-linejoin="round"/>
</svg>
